<?xml version="1.0" encoding="utf-8" standalone="no"?>
<!DOCTYPE svg PUBLIC "-//W3C//DTD SVG 1.1//EN"
  "http://www.w3.org/Graphics/SVG/1.1/DTD/svg11.dtd">
<!-- Created with matplotlib (https://matplotlib.org/) -->
<svg height="720pt" version="1.1" viewBox="0 0 1440 720" width="1440pt" xmlns="http://www.w3.org/2000/svg" xmlns:xlink="http://www.w3.org/1999/xlink">
 <metadata>
  <rdf:RDF xmlns:cc="http://creativecommons.org/ns#" xmlns:dc="http://purl.org/dc/elements/1.1/" xmlns:rdf="http://www.w3.org/1999/02/22-rdf-syntax-ns#">
   <cc:Work>
    <dc:type rdf:resource="http://purl.org/dc/dcmitype/StillImage"/>
    <dc:date>2020-11-17T09:18:35.125157</dc:date>
    <dc:format>image/svg+xml</dc:format>
    <dc:creator>
     <cc:Agent>
      <dc:title>Matplotlib v3.3.1, https://matplotlib.org/</dc:title>
     </cc:Agent>
    </dc:creator>
   </cc:Work>
  </rdf:RDF>
 </metadata>
 <defs>
  <style type="text/css">*{stroke-linecap:butt;stroke-linejoin:round;}</style>
 </defs>
 <g id="figure_1">
  <g id="patch_1">
   <path d="M 0 720 
L 1440 720 
L 1440 0 
L 0 0 
z
" style="fill:none;"/>
  </g>
  <g id="axes_1">
   <g id="patch_2">
    <path d="M 180 630 
L 1296 630 
L 1296 86.4 
L 180 86.4 
z
" style="fill:#ffffff;"/>
   </g>
   <g id="patch_3">
    <path clip-path="url(#p169c161951)" d="M 214.875 630 
L 284.625 630 
L 284.625 552.774286 
L 214.875 552.774286 
z
" style="fill:#ffa500;"/>
   </g>
   <g id="patch_4">
    <path clip-path="url(#p169c161951)" d="M 354.375 630 
L 424.125 630 
L 424.125 544.270968 
L 354.375 544.270968 
z
" style="fill:#ffa500;"/>
   </g>
   <g id="patch_5">
    <path clip-path="url(#p169c161951)" d="M 493.875 630 
L 563.625 630 
L 563.625 555.708 
L 493.875 555.708 
z
" style="fill:#ffa500;"/>
   </g>
   <g id="patch_6">
    <path clip-path="url(#p169c161951)" d="M 633.375 630 
L 703.125 630 
L 703.125 557.617419 
L 633.375 557.617419 
z
" style="fill:#ffa500;"/>
   </g>
   <g id="patch_7">
    <path clip-path="url(#p169c161951)" d="M 772.875 630 
L 842.625 630 
L 842.625 556.01 
L 772.875 556.01 
z
" style="fill:#ffa500;"/>
   </g>
   <g id="patch_8">
    <path clip-path="url(#p169c161951)" d="M 912.375 630 
L 982.125 630 
L 982.125 560.637419 
L 912.375 560.637419 
z
" style="fill:#ffa500;"/>
   </g>
   <g id="patch_9">
    <path clip-path="url(#p169c161951)" d="M 1051.875 630 
L 1121.625 630 
L 1121.625 576.809032 
L 1051.875 576.809032 
z
" style="fill:#ffa500;"/>
   </g>
   <g id="patch_10">
    <path clip-path="url(#p169c161951)" d="M 1191.375 630 
L 1261.125 630 
L 1261.125 569.07931 
L 1191.375 569.07931 
z
" style="fill:#ffa500;"/>
   </g>
   <g id="patch_11">
    <path clip-path="url(#p169c161951)" d="M 214.875 552.774286 
L 284.625 552.774286 
L 284.625 389.478571 
L 214.875 389.478571 
z
" style="fill:#00ff00;"/>
   </g>
   <g id="patch_12">
    <path clip-path="url(#p169c161951)" d="M 354.375 544.270968 
L 424.125 544.270968 
L 424.125 386.354194 
L 354.375 386.354194 
z
" style="fill:#00ff00;"/>
   </g>
   <g id="patch_13">
    <path clip-path="url(#p169c161951)" d="M 493.875 555.708 
L 563.625 555.708 
L 563.625 394.742 
L 493.875 394.742 
z
" style="fill:#00ff00;"/>
   </g>
   <g id="patch_14">
    <path clip-path="url(#p169c161951)" d="M 633.375 557.617419 
L 703.125 557.617419 
L 703.125 437.207097 
L 633.375 437.207097 
z
" style="fill:#00ff00;"/>
   </g>
   <g id="patch_15">
    <path clip-path="url(#p169c161951)" d="M 772.875 556.01 
L 842.625 556.01 
L 842.625 451.518 
L 772.875 451.518 
z
" style="fill:#00ff00;"/>
   </g>
   <g id="patch_16">
    <path clip-path="url(#p169c161951)" d="M 912.375 560.637419 
L 982.125 560.637419 
L 982.125 436.135484 
L 912.375 436.135484 
z
" style="fill:#00ff00;"/>
   </g>
   <g id="patch_17">
    <path clip-path="url(#p169c161951)" d="M 1051.875 576.809032 
L 1121.625 576.809032 
L 1121.625 472.472903 
L 1051.875 472.472903 
z
" style="fill:#00ff00;"/>
   </g>
   <g id="patch_18">
    <path clip-path="url(#p169c161951)" d="M 1191.375 569.07931 
L 1261.125 569.07931 
L 1261.125 482.124138 
L 1191.375 482.124138 
z
" style="fill:#00ff00;"/>
   </g>
   <g id="patch_19">
    <path clip-path="url(#p169c161951)" d="M 214.875 389.478571 
L 284.625 389.478571 
L 284.625 270.188571 
L 214.875 270.188571 
z
" style="fill:#ffff00;"/>
   </g>
   <g id="patch_20">
    <path clip-path="url(#p169c161951)" d="M 354.375 386.354194 
L 424.125 386.354194 
L 424.125 276.66 
L 354.375 276.66 
z
" style="fill:#ffff00;"/>
   </g>
   <g id="patch_21">
    <path clip-path="url(#p169c161951)" d="M 493.875 394.742 
L 563.625 394.742 
L 563.625 187.872 
L 493.875 187.872 
z
" style="fill:#ffff00;"/>
   </g>
   <g id="patch_22">
    <path clip-path="url(#p169c161951)" d="M 633.375 437.207097 
L 703.125 437.207097 
L 703.125 243.829677 
L 633.375 243.829677 
z
" style="fill:#ffff00;"/>
   </g>
   <g id="patch_23">
    <path clip-path="url(#p169c161951)" d="M 772.875 451.518 
L 842.625 451.518 
L 842.625 257.936 
L 772.875 257.936 
z
" style="fill:#ffff00;"/>
   </g>
   <g id="patch_24">
    <path clip-path="url(#p169c161951)" d="M 912.375 436.135484 
L 982.125 436.135484 
L 982.125 248.798065 
L 912.375 248.798065 
z
" style="fill:#ffff00;"/>
   </g>
   <g id="patch_25">
    <path clip-path="url(#p169c161951)" d="M 1051.875 472.472903 
L 1121.625 472.472903 
L 1121.625 216.162581 
L 1051.875 216.162581 
z
" style="fill:#ffff00;"/>
   </g>
   <g id="patch_26">
    <path clip-path="url(#p169c161951)" d="M 1191.375 482.124138 
L 1261.125 482.124138 
L 1261.125 188.142759 
L 1191.375 188.142759 
z
" style="fill:#ffff00;"/>
   </g>
   <g id="patch_27">
    <path clip-path="url(#p169c161951)" d="M 214.875 270.188571 
L 284.625 270.188571 
L 284.625 236.968571 
L 214.875 236.968571 
z
" style="fill:#87ceeb;"/>
   </g>
   <g id="patch_28">
    <path clip-path="url(#p169c161951)" d="M 354.375 276.66 
L 424.125 276.66 
L 424.125 244.024516 
L 354.375 244.024516 
z
" style="fill:#87ceeb;"/>
   </g>
   <g id="patch_29">
    <path clip-path="url(#p169c161951)" d="M 493.875 187.872 
L 563.625 187.872 
L 563.625 151.632 
L 493.875 151.632 
z
" style="fill:#87ceeb;"/>
   </g>
   <g id="patch_30">
    <path clip-path="url(#p169c161951)" d="M 633.375 243.829677 
L 703.125 243.829677 
L 703.125 201.939355 
L 633.375 201.939355 
z
" style="fill:#87ceeb;"/>
   </g>
   <g id="patch_31">
    <path clip-path="url(#p169c161951)" d="M 772.875 257.936 
L 842.625 257.936 
L 842.625 221.595333 
L 772.875 221.595333 
z
" style="fill:#87ceeb;"/>
   </g>
   <g id="patch_32">
    <path clip-path="url(#p169c161951)" d="M 912.375 248.798065 
L 982.125 248.798065 
L 982.125 199.503871 
L 912.375 199.503871 
z
" style="fill:#87ceeb;"/>
   </g>
   <g id="patch_33">
    <path clip-path="url(#p169c161951)" d="M 1051.875 216.162581 
L 1121.625 216.162581 
L 1121.625 157.516129 
L 1051.875 157.516129 
z
" style="fill:#87ceeb;"/>
   </g>
   <g id="patch_34">
    <path clip-path="url(#p169c161951)" d="M 1191.375 188.142759 
L 1261.125 188.142759 
L 1261.125 125.972414 
L 1191.375 125.972414 
z
" style="fill:#87ceeb;"/>
   </g>
   <g id="matplotlib.axis_1">
    <g id="xtick_1">
     <g id="line2d_1">
      <defs>
       <path d="M 0 0 
L 0 3.5 
" id="m4adad3154b" style="stroke:#000000;stroke-width:0.8;"/>
      </defs>
      <g>
       <use style="stroke:#000000;stroke-width:0.8;" x="249.75" xlink:href="#m4adad3154b" y="630"/>
      </g>
     </g>
     <g id="text_1">
      <!-- (2019, 7) -->
      <g transform="translate(230.082031 644.592188)scale(0.1 -0.1)">
       <defs>
        <path d="M 22.46875 -16.3125 
Q 6.984375 1.375 6.984375 27.390625 
Q 6.984375 53.609375 22.46875 71.875 
L 29.5 71.875 
Q 13.71875 52.6875 13.71875 27.484375 
Q 13.71875 2.390625 29.390625 -16.3125 
z
" id="MalgunGothic-40"/>
        <path d="M 39.359375 52.6875 
Q 39.359375 59.125 35.546875 62.78125 
Q 31.734375 66.453125 25.4375 66.453125 
Q 20.953125 66.453125 16.453125 64.125 
Q 11.96875 61.8125 8.34375 57.765625 
L 8.34375 66.15625 
Q 15.328125 73.046875 26.421875 73.046875 
Q 35.640625 73.046875 41.28125 67.71875 
Q 46.921875 62.40625 46.921875 53.375 
Q 46.921875 45.609375 43.3125 39.765625 
Q 39.703125 33.9375 31 27.734375 
Q 22.796875 21.96875 19.59375 18.984375 
Q 16.40625 16.015625 15.109375 13.34375 
Q 13.8125 10.6875 13.8125 7.03125 
L 48.6875 7.03125 
L 48.6875 0 
L 5.5625 0 
L 5.5625 3.515625 
Q 5.5625 9.421875 7.203125 13.59375 
Q 8.84375 17.78125 12.671875 21.75 
Q 16.5 25.734375 24.953125 31.59375 
Q 32.671875 36.921875 36.015625 41.71875 
Q 39.359375 46.53125 39.359375 52.6875 
z
" id="MalgunGothic-50"/>
        <path d="M 4.34375 34.46875 
Q 4.34375 53.515625 10.546875 63.28125 
Q 16.75 73.046875 28.421875 73.046875 
Q 50.828125 73.046875 50.828125 36.234375 
Q 50.828125 18.0625 44.59375 8.421875 
Q 38.375 -1.21875 26.8125 -1.21875 
Q 15.875 -1.21875 10.109375 8.125 
Q 4.34375 17.484375 4.34375 34.46875 
z
M 12.25 34.859375 
Q 12.25 5.375 27.640625 5.375 
Q 42.921875 5.375 42.921875 35.296875 
Q 42.921875 66.40625 28.03125 66.40625 
Q 12.25 66.40625 12.25 34.859375 
z
" id="MalgunGothic-48"/>
        <path d="M 34.859375 0 
L 27.09375 0 
L 27.09375 62.0625 
Q 24.859375 59.8125 19.78125 57.203125 
Q 14.703125 54.59375 10.5 53.5625 
L 10.5 61.859375 
Q 15.875 63.375 22.015625 66.796875 
Q 28.171875 70.21875 31.734375 73.4375 
L 34.859375 73.4375 
z
" id="MalgunGothic-49"/>
        <path d="M 8.6875 8.796875 
Q 14.703125 5.375 21.34375 5.375 
Q 31.15625 5.375 36.671875 13.359375 
Q 42.1875 21.34375 42.1875 36.140625 
Q 42.09375 36.03125 42 36.140625 
Q 37.3125 26.765625 25.828125 26.765625 
Q 16.546875 26.765625 10.65625 33.125 
Q 4.78125 39.5 4.78125 49.125 
Q 4.78125 59.46875 11.109375 66.25 
Q 17.4375 73.046875 27.6875 73.046875 
Q 38.53125 73.046875 44.265625 64.546875 
Q 50 56.0625 50 40.28125 
Q 50 20.609375 42.453125 9.6875 
Q 34.90625 -1.21875 21 -1.21875 
Q 13.765625 -1.21875 8.6875 1.21875 
z
M 12.703125 50.296875 
Q 12.703125 42.828125 16.609375 38.28125 
Q 20.515625 33.734375 27.484375 33.734375 
Q 33.546875 33.734375 37.59375 37.765625 
Q 41.65625 41.796875 41.65625 47.609375 
Q 41.65625 55.5625 37.671875 60.984375 
Q 33.6875 66.40625 26.953125 66.40625 
Q 20.65625 66.40625 16.671875 61.6875 
Q 12.703125 56.984375 12.703125 50.296875 
z
" id="MalgunGothic-57"/>
        <path d="M 15.4375 11.328125 
L 7.375 -13.28125 
L 1.953125 -13.28125 
L 7.859375 11.328125 
z
" id="MalgunGothic-44"/>
        <path id="MalgunGothic-32"/>
        <path d="M 50.203125 67.140625 
Q 38.71875 46.96875 32.25 29.96875 
Q 25.78125 12.984375 24.21875 0 
L 15.765625 0 
Q 16.9375 8.296875 20.15625 18.375 
Q 23.390625 28.46875 28.359375 39.640625 
Q 33.34375 50.828125 41.109375 64.796875 
L 4.546875 64.796875 
L 4.546875 71.875 
L 50.203125 71.875 
z
" id="MalgunGothic-55"/>
        <path d="M 1.265625 -16.3125 
Q 16.890625 2.34375 16.890625 27.484375 
Q 16.890625 52.78125 1.125 71.875 
L 8.203125 71.875 
Q 23.78125 53.609375 23.78125 27.390625 
Q 23.78125 1.375 8.203125 -16.3125 
z
" id="MalgunGothic-41"/>
       </defs>
       <use xlink:href="#MalgunGothic-40"/>
       <use x="30.46875" xlink:href="#MalgunGothic-50"/>
       <use x="85.546875" xlink:href="#MalgunGothic-48"/>
       <use x="140.625" xlink:href="#MalgunGothic-49"/>
       <use x="195.703125" xlink:href="#MalgunGothic-57"/>
       <use x="250.78125" xlink:href="#MalgunGothic-44"/>
       <use x="272.65625" xlink:href="#MalgunGothic-32"/>
       <use x="307.8125" xlink:href="#MalgunGothic-55"/>
       <use x="362.890625" xlink:href="#MalgunGothic-41"/>
      </g>
     </g>
    </g>
    <g id="xtick_2">
     <g id="line2d_2">
      <g>
       <use style="stroke:#000000;stroke-width:0.8;" x="389.25" xlink:href="#m4adad3154b" y="630"/>
      </g>
     </g>
     <g id="text_2">
      <!-- (2019, 8) -->
      <g transform="translate(369.582031 644.592188)scale(0.1 -0.1)">
       <defs>
        <path d="M 4.734375 20.015625 
Q 4.734375 26.078125 8.421875 31.421875 
Q 12.109375 36.765625 18.015625 38.96875 
Q 13.375 41.359375 10.546875 45.546875 
Q 7.71875 49.75 7.71875 54.6875 
Q 7.71875 59.8125 10.296875 64.03125 
Q 12.890625 68.265625 17.53125 70.65625 
Q 22.171875 73.046875 27.78125 73.046875 
Q 36.46875 73.046875 42.1875 67.84375 
Q 47.90625 62.640625 47.90625 54.6875 
Q 47.90625 49.703125 45.015625 45.53125 
Q 42.140625 41.359375 37.703125 38.96875 
Q 43.5625 36.71875 47.21875 31.390625 
Q 50.875 26.078125 50.875 20.015625 
Q 50.875 10.5 44.421875 4.640625 
Q 37.984375 -1.21875 27.78125 -1.21875 
Q 17.671875 -1.21875 11.203125 4.703125 
Q 4.734375 10.640625 4.734375 20.015625 
z
M 12.640625 20.75 
Q 12.640625 13.71875 16.890625 9.546875 
Q 21.140625 5.375 27.828125 5.375 
Q 34.46875 5.375 38.78125 9.671875 
Q 43.109375 13.96875 43.109375 20.75 
Q 43.109375 27.046875 38.78125 31.421875 
Q 34.46875 35.796875 27.828125 35.796875 
Q 21.4375 35.796875 17.03125 31.5625 
Q 12.640625 27.34375 12.640625 20.75 
z
M 15.671875 54.046875 
Q 15.671875 48.828125 19.28125 45.3125 
Q 22.90625 41.796875 27.828125 41.796875 
Q 32.765625 41.796875 36.40625 45.3125 
Q 40.046875 48.828125 40.046875 54.046875 
Q 40.046875 59.421875 36.578125 62.90625 
Q 33.109375 66.40625 27.828125 66.40625 
Q 22.65625 66.40625 19.15625 62.953125 
Q 15.671875 59.515625 15.671875 54.046875 
z
" id="MalgunGothic-56"/>
       </defs>
       <use xlink:href="#MalgunGothic-40"/>
       <use x="30.46875" xlink:href="#MalgunGothic-50"/>
       <use x="85.546875" xlink:href="#MalgunGothic-48"/>
       <use x="140.625" xlink:href="#MalgunGothic-49"/>
       <use x="195.703125" xlink:href="#MalgunGothic-57"/>
       <use x="250.78125" xlink:href="#MalgunGothic-44"/>
       <use x="272.65625" xlink:href="#MalgunGothic-32"/>
       <use x="307.8125" xlink:href="#MalgunGothic-56"/>
       <use x="362.890625" xlink:href="#MalgunGothic-41"/>
      </g>
     </g>
    </g>
    <g id="xtick_3">
     <g id="line2d_3">
      <g>
       <use style="stroke:#000000;stroke-width:0.8;" x="528.75" xlink:href="#m4adad3154b" y="630"/>
      </g>
     </g>
     <g id="text_3">
      <!-- (2019, 9) -->
      <g transform="translate(509.082031 644.592188)scale(0.1 -0.1)">
       <use xlink:href="#MalgunGothic-40"/>
       <use x="30.46875" xlink:href="#MalgunGothic-50"/>
       <use x="85.546875" xlink:href="#MalgunGothic-48"/>
       <use x="140.625" xlink:href="#MalgunGothic-49"/>
       <use x="195.703125" xlink:href="#MalgunGothic-57"/>
       <use x="250.78125" xlink:href="#MalgunGothic-44"/>
       <use x="272.65625" xlink:href="#MalgunGothic-32"/>
       <use x="307.8125" xlink:href="#MalgunGothic-57"/>
       <use x="362.890625" xlink:href="#MalgunGothic-41"/>
      </g>
     </g>
    </g>
    <g id="xtick_4">
     <g id="line2d_4">
      <g>
       <use style="stroke:#000000;stroke-width:0.8;" x="668.25" xlink:href="#m4adad3154b" y="630"/>
      </g>
     </g>
     <g id="text_4">
      <!-- (2019, 10) -->
      <g transform="translate(645.828125 644.592188)scale(0.1 -0.1)">
       <use xlink:href="#MalgunGothic-40"/>
       <use x="30.46875" xlink:href="#MalgunGothic-50"/>
       <use x="85.546875" xlink:href="#MalgunGothic-48"/>
       <use x="140.625" xlink:href="#MalgunGothic-49"/>
       <use x="195.703125" xlink:href="#MalgunGothic-57"/>
       <use x="250.78125" xlink:href="#MalgunGothic-44"/>
       <use x="272.65625" xlink:href="#MalgunGothic-32"/>
       <use x="307.8125" xlink:href="#MalgunGothic-49"/>
       <use x="362.890625" xlink:href="#MalgunGothic-48"/>
       <use x="417.96875" xlink:href="#MalgunGothic-41"/>
      </g>
     </g>
    </g>
    <g id="xtick_5">
     <g id="line2d_5">
      <g>
       <use style="stroke:#000000;stroke-width:0.8;" x="807.75" xlink:href="#m4adad3154b" y="630"/>
      </g>
     </g>
     <g id="text_5">
      <!-- (2019, 11) -->
      <g transform="translate(785.328125 644.592188)scale(0.1 -0.1)">
       <use xlink:href="#MalgunGothic-40"/>
       <use x="30.46875" xlink:href="#MalgunGothic-50"/>
       <use x="85.546875" xlink:href="#MalgunGothic-48"/>
       <use x="140.625" xlink:href="#MalgunGothic-49"/>
       <use x="195.703125" xlink:href="#MalgunGothic-57"/>
       <use x="250.78125" xlink:href="#MalgunGothic-44"/>
       <use x="272.65625" xlink:href="#MalgunGothic-32"/>
       <use x="307.8125" xlink:href="#MalgunGothic-49"/>
       <use x="362.890625" xlink:href="#MalgunGothic-49"/>
       <use x="417.96875" xlink:href="#MalgunGothic-41"/>
      </g>
     </g>
    </g>
    <g id="xtick_6">
     <g id="line2d_6">
      <g>
       <use style="stroke:#000000;stroke-width:0.8;" x="947.25" xlink:href="#m4adad3154b" y="630"/>
      </g>
     </g>
     <g id="text_6">
      <!-- (2019, 12) -->
      <g transform="translate(924.828125 644.592188)scale(0.1 -0.1)">
       <use xlink:href="#MalgunGothic-40"/>
       <use x="30.46875" xlink:href="#MalgunGothic-50"/>
       <use x="85.546875" xlink:href="#MalgunGothic-48"/>
       <use x="140.625" xlink:href="#MalgunGothic-49"/>
       <use x="195.703125" xlink:href="#MalgunGothic-57"/>
       <use x="250.78125" xlink:href="#MalgunGothic-44"/>
       <use x="272.65625" xlink:href="#MalgunGothic-32"/>
       <use x="307.8125" xlink:href="#MalgunGothic-49"/>
       <use x="362.890625" xlink:href="#MalgunGothic-50"/>
       <use x="417.96875" xlink:href="#MalgunGothic-41"/>
      </g>
     </g>
    </g>
    <g id="xtick_7">
     <g id="line2d_7">
      <g>
       <use style="stroke:#000000;stroke-width:0.8;" x="1086.75" xlink:href="#m4adad3154b" y="630"/>
      </g>
     </g>
     <g id="text_7">
      <!-- (2020, 1) -->
      <g transform="translate(1067.082031 644.592188)scale(0.1 -0.1)">
       <use xlink:href="#MalgunGothic-40"/>
       <use x="30.46875" xlink:href="#MalgunGothic-50"/>
       <use x="85.546875" xlink:href="#MalgunGothic-48"/>
       <use x="140.625" xlink:href="#MalgunGothic-50"/>
       <use x="195.703125" xlink:href="#MalgunGothic-48"/>
       <use x="250.78125" xlink:href="#MalgunGothic-44"/>
       <use x="272.65625" xlink:href="#MalgunGothic-32"/>
       <use x="307.8125" xlink:href="#MalgunGothic-49"/>
       <use x="362.890625" xlink:href="#MalgunGothic-41"/>
      </g>
     </g>
    </g>
    <g id="xtick_8">
     <g id="line2d_8">
      <g>
       <use style="stroke:#000000;stroke-width:0.8;" x="1226.25" xlink:href="#m4adad3154b" y="630"/>
      </g>
     </g>
     <g id="text_8">
      <!-- (2020, 2) -->
      <g transform="translate(1206.582031 644.592188)scale(0.1 -0.1)">
       <use xlink:href="#MalgunGothic-40"/>
       <use x="30.46875" xlink:href="#MalgunGothic-50"/>
       <use x="85.546875" xlink:href="#MalgunGothic-48"/>
       <use x="140.625" xlink:href="#MalgunGothic-50"/>
       <use x="195.703125" xlink:href="#MalgunGothic-48"/>
       <use x="250.78125" xlink:href="#MalgunGothic-44"/>
       <use x="272.65625" xlink:href="#MalgunGothic-32"/>
       <use x="307.8125" xlink:href="#MalgunGothic-50"/>
       <use x="362.890625" xlink:href="#MalgunGothic-41"/>
      </g>
     </g>
    </g>
    <g id="text_9">
     <!-- 월별 -->
     <g transform="translate(708 673.732813)scale(0.3 -0.3)">
      <defs>
       <path d="M 77.875 29.5 
L 77.875 33.203125 
L 57.90625 33.203125 
L 57.90625 39.203125 
L 77.875 39.203125 
L 77.875 85.40625 
L 85.203125 85.40625 
L 85.203125 29.5 
z
M 40.484375 54.890625 
Q 29.59375 54.890625 23.296875 58.890625 
Q 17 62.890625 17 69.921875 
Q 17 76.953125 23.34375 80.921875 
Q 29.6875 84.90625 40.484375 84.90625 
Q 51.265625 84.90625 57.640625 80.953125 
Q 64.015625 77 64.015625 69.921875 
Q 64.015625 62.796875 57.6875 58.84375 
Q 51.375 54.890625 40.484375 54.890625 
z
M 40.484375 79 
Q 33.015625 79 28.65625 76.53125 
Q 24.3125 74.078125 24.3125 69.921875 
Q 24.3125 65.71875 28.6875 63.25 
Q 33.0625 60.796875 40.484375 60.796875 
Q 47.953125 60.796875 52.359375 63.234375 
Q 56.78125 65.671875 56.78125 69.921875 
Q 56.78125 74.078125 52.390625 76.53125 
Q 48 79 40.484375 79 
z
M 70.703125 44.828125 
Q 52.203125 43.609375 44.09375 43.5 
L 44.09375 29.890625 
L 36.921875 29.890625 
L 36.921875 43.21875 
L 10.203125 42.28125 
L 9.078125 48.78125 
Q 30.859375 48.78125 70.21875 50.875 
z
M 24.515625 -6.984375 
L 24.515625 12.59375 
L 78.078125 12.59375 
L 78.078125 19.1875 
L 24.515625 19.1875 
L 24.515625 25.59375 
L 85.296875 25.59375 
L 85.296875 6.5 
L 31.6875 6.5 
L 31.6875 -0.59375 
L 87.796875 -0.59375 
L 87.796875 -6.984375 
z
" id="MalgunGothic-50900"/>
       <path d="M 16.21875 40.28125 
L 16.21875 82.625 
L 23.390625 82.625 
L 23.390625 67.09375 
L 52.59375 67.09375 
L 52.59375 82.625 
L 59.8125 82.625 
L 59.8125 72.90625 
L 77.296875 72.90625 
L 77.296875 85.40625 
L 84.625 85.40625 
L 84.625 35.296875 
L 77.296875 35.296875 
L 77.296875 48.875 
L 59.8125 48.875 
L 59.8125 40.28125 
z
M 59.8125 66.609375 
L 59.8125 55.078125 
L 77.296875 55.078125 
L 77.296875 66.609375 
z
M 52.59375 60.6875 
L 23.390625 60.6875 
L 23.390625 46.78125 
L 52.59375 46.78125 
z
M 27 -7.625 
L 27 14.796875 
L 77.390625 14.796875 
L 77.390625 23.6875 
L 27 23.6875 
L 27 30.078125 
L 84.625 30.078125 
L 84.625 8.59375 
L 34.28125 8.59375 
L 34.28125 -1.125 
L 87.203125 -1.125 
L 87.203125 -7.625 
z
" id="MalgunGothic-48324"/>
      </defs>
      <use xlink:href="#MalgunGothic-50900"/>
      <use x="100" xlink:href="#MalgunGothic-48324"/>
     </g>
    </g>
   </g>
   <g id="matplotlib.axis_2">
    <g id="ytick_1">
     <g id="line2d_9">
      <defs>
       <path d="M 0 0 
L -3.5 0 
" id="mde110c3d37" style="stroke:#000000;stroke-width:0.8;"/>
      </defs>
      <g>
       <use style="stroke:#000000;stroke-width:0.8;" x="180" xlink:href="#mde110c3d37" y="630"/>
      </g>
     </g>
     <g id="text_10">
      <!-- 0 -->
      <g transform="translate(167.492188 633.796094)scale(0.1 -0.1)">
       <use xlink:href="#MalgunGothic-48"/>
      </g>
     </g>
    </g>
    <g id="ytick_2">
     <g id="line2d_10">
      <g>
       <use style="stroke:#000000;stroke-width:0.8;" x="180" xlink:href="#mde110c3d37" y="569.6"/>
      </g>
     </g>
     <g id="text_11">
      <!-- 20 -->
      <g transform="translate(161.984375 573.396094)scale(0.1 -0.1)">
       <use xlink:href="#MalgunGothic-50"/>
       <use x="55.078125" xlink:href="#MalgunGothic-48"/>
      </g>
     </g>
    </g>
    <g id="ytick_3">
     <g id="line2d_11">
      <g>
       <use style="stroke:#000000;stroke-width:0.8;" x="180" xlink:href="#mde110c3d37" y="509.2"/>
      </g>
     </g>
     <g id="text_12">
      <!-- 40 -->
      <g transform="translate(161.984375 512.996094)scale(0.1 -0.1)">
       <defs>
        <path d="M 42.234375 71.875 
L 42.234375 24.421875 
L 51.703125 24.421875 
L 51.703125 17.390625 
L 42.234375 17.390625 
L 42.234375 0 
L 34.578125 0 
L 34.578125 17.390625 
L 0.78125 17.390625 
L 0.78125 23.96875 
Q 11.375 35.890625 20.234375 48.578125 
Q 29.109375 61.28125 33.9375 71.875 
z
M 9.765625 24.421875 
L 34.578125 24.421875 
L 34.578125 59.859375 
Q 25.203125 43.5625 14.984375 30.953125 
z
" id="MalgunGothic-52"/>
       </defs>
       <use xlink:href="#MalgunGothic-52"/>
       <use x="55.078125" xlink:href="#MalgunGothic-48"/>
      </g>
     </g>
    </g>
    <g id="ytick_4">
     <g id="line2d_12">
      <g>
       <use style="stroke:#000000;stroke-width:0.8;" x="180" xlink:href="#mde110c3d37" y="448.8"/>
      </g>
     </g>
     <g id="text_13">
      <!-- 60 -->
      <g transform="translate(161.984375 452.596094)scale(0.1 -0.1)">
       <defs>
        <path d="M 46.578125 63.578125 
Q 40.921875 66.40625 34.8125 66.40625 
Q 24.859375 66.40625 19.1875 57.640625 
Q 13.53125 48.875 13.578125 34.578125 
L 13.8125 34.578125 
Q 18.796875 44.875 30.28125 44.875 
Q 39.796875 44.875 45.359375 38.71875 
Q 50.921875 32.5625 50.921875 22.65625 
Q 50.921875 12.453125 44.640625 5.609375 
Q 38.375 -1.21875 28.515625 -1.21875 
Q 17.4375 -1.21875 11.5 7.46875 
Q 5.5625 16.15625 5.5625 31.546875 
Q 5.5625 49.703125 13.234375 61.375 
Q 20.90625 73.046875 34.71875 73.046875 
Q 42.1875 73.046875 46.578125 71 
z
M 14.15625 23.53125 
Q 14.15625 15.96875 18.203125 10.671875 
Q 22.265625 5.375 28.8125 5.375 
Q 35.109375 5.375 39.03125 10.078125 
Q 42.96875 14.796875 42.96875 21.6875 
Q 42.96875 29.5 39.203125 33.859375 
Q 35.453125 38.234375 28.71875 38.234375 
Q 22.5625 38.234375 18.359375 33.953125 
Q 14.15625 29.6875 14.15625 23.53125 
z
" id="MalgunGothic-54"/>
       </defs>
       <use xlink:href="#MalgunGothic-54"/>
       <use x="55.078125" xlink:href="#MalgunGothic-48"/>
      </g>
     </g>
    </g>
    <g id="ytick_5">
     <g id="line2d_13">
      <g>
       <use style="stroke:#000000;stroke-width:0.8;" x="180" xlink:href="#mde110c3d37" y="388.4"/>
      </g>
     </g>
     <g id="text_14">
      <!-- 80 -->
      <g transform="translate(161.984375 392.196094)scale(0.1 -0.1)">
       <use xlink:href="#MalgunGothic-56"/>
       <use x="55.078125" xlink:href="#MalgunGothic-48"/>
      </g>
     </g>
    </g>
    <g id="ytick_6">
     <g id="line2d_14">
      <g>
       <use style="stroke:#000000;stroke-width:0.8;" x="180" xlink:href="#mde110c3d37" y="328"/>
      </g>
     </g>
     <g id="text_15">
      <!-- 100 -->
      <g transform="translate(156.476562 331.796094)scale(0.1 -0.1)">
       <use xlink:href="#MalgunGothic-49"/>
       <use x="55.078125" xlink:href="#MalgunGothic-48"/>
       <use x="110.15625" xlink:href="#MalgunGothic-48"/>
      </g>
     </g>
    </g>
    <g id="ytick_7">
     <g id="line2d_15">
      <g>
       <use style="stroke:#000000;stroke-width:0.8;" x="180" xlink:href="#mde110c3d37" y="267.6"/>
      </g>
     </g>
     <g id="text_16">
      <!-- 120 -->
      <g transform="translate(156.476562 271.396094)scale(0.1 -0.1)">
       <use xlink:href="#MalgunGothic-49"/>
       <use x="55.078125" xlink:href="#MalgunGothic-50"/>
       <use x="110.15625" xlink:href="#MalgunGothic-48"/>
      </g>
     </g>
    </g>
    <g id="ytick_8">
     <g id="line2d_16">
      <g>
       <use style="stroke:#000000;stroke-width:0.8;" x="180" xlink:href="#mde110c3d37" y="207.2"/>
      </g>
     </g>
     <g id="text_17">
      <!-- 140 -->
      <g transform="translate(156.476562 210.996094)scale(0.1 -0.1)">
       <use xlink:href="#MalgunGothic-49"/>
       <use x="55.078125" xlink:href="#MalgunGothic-52"/>
       <use x="110.15625" xlink:href="#MalgunGothic-48"/>
      </g>
     </g>
    </g>
    <g id="ytick_9">
     <g id="line2d_17">
      <g>
       <use style="stroke:#000000;stroke-width:0.8;" x="180" xlink:href="#mde110c3d37" y="146.8"/>
      </g>
     </g>
     <g id="text_18">
      <!-- 160 -->
      <g transform="translate(156.476562 150.596094)scale(0.1 -0.1)">
       <use xlink:href="#MalgunGothic-49"/>
       <use x="55.078125" xlink:href="#MalgunGothic-54"/>
       <use x="110.15625" xlink:href="#MalgunGothic-48"/>
      </g>
     </g>
    </g>
    <g id="ytick_10">
     <g id="line2d_18">
      <g>
       <use style="stroke:#000000;stroke-width:0.8;" x="180" xlink:href="#mde110c3d37" y="86.4"/>
      </g>
     </g>
     <g id="text_19">
      <!-- 180 -->
      <g transform="translate(156.476562 90.196094)scale(0.1 -0.1)">
       <use xlink:href="#MalgunGothic-49"/>
       <use x="55.078125" xlink:href="#MalgunGothic-56"/>
       <use x="110.15625" xlink:href="#MalgunGothic-48"/>
      </g>
     </g>
    </g>
    <g id="text_20">
     <!-- 월별 평균 주문건수 -->
     <g transform="translate(145.384375 488.746875)rotate(-90)scale(0.3 -0.3)">
      <defs>
       <path d="M 60.6875 46.78125 
L 60.6875 52.984375 
L 77.296875 52.984375 
L 77.296875 62.015625 
L 60.6875 62.015625 
L 60.6875 68.21875 
L 77.296875 68.21875 
L 77.296875 85.40625 
L 84.625 85.40625 
L 84.625 29.390625 
L 77.296875 29.390625 
L 77.296875 46.78125 
z
M 12.40625 74.21875 
L 12.40625 80.609375 
L 63.375 80.609375 
L 63.375 74.21875 
z
M 67.28125 35.109375 
Q 61.140625 33.890625 50.484375 33.890625 
L 10.109375 33.890625 
L 10.109375 40.28125 
L 22.90625 40.28125 
L 21.78125 69.921875 
L 28.90625 69.921875 
L 29.78125 40.28125 
L 45.3125 40.28125 
L 46.1875 69.921875 
L 53.328125 69.921875 
L 52.09375 40.375 
Q 60.890625 40.375 66.796875 41.40625 
z
M 55.421875 -8.40625 
Q 40.53125 -8.40625 32.515625 -3.546875 
Q 24.515625 1.3125 24.515625 9.28125 
Q 24.515625 17.1875 32.4375 22.046875 
Q 40.375 26.90625 55.421875 26.90625 
Q 70.40625 26.90625 78.390625 22.046875 
Q 86.375 17.1875 86.375 9.28125 
Q 86.375 1.3125 78.3125 -3.546875 
Q 70.265625 -8.40625 55.421875 -8.40625 
z
M 55.421875 20.703125 
Q 44.28125 20.703125 38.296875 17.625 
Q 32.328125 14.546875 32.328125 9.28125 
Q 32.328125 4.046875 38.328125 0.96875 
Q 44.34375 -2.09375 55.421875 -2.09375 
Q 66.5 -2.09375 72.609375 0.96875 
Q 78.71875 4.046875 78.71875 9.28125 
Q 78.71875 14.546875 72.625 17.625 
Q 66.546875 20.703125 55.421875 20.703125 
z
" id="MalgunGothic-54217"/>
       <path d="M 36.625 12.984375 
L 36.625 39.015625 
L 6.296875 39.015625 
L 6.296875 45.609375 
L 71.390625 45.609375 
Q 72.21875 53.71875 72.21875 74.8125 
L 20.90625 74.8125 
L 20.90625 81.296875 
L 79.5 81.296875 
Q 79.5 56.984375 78.515625 45.609375 
L 93.703125 45.609375 
L 93.703125 39.015625 
L 68.21875 39.015625 
L 68.21875 12.984375 
L 60.984375 12.984375 
L 60.984375 39.015625 
L 43.796875 39.015625 
L 43.796875 12.984375 
z
M 20.515625 -4.6875 
L 20.515625 25.59375 
L 27.6875 25.59375 
L 27.6875 1.8125 
L 81.390625 1.8125 
L 81.390625 -4.6875 
z
" id="MalgunGothic-44512"/>
       <path d="M 85.796875 46.390625 
Q 74.609375 47.953125 64.125 54.125 
Q 53.65625 60.296875 50 66.5 
Q 46.578125 60.453125 36.203125 54.046875 
Q 25.828125 47.65625 14.40625 45.796875 
L 9.90625 51.90625 
Q 22.859375 53.21875 33.625 60.046875 
Q 44.390625 66.890625 46.09375 75.390625 
L 16.015625 75.390625 
L 16.015625 81.890625 
L 83.984375 81.890625 
L 83.984375 75.390625 
L 53.8125 75.390625 
Q 55.46875 66.75 66.015625 60.15625 
Q 76.5625 53.5625 90.09375 52.296875 
z
M 53.71875 29.109375 
L 53.71875 -8.796875 
L 46.296875 -8.796875 
L 46.296875 29.109375 
L 6.296875 29.109375 
L 6.296875 35.59375 
L 93.703125 35.59375 
L 93.703125 29.109375 
z
" id="MalgunGothic-51452"/>
       <path d="M 21 48.390625 
L 21 81.984375 
L 79 81.984375 
L 79 48.390625 
z
M 71.78125 75.484375 
L 28.21875 75.484375 
L 28.21875 54.78125 
L 71.78125 54.78125 
z
M 47.015625 11.625 
L 47.015625 31 
L 6.296875 31 
L 6.296875 37.5 
L 93.703125 37.5 
L 93.703125 31 
L 54.203125 31 
L 54.203125 11.625 
z
M 20.125 -5.8125 
L 20.125 22.40625 
L 27.390625 22.40625 
L 27.390625 0.6875 
L 81.296875 0.6875 
L 81.296875 -5.8125 
z
" id="MalgunGothic-47928"/>
       <path d="M 77.296875 16.5 
L 77.296875 48.09375 
L 55.609375 48.09375 
L 55.609375 54.59375 
L 77.296875 54.59375 
L 77.296875 85.40625 
L 84.625 85.40625 
L 84.625 16.5 
z
M 56.5 79.390625 
Q 54.5 61.921875 43 48.4375 
Q 31.5 34.96875 13.375 27.09375 
L 8.5 33.015625 
Q 23.578125 38.421875 34.390625 49.09375 
Q 45.21875 59.765625 47.90625 72.90625 
L 14.703125 72.90625 
L 14.703125 79.390625 
z
M 26.90625 -5.078125 
L 26.90625 24.609375 
L 34.1875 24.609375 
L 34.1875 1.515625 
L 87.3125 1.515625 
L 87.3125 -5.078125 
z
" id="MalgunGothic-44148"/>
       <path d="M 85.796875 46.78125 
Q 74.21875 48.390625 63.71875 54.65625 
Q 53.21875 60.9375 50 66.796875 
Q 46.484375 60.796875 36.078125 54.546875 
Q 25.6875 48.296875 14.40625 46.1875 
L 9.90625 52.296875 
Q 24.359375 53.90625 35.328125 61.59375 
Q 46.296875 69.28125 46.296875 78.328125 
L 46.296875 82.421875 
L 53.609375 82.421875 
L 53.609375 78.328125 
Q 53.609375 69.234375 64.34375 61.6875 
Q 75.09375 54.15625 90.09375 52.78125 
z
M 53.609375 28.71875 
L 53.609375 -8.796875 
L 46.296875 -8.796875 
L 46.296875 28.71875 
L 6.296875 28.71875 
L 6.296875 35.203125 
L 93.703125 35.203125 
L 93.703125 28.71875 
z
" id="MalgunGothic-49688"/>
      </defs>
      <use xlink:href="#MalgunGothic-50900"/>
      <use x="100" xlink:href="#MalgunGothic-48324"/>
      <use x="200" xlink:href="#MalgunGothic-32"/>
      <use x="235.15625" xlink:href="#MalgunGothic-54217"/>
      <use x="335.15625" xlink:href="#MalgunGothic-44512"/>
      <use x="435.15625" xlink:href="#MalgunGothic-32"/>
      <use x="470.3125" xlink:href="#MalgunGothic-51452"/>
      <use x="570.3125" xlink:href="#MalgunGothic-47928"/>
      <use x="670.3125" xlink:href="#MalgunGothic-44148"/>
      <use x="770.3125" xlink:href="#MalgunGothic-49688"/>
     </g>
    </g>
   </g>
   <g id="patch_35">
    <path d="M 180 630 
L 180 86.4 
" style="fill:none;stroke:#000000;stroke-linecap:square;stroke-linejoin:miter;stroke-width:0.8;"/>
   </g>
   <g id="patch_36">
    <path d="M 1296 630 
L 1296 86.4 
" style="fill:none;stroke:#000000;stroke-linecap:square;stroke-linejoin:miter;stroke-width:0.8;"/>
   </g>
   <g id="patch_37">
    <path d="M 180 630 
L 1296 630 
" style="fill:none;stroke:#000000;stroke-linecap:square;stroke-linejoin:miter;stroke-width:0.8;"/>
   </g>
   <g id="patch_38">
    <path d="M 180 86.4 
L 1296 86.4 
" style="fill:none;stroke:#000000;stroke-linecap:square;stroke-linejoin:miter;stroke-width:0.8;"/>
   </g>
   <g id="legend_1">
    <g id="patch_39">
     <path d="M 194 222.05 
L 365.91875 222.05 
Q 369.91875 222.05 369.91875 218.05 
L 369.91875 100.4 
Q 369.91875 96.4 365.91875 96.4 
L 194 96.4 
Q 190 96.4 190 100.4 
L 190 218.05 
Q 190 222.05 194 222.05 
z
" style="fill:#ffffff;opacity:0.8;stroke:#cccccc;stroke-linejoin:miter;"/>
    </g>
    <g id="patch_40">
     <path d="M 198 119.584375 
L 238 119.584375 
L 238 105.584375 
L 198 105.584375 
z
" style="fill:#ffa500;"/>
    </g>
    <g id="text_21">
     <!-- 돈까스/일식 -->
     <g transform="translate(254 119.584375)scale(0.2 -0.2)">
      <defs>
       <path d="M 6.296875 29 
L 6.296875 35.5 
L 46.390625 35.5 
L 46.390625 48.6875 
L 21 48.6875 
L 21 81.984375 
L 79.390625 81.984375 
L 79.390625 75.390625 
L 28.328125 75.390625 
L 28.328125 55.21875 
L 80.515625 55.21875 
L 80.515625 48.6875 
L 53.71875 48.6875 
L 53.71875 35.5 
L 93.703125 35.5 
L 93.703125 29 
z
M 20.609375 -5.609375 
L 20.609375 21 
L 27.875 21 
L 27.875 0.875 
L 81.296875 0.875 
L 81.296875 -5.609375 
z
" id="MalgunGothic-46024"/>
       <path d="M 80.078125 40.625 
L 80.078125 -8.796875 
L 72.796875 -8.796875 
L 72.796875 85.40625 
L 80.078125 85.40625 
L 80.078125 47.125 
L 95.515625 47.125 
L 95.515625 40.625 
z
M 60.109375 73 
Q 60.109375 32.953125 39.40625 7.328125 
L 32.71875 10.59375 
Q 42.53125 21.390625 47.75 37.078125 
Q 52.984375 52.78125 52.984375 70.609375 
L 37.796875 70.609375 
L 37.796875 77.09375 
L 60.109375 77.09375 
z
M 33.984375 73.390625 
Q 33.984375 39.65625 12.203125 18.796875 
L 6 22.515625 
Q 15.828125 31.203125 21.359375 43.921875 
Q 26.90625 56.640625 26.90625 70.609375 
L 10.203125 70.609375 
L 10.203125 77.09375 
L 33.984375 77.09375 
z
" id="MalgunGothic-44620"/>
       <path d="M 49.90625 60.890625 
Q 46.390625 53.375 36.375 45.78125 
Q 26.375 38.1875 14.984375 35.109375 
L 10.015625 40.921875 
Q 26.609375 44.390625 36.390625 54.25 
Q 46.1875 64.109375 46.1875 72.796875 
L 46.1875 77.78125 
L 53.71875 77.78125 
L 53.71875 72.796875 
Q 53.71875 63.96875 63.640625 54.3125 
Q 73.578125 44.671875 89.984375 41.015625 
L 84.8125 35.203125 
Q 73.34375 38.765625 63.40625 46.1875 
Q 53.46875 53.609375 49.90625 60.890625 
z
M 93.703125 6.984375 
L 6.296875 6.984375 
L 6.296875 13.484375 
L 93.703125 13.484375 
z
" id="MalgunGothic-49828"/>
       <path d="M 40.375 71.875 
L 5.90625 -11.921875 
L -1.3125 -11.921875 
L 33.015625 71.875 
z
" id="MalgunGothic-47"/>
       <path d="M 77.296875 36.921875 
L 77.296875 85.40625 
L 84.71875 85.40625 
L 84.71875 36.921875 
z
M 37.796875 40.28125 
Q 27.15625 40.28125 20.53125 46.40625 
Q 13.921875 52.546875 13.921875 62.015625 
Q 13.921875 71.4375 20.53125 77.515625 
Q 27.15625 83.59375 37.796875 83.59375 
Q 48.390625 83.59375 55.046875 77.484375 
Q 61.71875 71.390625 61.71875 62.015625 
Q 61.71875 52.59375 55.03125 46.4375 
Q 48.34375 40.28125 37.796875 40.28125 
z
M 37.796875 77.296875 
Q 30.171875 77.296875 25.671875 73.125 
Q 21.1875 68.953125 21.1875 62.015625 
Q 21.1875 55.03125 25.671875 50.75 
Q 30.171875 46.484375 37.796875 46.484375 
Q 45.40625 46.484375 49.890625 50.75 
Q 54.390625 55.03125 54.390625 62.015625 
Q 54.390625 68.953125 49.890625 73.125 
Q 45.40625 77.296875 37.796875 77.296875 
z
M 26.609375 -6.59375 
L 26.609375 16.21875 
L 77.484375 16.21875 
L 77.484375 25.203125 
L 26.609375 25.203125 
L 26.609375 31.6875 
L 84.71875 31.6875 
L 84.71875 9.90625 
L 33.796875 9.90625 
L 33.796875 -0.09375 
L 87.3125 -0.09375 
L 87.3125 -6.59375 
z
" id="MalgunGothic-51068"/>
       <path d="M 76.3125 31.109375 
L 76.3125 85.40625 
L 83.59375 85.40625 
L 83.59375 31.109375 
z
M 57.078125 36.375 
Q 50.6875 39.84375 44.234375 46.09375 
Q 37.796875 52.34375 35.203125 57.8125 
Q 32.421875 51.609375 25.921875 44.65625 
Q 19.4375 37.703125 12.796875 33.984375 
L 7.625 39.015625 
Q 17.71875 43.84375 24.546875 53.015625 
Q 31.390625 62.203125 31.390625 72.3125 
L 31.390625 82.328125 
L 38.484375 82.328125 
L 38.484375 72.3125 
Q 38.484375 62.890625 45.5625 54.25 
Q 52.640625 45.609375 62.015625 41.703125 
z
M 76.3125 -8.796875 
L 76.3125 19.28125 
L 22.3125 19.28125 
L 22.3125 25.78125 
L 83.59375 25.78125 
L 83.59375 -8.796875 
z
" id="MalgunGothic-49885"/>
      </defs>
      <use xlink:href="#MalgunGothic-46024"/>
      <use x="100" xlink:href="#MalgunGothic-44620"/>
      <use x="200" xlink:href="#MalgunGothic-49828"/>
      <use x="300" xlink:href="#MalgunGothic-47"/>
      <use x="339.599609" xlink:href="#MalgunGothic-51068"/>
      <use x="439.599609" xlink:href="#MalgunGothic-49885"/>
     </g>
    </g>
    <g id="patch_41">
     <path d="M 198 149.496875 
L 238 149.496875 
L 238 135.496875 
L 198 135.496875 
z
" style="fill:#00ff00;"/>
    </g>
    <g id="text_22">
     <!-- 아시안/양식 -->
     <g transform="translate(254 149.496875)scale(0.2 -0.2)">
      <defs>
       <path d="M 79.59375 40.625 
L 79.59375 -8.796875 
L 72.3125 -8.796875 
L 72.3125 85.40625 
L 79.59375 85.40625 
L 79.59375 47.21875 
L 95.515625 47.21875 
L 95.515625 40.625 
z
M 34.28125 15.09375 
Q 23.578125 15.09375 16.984375 23.625 
Q 10.40625 32.171875 10.40625 47.125 
Q 10.40625 62.203125 16.921875 70.65625 
Q 23.4375 79.109375 34.28125 79.109375 
Q 45.171875 79.109375 51.6875 70.53125 
Q 58.203125 61.96875 58.203125 47.125 
Q 58.203125 32.234375 51.65625 23.65625 
Q 45.125 15.09375 34.28125 15.09375 
z
M 34.28125 72.609375 
Q 26.8125 72.609375 22.1875 65.75 
Q 17.578125 58.890625 17.578125 47.125 
Q 17.578125 35.546875 22.234375 28.5625 
Q 26.90625 21.578125 34.28125 21.578125 
Q 41.609375 21.578125 46.296875 28.609375 
Q 50.984375 35.640625 50.984375 47.125 
Q 50.984375 58.84375 46.390625 65.71875 
Q 41.796875 72.609375 34.28125 72.609375 
z
" id="MalgunGothic-50500"/>
       <path d="M 77.296875 -8.796875 
L 77.296875 85.40625 
L 84.625 85.40625 
L 84.625 -8.796875 
z
M 58.890625 15.09375 
Q 50.984375 21.140625 44.0625 30.296875 
Q 37.15625 39.453125 35.296875 46.09375 
Q 33.0625 38.484375 26.359375 29.25 
Q 19.671875 20.015625 11.8125 13.921875 
L 6.203125 18.796875 
Q 17.828125 26.609375 24.703125 38.734375 
Q 31.59375 50.875 31.59375 63.484375 
L 31.59375 78.90625 
L 38.8125 78.90625 
L 38.8125 63.8125 
Q 38.8125 51.609375 45.625 39.9375 
Q 52.4375 28.265625 64.015625 20.796875 
z
" id="MalgunGothic-49884"/>
       <path d="M 80.171875 48.578125 
L 80.171875 16.703125 
L 72.90625 16.703125 
L 72.90625 85.40625 
L 80.171875 85.40625 
L 80.171875 55.21875 
L 94.390625 55.21875 
L 94.390625 48.578125 
z
M 34.1875 34.1875 
Q 23.734375 34.1875 16.71875 40.796875 
Q 9.71875 47.40625 9.71875 57.90625 
Q 9.71875 68.453125 16.671875 74.96875 
Q 23.640625 81.5 34.1875 81.5 
Q 44.78125 81.5 51.6875 74.953125 
Q 58.59375 68.40625 58.59375 57.90625 
Q 58.59375 47.46875 51.625 40.828125 
Q 44.671875 34.1875 34.1875 34.1875 
z
M 34.1875 75.296875 
Q 26.46875 75.296875 21.625 70.5625 
Q 16.796875 65.828125 16.796875 57.90625 
Q 16.796875 50 21.609375 45.234375 
Q 26.421875 40.484375 34.1875 40.484375 
Q 41.9375 40.484375 46.765625 45.234375 
Q 51.609375 50 51.609375 57.90625 
Q 51.609375 65.828125 46.765625 70.5625 
Q 41.9375 75.296875 34.1875 75.296875 
z
M 21.578125 -5.609375 
L 21.578125 25.296875 
L 29 25.296875 
L 29 0.875 
L 83.109375 0.875 
L 83.109375 -5.609375 
z
" id="MalgunGothic-50504"/>
       <path d="M 80.078125 43.890625 
L 80.078125 31 
L 72.796875 31 
L 72.796875 85.40625 
L 80.078125 85.40625 
L 80.078125 71.390625 
L 94.28125 71.390625 
L 94.28125 64.984375 
L 80.078125 64.984375 
L 80.078125 50.296875 
L 94.28125 50.296875 
L 94.28125 43.890625 
z
M 33.59375 37.5 
Q 23.046875 37.5 16.375 43.921875 
Q 9.71875 50.34375 9.71875 60.109375 
Q 9.71875 69.828125 16.328125 76.21875 
Q 22.953125 82.625 33.59375 82.625 
Q 44.234375 82.625 50.921875 76.25 
Q 57.625 69.875 57.625 60.109375 
Q 57.625 50.25 50.90625 43.875 
Q 44.1875 37.5 33.59375 37.5 
z
M 33.59375 76.421875 
Q 26.171875 76.421875 21.578125 71.84375 
Q 17 67.28125 17 60.109375 
Q 17 52.828125 21.578125 48.265625 
Q 26.171875 43.703125 33.59375 43.703125 
Q 41.0625 43.703125 45.671875 48.28125 
Q 50.296875 52.875 50.296875 60.109375 
Q 50.296875 67.1875 45.671875 71.796875 
Q 41.0625 76.421875 33.59375 76.421875 
z
M 51.125 -7.71875 
Q 36.46875 -7.71875 28.625 -2.65625 
Q 20.796875 2.390625 20.796875 10.984375 
Q 20.796875 19.53125 28.609375 24.5625 
Q 36.421875 29.59375 51.125 29.59375 
Q 65.96875 29.59375 73.734375 24.5625 
Q 81.5 19.53125 81.5 10.984375 
Q 81.5 2.4375 73.703125 -2.640625 
Q 65.921875 -7.71875 51.125 -7.71875 
z
M 51.125 23.390625 
Q 40.140625 23.390625 34.375 20.046875 
Q 28.609375 16.703125 28.609375 10.984375 
Q 28.609375 5.21875 34.34375 1.84375 
Q 40.09375 -1.515625 51.125 -1.515625 
Q 62.203125 -1.515625 67.984375 1.875 
Q 73.78125 5.28125 73.78125 10.984375 
Q 73.78125 16.65625 67.96875 20.015625 
Q 62.15625 23.390625 51.125 23.390625 
z
" id="MalgunGothic-50577"/>
      </defs>
      <use xlink:href="#MalgunGothic-50500"/>
      <use x="100" xlink:href="#MalgunGothic-49884"/>
      <use x="200" xlink:href="#MalgunGothic-50504"/>
      <use x="300" xlink:href="#MalgunGothic-47"/>
      <use x="339.599609" xlink:href="#MalgunGothic-50577"/>
      <use x="439.599609" xlink:href="#MalgunGothic-49885"/>
     </g>
    </g>
    <g id="patch_42">
     <path d="M 198 179.409375 
L 238 179.409375 
L 238 165.409375 
L 198 165.409375 
z
" style="fill:#ffff00;"/>
    </g>
    <g id="text_23">
     <!-- 피자 -->
     <g transform="translate(254 179.409375)scale(0.2 -0.2)">
      <defs>
       <path d="M 78.515625 -8.796875 
L 78.515625 85.40625 
L 85.796875 85.40625 
L 85.796875 -8.796875 
z
M 10.5 70.796875 
L 10.5 77.203125 
L 67.484375 77.203125 
L 67.484375 70.796875 
z
M 72.21875 17.828125 
Q 65.046875 16.40625 56.984375 16.40625 
L 7.421875 16.40625 
L 7.421875 22.90625 
L 22.015625 22.90625 
L 21 63.921875 
L 28.328125 63.921875 
L 29.203125 22.90625 
L 48.78125 22.90625 
L 49.703125 63.921875 
L 56.890625 63.921875 
L 55.90625 22.90625 
Q 66.75 22.90625 71.484375 24.03125 
z
" id="MalgunGothic-54588"/>
       <path d="M 79.59375 40.625 
L 79.59375 -8.796875 
L 72.3125 -8.796875 
L 72.3125 85.40625 
L 79.59375 85.40625 
L 79.59375 47.125 
L 95.90625 47.125 
L 95.90625 40.625 
z
M 57.421875 14.203125 
Q 50.4375 19.53125 43.875 28.3125 
Q 37.3125 37.109375 35.109375 44.09375 
Q 33.203125 37.40625 26.75 28.265625 
Q 20.3125 19.140625 12.5 12.890625 
L 6.890625 17.71875 
Q 17.1875 24.515625 24.234375 36.9375 
Q 31.296875 49.359375 31.296875 60.796875 
L 31.296875 70.703125 
L 10.40625 70.703125 
L 10.40625 77.203125 
L 58.984375 77.203125 
L 58.984375 70.703125 
L 38.484375 70.703125 
L 38.484375 61.28125 
Q 38.484375 49.8125 45.5625 38.03125 
Q 52.640625 26.265625 62.5 19.671875 
z
" id="MalgunGothic-51088"/>
      </defs>
      <use xlink:href="#MalgunGothic-54588"/>
      <use x="100" xlink:href="#MalgunGothic-51088"/>
     </g>
    </g>
    <g id="patch_43">
     <path d="M 198 209.321875 
L 238 209.321875 
L 238 195.321875 
L 198 195.321875 
z
" style="fill:#87ceeb;"/>
    </g>
    <g id="text_24">
     <!-- 회 -->
     <g transform="translate(254 209.321875)scale(0.2 -0.2)">
      <defs>
       <path d="M 78.078125 -8.796875 
L 78.078125 85.40625 
L 85.40625 85.40625 
L 85.40625 -8.796875 
z
M 35.109375 85.203125 
L 42.390625 85.203125 
L 42.390625 72.90625 
L 66.796875 72.90625 
L 66.796875 66.40625 
L 10.5 66.40625 
L 10.5 72.90625 
L 35.109375 72.90625 
z
M 42.28125 27 
L 42.28125 13.484375 
L 59.96875 14.0625 
Q 67.828125 14.3125 70.796875 14.59375 
L 71.1875 8.296875 
Q 63.484375 7.671875 41.671875 7.171875 
Q 19.875 6.6875 8.015625 6.6875 
L 7.328125 13.09375 
Q 22.078125 13.09375 35.109375 13.375 
L 35.109375 27 
Q 25.4375 27.875 20.203125 32.53125 
Q 14.984375 37.203125 14.984375 44 
Q 14.984375 51.765625 21.375 56.5625 
Q 27.78125 61.375 38.8125 61.375 
Q 49.75 61.375 56.078125 56.59375 
Q 62.40625 51.8125 62.40625 44.578125 
Q 62.40625 37.5 57.125 32.6875 
Q 51.859375 27.875 42.28125 27 
z
M 38.8125 55.21875 
Q 31.296875 55.21875 26.84375 52.0625 
Q 22.40625 48.921875 22.40625 44 
Q 22.40625 39.15625 26.734375 36.125 
Q 31.0625 33.109375 38.8125 33.109375 
Q 46.53125 33.109375 50.796875 36.15625 
Q 55.078125 39.203125 55.078125 44 
Q 55.078125 48.875 50.703125 52.046875 
Q 46.34375 55.21875 38.8125 55.21875 
z
" id="MalgunGothic-54924"/>
      </defs>
      <use xlink:href="#MalgunGothic-54924"/>
     </g>
    </g>
   </g>
  </g>
  <g id="axes_2">
   <g id="matplotlib.axis_3">
    <g id="ytick_11">
     <g id="line2d_19">
      <defs>
       <path d="M 0 0 
L 3.5 0 
" id="m6de9e61a8c" style="stroke:#000000;stroke-width:0.8;"/>
      </defs>
      <g>
       <use style="stroke:#000000;stroke-width:0.8;" x="1296" xlink:href="#m6de9e61a8c" y="630"/>
      </g>
     </g>
     <g id="text_25">
      <!-- -10 -->
      <g transform="translate(1303 633.796094)scale(0.1 -0.1)">
       <defs>
        <path d="M 34.578125 25.53125 
L 7.234375 25.53125 
L 7.234375 31.734375 
L 34.578125 31.734375 
z
" id="MalgunGothic-45"/>
       </defs>
       <use xlink:href="#MalgunGothic-45"/>
       <use x="41.015625" xlink:href="#MalgunGothic-49"/>
       <use x="96.09375" xlink:href="#MalgunGothic-48"/>
      </g>
     </g>
    </g>
    <g id="ytick_12">
     <g id="line2d_20">
      <g>
       <use style="stroke:#000000;stroke-width:0.8;" x="1296" xlink:href="#m6de9e61a8c" y="562.05"/>
      </g>
     </g>
     <g id="text_26">
      <!-- -5 -->
      <g transform="translate(1303 565.846094)scale(0.1 -0.1)">
       <defs>
        <path d="M 48 21.921875 
Q 48 11.28125 41.1875 5.03125 
Q 34.375 -1.21875 22.953125 -1.21875 
Q 12.9375 -1.21875 8.0625 1.765625 
L 8.0625 10.15625 
Q 15.53125 5.375 23.046875 5.375 
Q 30.765625 5.375 35.46875 9.84375 
Q 40.1875 14.3125 40.1875 21.4375 
Q 40.1875 28.71875 35.390625 32.6875 
Q 30.609375 36.671875 21.578125 36.671875 
Q 15.53125 36.671875 9.421875 35.9375 
L 11.859375 71.875 
L 44.828125 71.875 
L 44.828125 64.796875 
L 18.84375 64.796875 
L 17.28125 43.171875 
Q 21.046875 43.5 24.171875 43.5 
Q 35.359375 43.5 41.671875 37.71875 
Q 48 31.9375 48 21.921875 
z
" id="MalgunGothic-53"/>
       </defs>
       <use xlink:href="#MalgunGothic-45"/>
       <use x="41.015625" xlink:href="#MalgunGothic-53"/>
      </g>
     </g>
    </g>
    <g id="ytick_13">
     <g id="line2d_21">
      <g>
       <use style="stroke:#000000;stroke-width:0.8;" x="1296" xlink:href="#m6de9e61a8c" y="494.1"/>
      </g>
     </g>
     <g id="text_27">
      <!-- 0 -->
      <g transform="translate(1303 497.896094)scale(0.1 -0.1)">
       <use xlink:href="#MalgunGothic-48"/>
      </g>
     </g>
    </g>
    <g id="ytick_14">
     <g id="line2d_22">
      <g>
       <use style="stroke:#000000;stroke-width:0.8;" x="1296" xlink:href="#m6de9e61a8c" y="426.15"/>
      </g>
     </g>
     <g id="text_28">
      <!-- 5 -->
      <g transform="translate(1303 429.946094)scale(0.1 -0.1)">
       <use xlink:href="#MalgunGothic-53"/>
      </g>
     </g>
    </g>
    <g id="ytick_15">
     <g id="line2d_23">
      <g>
       <use style="stroke:#000000;stroke-width:0.8;" x="1296" xlink:href="#m6de9e61a8c" y="358.2"/>
      </g>
     </g>
     <g id="text_29">
      <!-- 10 -->
      <g transform="translate(1303 361.996094)scale(0.1 -0.1)">
       <use xlink:href="#MalgunGothic-49"/>
       <use x="55.078125" xlink:href="#MalgunGothic-48"/>
      </g>
     </g>
    </g>
    <g id="ytick_16">
     <g id="line2d_24">
      <g>
       <use style="stroke:#000000;stroke-width:0.8;" x="1296" xlink:href="#m6de9e61a8c" y="290.25"/>
      </g>
     </g>
     <g id="text_30">
      <!-- 15 -->
      <g transform="translate(1303 294.046094)scale(0.1 -0.1)">
       <use xlink:href="#MalgunGothic-49"/>
       <use x="55.078125" xlink:href="#MalgunGothic-53"/>
      </g>
     </g>
    </g>
    <g id="ytick_17">
     <g id="line2d_25">
      <g>
       <use style="stroke:#000000;stroke-width:0.8;" x="1296" xlink:href="#m6de9e61a8c" y="222.3"/>
      </g>
     </g>
     <g id="text_31">
      <!-- 20 -->
      <g transform="translate(1303 226.096094)scale(0.1 -0.1)">
       <use xlink:href="#MalgunGothic-50"/>
       <use x="55.078125" xlink:href="#MalgunGothic-48"/>
      </g>
     </g>
    </g>
    <g id="ytick_18">
     <g id="line2d_26">
      <g>
       <use style="stroke:#000000;stroke-width:0.8;" x="1296" xlink:href="#m6de9e61a8c" y="154.35"/>
      </g>
     </g>
     <g id="text_32">
      <!-- 25 -->
      <g transform="translate(1303 158.146094)scale(0.1 -0.1)">
       <use xlink:href="#MalgunGothic-50"/>
       <use x="55.078125" xlink:href="#MalgunGothic-53"/>
      </g>
     </g>
    </g>
    <g id="ytick_19">
     <g id="line2d_27">
      <g>
       <use style="stroke:#000000;stroke-width:0.8;" x="1296" xlink:href="#m6de9e61a8c" y="86.4"/>
      </g>
     </g>
     <g id="text_33">
      <!-- 30 -->
      <g transform="translate(1303 90.196094)scale(0.1 -0.1)">
       <defs>
        <path d="M 6.5 11.234375 
Q 13.921875 5.375 23.09375 5.375 
Q 30.609375 5.375 35.21875 9.171875 
Q 39.84375 12.984375 39.84375 19.484375 
Q 39.84375 33.890625 19.578125 33.890625 
L 13.625 33.890625 
L 13.625 40.484375 
L 19.28125 40.484375 
Q 37.3125 40.484375 37.3125 53.953125 
Q 37.3125 66.40625 23.578125 66.40625 
Q 15.96875 66.40625 9.28125 61.1875 
L 9.28125 68.953125 
Q 16.109375 73.046875 25.53125 73.046875 
Q 34.125 73.046875 39.671875 68.3125 
Q 45.21875 63.578125 45.21875 55.953125 
Q 45.21875 41.84375 30.8125 37.640625 
L 30.8125 37.5 
Q 38.578125 36.8125 43.1875 32.078125 
Q 47.796875 27.34375 47.796875 20.3125 
Q 47.796875 10.5 40.6875 4.640625 
Q 33.59375 -1.21875 22.65625 -1.21875 
Q 12.59375 -1.21875 6.5 2.640625 
z
" id="MalgunGothic-51"/>
       </defs>
       <use xlink:href="#MalgunGothic-51"/>
       <use x="55.078125" xlink:href="#MalgunGothic-48"/>
      </g>
     </g>
    </g>
    <g id="text_34">
     <!-- 월별 평균기온 -->
     <g transform="translate(1344.89375 453.473437)rotate(-90)scale(0.3 -0.3)">
      <defs>
       <path d="M 76.3125 -8.796875 
L 76.3125 85.40625 
L 83.59375 85.40625 
L 83.59375 -8.796875 
z
M 57.421875 76.703125 
Q 57.078125 57.125 46.1875 40.796875 
Q 35.296875 24.46875 14.984375 13.1875 
L 9.421875 19.09375 
Q 24.359375 25.296875 35.828125 38.71875 
Q 47.3125 52.15625 49.609375 70.21875 
L 13.28125 70.21875 
L 13.28125 76.703125 
z
" id="MalgunGothic-44592"/>
       <path d="M 6.296875 29.109375 
L 6.296875 35.59375 
L 46.296875 35.59375 
L 46.296875 46.484375 
Q 33.59375 47.125 26.859375 52.078125 
Q 20.125 57.03125 20.125 64.703125 
Q 20.125 73.1875 27.984375 78.140625 
Q 35.84375 83.109375 50 83.109375 
Q 64.15625 83.109375 72.015625 78.140625 
Q 79.890625 73.1875 79.890625 64.703125 
Q 79.890625 57.03125 73.140625 52.078125 
Q 66.40625 47.125 53.71875 46.484375 
L 53.71875 35.59375 
L 93.703125 35.59375 
L 93.703125 29.109375 
z
M 50 76.90625 
Q 39.40625 76.90625 33.546875 73.65625 
Q 27.6875 70.40625 27.6875 64.703125 
Q 27.6875 59.078125 33.515625 55.828125 
Q 39.359375 52.59375 50 52.59375 
Q 60.640625 52.59375 66.46875 55.828125 
Q 72.3125 59.078125 72.3125 64.703125 
Q 72.3125 70.40625 66.453125 73.65625 
Q 60.59375 76.90625 50 76.90625 
z
M 20.609375 -5.609375 
L 20.609375 20.796875 
L 27.875 20.796875 
L 27.875 0.875 
L 81.296875 0.875 
L 81.296875 -5.609375 
z
" id="MalgunGothic-50728"/>
      </defs>
      <use xlink:href="#MalgunGothic-50900"/>
      <use x="100" xlink:href="#MalgunGothic-48324"/>
      <use x="200" xlink:href="#MalgunGothic-32"/>
      <use x="235.15625" xlink:href="#MalgunGothic-54217"/>
      <use x="335.15625" xlink:href="#MalgunGothic-44512"/>
      <use x="435.15625" xlink:href="#MalgunGothic-44592"/>
      <use x="535.15625" xlink:href="#MalgunGothic-50728"/>
     </g>
    </g>
   </g>
   <g id="line2d_28">
    <path clip-path="url(#p169c161951)" d="M 249.75 127.946571 
L 389.25 124.583516 
L 528.75 186.3771 
L 668.25 271.618548 
L 807.75 391.0878 
L 947.25 474.854806 
L 1086.75 472.00529 
L 1226.25 459.656379 
" style="fill:none;stroke:#ff0000;stroke-linecap:square;stroke-width:1.5;"/>
   </g>
   <g id="patch_44">
    <path d="M 180 630 
L 180 86.4 
" style="fill:none;stroke:#000000;stroke-linecap:square;stroke-linejoin:miter;stroke-width:0.8;"/>
   </g>
   <g id="patch_45">
    <path d="M 1296 630 
L 1296 86.4 
" style="fill:none;stroke:#000000;stroke-linecap:square;stroke-linejoin:miter;stroke-width:0.8;"/>
   </g>
   <g id="patch_46">
    <path d="M 180 630 
L 1296 630 
" style="fill:none;stroke:#000000;stroke-linecap:square;stroke-linejoin:miter;stroke-width:0.8;"/>
   </g>
   <g id="patch_47">
    <path d="M 180 86.4 
L 1296 86.4 
" style="fill:none;stroke:#000000;stroke-linecap:square;stroke-linejoin:miter;stroke-width:0.8;"/>
   </g>
   <g id="text_35">
    <!-- 기온에 따른 월별 평균 주문건수 비교 (코로나 이전 서울) -->
    <g transform="translate(229.5625 66.4)scale(0.4 -0.4)">
     <defs>
      <path d="M 79.390625 -8.796875 
L 79.390625 85.40625 
L 86.71875 85.40625 
L 86.71875 -8.796875 
z
M 51.21875 44.09375 
Q 50.6875 30.171875 45.359375 22.625 
Q 40.046875 15.09375 30.609375 15.09375 
Q 20.703125 15.09375 15.359375 23.359375 
Q 10.015625 31.640625 10.015625 47.125 
Q 10.015625 62.59375 15.40625 70.84375 
Q 20.796875 79.109375 30.609375 79.109375 
Q 39.984375 79.109375 45.28125 71.734375 
Q 50.59375 64.359375 51.125 50.59375 
L 62.5 50.59375 
L 62.5 83.5 
L 69.828125 83.5 
L 69.828125 -5.90625 
L 62.5 -5.90625 
L 62.5 44.09375 
z
M 30.609375 72.515625 
Q 24.03125 72.515625 20.5625 66.015625 
Q 17.09375 59.515625 17.09375 47.125 
Q 17.09375 34.71875 20.5625 28.203125 
Q 24.03125 21.6875 30.609375 21.6875 
Q 37.15625 21.6875 40.625 28.21875 
Q 44.09375 34.765625 44.09375 47.125 
Q 44.09375 59.46875 40.625 65.984375 
Q 37.15625 72.515625 30.609375 72.515625 
z
" id="MalgunGothic-50640"/>
      <path d="M 81.5 41.109375 
L 81.5 -8.796875 
L 74.21875 -8.796875 
L 74.21875 85.40625 
L 81.5 85.40625 
L 81.5 47.609375 
L 97.40625 47.609375 
L 97.40625 41.109375 
z
M 69.390625 18.21875 
Q 62.25 16.703125 41.21875 16.703125 
L 41.21875 77 
L 65.921875 77 
L 65.921875 70.609375 
L 48.390625 70.609375 
L 48.390625 23.1875 
Q 62.15625 23.1875 68.703125 24.515625 
z
M 37.015625 18.703125 
Q 28.609375 16.796875 10.5 16.796875 
L 10.5 77 
L 34.8125 77 
L 34.8125 70.609375 
L 17.671875 70.609375 
L 17.671875 23.296875 
Q 31 23.296875 35.984375 24.8125 
z
" id="MalgunGothic-46384"/>
      <path d="M 21 42.578125 
L 21 65.625 
L 71.6875 65.625 
L 71.6875 75.875 
L 21 75.875 
L 21 82.328125 
L 79 82.328125 
L 79 59.1875 
L 28.21875 59.1875 
L 28.21875 49.125 
L 81.203125 49.125 
L 81.203125 42.578125 
z
M 6.296875 26.515625 
L 6.296875 33.015625 
L 93.703125 33.015625 
L 93.703125 26.515625 
z
M 20.703125 -6.59375 
L 20.703125 19.828125 
L 27.984375 19.828125 
L 27.984375 0 
L 81.296875 0 
L 81.296875 -6.59375 
z
" id="MalgunGothic-47480"/>
      <path d="M 76.3125 -8.796875 
L 76.3125 85.40625 
L 83.59375 85.40625 
L 83.59375 -8.796875 
z
M 12.890625 16.890625 
L 12.890625 78.328125 
L 20.21875 78.328125 
L 20.21875 54.203125 
L 50.6875 54.203125 
L 50.6875 78.328125 
L 58.015625 78.328125 
L 58.015625 16.890625 
z
M 50.6875 47.703125 
L 20.21875 47.703125 
L 20.21875 23.390625 
L 50.6875 23.390625 
z
" id="MalgunGothic-48708"/>
      <path d="M 79.5 25.484375 
L 72.3125 26.3125 
Q 73.6875 40.328125 73.6875 56.203125 
L 73.6875 69.921875 
L 17.671875 69.921875 
L 17.671875 76.515625 
L 81.203125 76.515625 
L 81.203125 56.203125 
Q 81.203125 42.390625 79.5 25.484375 
z
M 6.296875 7.171875 
L 6.296875 13.8125 
L 28.90625 13.8125 
L 28.90625 45.796875 
L 36.078125 45.796875 
L 36.078125 13.8125 
L 52.78125 13.8125 
L 52.78125 45.796875 
L 60.015625 45.796875 
L 60.015625 13.8125 
L 93.703125 13.8125 
L 93.703125 7.171875 
z
" id="MalgunGothic-44368"/>
      <path d="M 78.21875 23.09375 
L 71.296875 23.875 
Q 72.75 36.625 72.90625 47.609375 
L 14.984375 43.703125 
L 13.484375 50.6875 
L 72.90625 53.71875 
L 73 70.015625 
L 17.921875 70.015625 
L 17.921875 76.421875 
L 80.328125 76.421875 
L 80.328125 54.390625 
Q 80.328125 37.109375 78.21875 23.09375 
z
M 6.296875 6.5 
L 6.296875 13.09375 
L 41.5 13.09375 
L 41.5 36.078125 
L 48.78125 36.078125 
L 48.78125 13.09375 
L 93.703125 13.09375 
L 93.703125 6.5 
z
" id="MalgunGothic-53076"/>
      <path d="M 19.484375 56.890625 
L 72.796875 56.890625 
L 72.796875 70.796875 
L 19.671875 70.796875 
L 19.671875 77.203125 
L 80.078125 77.203125 
L 80.078125 50.59375 
L 26.90625 50.59375 
L 26.90625 35.015625 
L 82.8125 35.015625 
L 82.8125 28.515625 
L 53.71875 28.515625 
L 53.71875 11.375 
L 93.703125 11.375 
L 93.703125 4.890625 
L 6.296875 4.890625 
L 6.296875 11.375 
L 46.390625 11.375 
L 46.390625 28.515625 
L 19.484375 28.515625 
z
" id="MalgunGothic-47196"/>
      <path d="M 79.59375 40.625 
L 79.59375 -8.796875 
L 72.3125 -8.796875 
L 72.3125 85.40625 
L 79.59375 85.40625 
L 79.59375 47.125 
L 95.90625 47.125 
L 95.90625 40.625 
z
M 64.40625 21.484375 
Q 59.625 20.3125 51.5625 19.984375 
Q 43.5 19.671875 13.1875 19.671875 
L 13.1875 77.59375 
L 20.515625 77.59375 
L 20.515625 26.21875 
L 38.375 26.125 
Q 47.90625 26.125 54 26.53125 
Q 60.109375 26.953125 63.375 27.59375 
z
" id="MalgunGothic-45208"/>
      <path d="M 77.296875 -8.796875 
L 77.296875 85.40625 
L 84.625 85.40625 
L 84.625 -8.796875 
z
M 35.6875 14.984375 
Q 24.953125 14.984375 18.328125 23.65625 
Q 11.71875 32.328125 11.71875 47.125 
Q 11.71875 62.109375 18.265625 70.65625 
Q 24.8125 79.203125 35.6875 79.203125 
Q 46.53125 79.203125 53.171875 70.65625 
Q 59.8125 62.109375 59.8125 47.125 
Q 59.8125 32.234375 53.140625 23.609375 
Q 46.484375 14.984375 35.6875 14.984375 
z
M 35.6875 72.703125 
Q 28.171875 72.703125 23.484375 65.6875 
Q 18.796875 58.6875 18.796875 47.125 
Q 18.796875 35.59375 23.53125 28.53125 
Q 28.265625 21.484375 35.6875 21.484375 
Q 43.0625 21.484375 47.828125 28.5625 
Q 52.59375 35.640625 52.59375 47.125 
Q 52.59375 58.734375 47.921875 65.71875 
Q 43.265625 72.703125 35.6875 72.703125 
z
" id="MalgunGothic-51060"/>
      <path d="M 76.21875 18.40625 
L 76.21875 55.078125 
L 54.203125 55.078125 
L 54.203125 61.625 
L 76.21875 61.625 
L 76.21875 85.40625 
L 83.5 85.40625 
L 83.5 18.40625 
z
M 57.421875 32.328125 
Q 50.4375 36.625 44.203125 43.375 
Q 37.984375 50.140625 35.40625 55.71875 
Q 32.671875 49.21875 25.96875 41.375 
Q 19.28125 33.546875 12.796875 29.890625 
L 7.515625 34.90625 
Q 17.578125 39.984375 24.578125 49.96875 
Q 31.59375 59.96875 31.59375 70.21875 
L 31.59375 73.6875 
L 10.6875 73.6875 
L 10.6875 80.328125 
L 59.1875 80.328125 
L 59.1875 73.6875 
L 38.71875 73.6875 
L 38.71875 70.21875 
Q 38.71875 60.84375 45.984375 51.34375 
Q 53.265625 41.84375 62.3125 37.59375 
z
M 25.484375 -5.71875 
L 25.484375 25.09375 
L 32.8125 25.09375 
L 32.8125 0.6875 
L 85.984375 0.6875 
L 85.984375 -5.71875 
z
" id="MalgunGothic-51204"/>
      <path d="M 77.296875 -8.796875 
L 77.296875 48 
L 55.328125 48 
L 55.328125 54.5 
L 77.296875 54.5 
L 77.296875 85.40625 
L 84.625 85.40625 
L 84.625 -8.796875 
z
M 58.984375 15.09375 
Q 51.078125 21.140625 44.15625 30.296875 
Q 37.25 39.453125 35.40625 46.09375 
Q 33.15625 38.484375 26.46875 29.25 
Q 19.78125 20.015625 11.921875 13.921875 
L 6.296875 18.796875 
Q 17.921875 26.609375 24.796875 38.734375 
Q 31.6875 50.875 31.6875 63.484375 
L 31.6875 78.90625 
L 38.921875 78.90625 
L 38.921875 63.8125 
Q 38.921875 51.609375 45.734375 39.9375 
Q 52.546875 28.265625 64.109375 20.796875 
z
" id="MalgunGothic-49436"/>
      <path d="M 50 51.8125 
Q 35.453125 51.8125 27.640625 56.328125 
Q 19.828125 60.84375 19.828125 68.40625 
Q 19.828125 75.921875 27.65625 80.46875 
Q 35.5 85.015625 50 85.015625 
Q 64.65625 85.015625 72.40625 80.546875 
Q 80.171875 76.078125 80.171875 68.40625 
Q 80.171875 60.796875 72.375 56.296875 
Q 64.59375 51.8125 50 51.8125 
z
M 50 79.203125 
Q 39.109375 79.203125 33.25 76.21875 
Q 27.390625 73.25 27.390625 68.40625 
Q 27.390625 63.484375 33.296875 60.5 
Q 39.203125 57.515625 50 57.515625 
Q 60.6875 57.515625 66.640625 60.546875 
Q 72.609375 63.578125 72.609375 68.40625 
Q 72.609375 73.140625 66.671875 76.171875 
Q 60.75 79.203125 50 79.203125 
z
M 20.40625 -7.8125 
L 20.40625 12.984375 
L 72.3125 12.984375 
L 72.3125 21.78125 
L 20.40625 21.78125 
L 20.40625 27.78125 
L 46.296875 27.78125 
L 46.296875 37.796875 
L 6.296875 37.796875 
L 6.296875 43.796875 
L 93.703125 43.796875 
L 93.703125 37.796875 
L 53.71875 37.796875 
L 53.71875 27.78125 
L 79.5 27.78125 
L 79.5 7.421875 
L 27.59375 7.421875 
L 27.59375 -1.8125 
L 81.984375 -1.8125 
L 81.984375 -7.8125 
z
" id="MalgunGothic-50872"/>
     </defs>
     <use xlink:href="#MalgunGothic-44592"/>
     <use x="100" xlink:href="#MalgunGothic-50728"/>
     <use x="200" xlink:href="#MalgunGothic-50640"/>
     <use x="300" xlink:href="#MalgunGothic-32"/>
     <use x="335.15625" xlink:href="#MalgunGothic-46384"/>
     <use x="435.15625" xlink:href="#MalgunGothic-47480"/>
     <use x="535.15625" xlink:href="#MalgunGothic-32"/>
     <use x="570.3125" xlink:href="#MalgunGothic-50900"/>
     <use x="670.3125" xlink:href="#MalgunGothic-48324"/>
     <use x="770.3125" xlink:href="#MalgunGothic-32"/>
     <use x="805.46875" xlink:href="#MalgunGothic-54217"/>
     <use x="905.46875" xlink:href="#MalgunGothic-44512"/>
     <use x="1005.46875" xlink:href="#MalgunGothic-32"/>
     <use x="1040.625" xlink:href="#MalgunGothic-51452"/>
     <use x="1140.625" xlink:href="#MalgunGothic-47928"/>
     <use x="1240.625" xlink:href="#MalgunGothic-44148"/>
     <use x="1340.625" xlink:href="#MalgunGothic-49688"/>
     <use x="1440.625" xlink:href="#MalgunGothic-32"/>
     <use x="1475.78125" xlink:href="#MalgunGothic-48708"/>
     <use x="1575.78125" xlink:href="#MalgunGothic-44368"/>
     <use x="1675.78125" xlink:href="#MalgunGothic-32"/>
     <use x="1710.9375" xlink:href="#MalgunGothic-40"/>
     <use x="1741.40625" xlink:href="#MalgunGothic-53076"/>
     <use x="1841.40625" xlink:href="#MalgunGothic-47196"/>
     <use x="1941.40625" xlink:href="#MalgunGothic-45208"/>
     <use x="2041.40625" xlink:href="#MalgunGothic-32"/>
     <use x="2076.5625" xlink:href="#MalgunGothic-51060"/>
     <use x="2176.5625" xlink:href="#MalgunGothic-51204"/>
     <use x="2276.5625" xlink:href="#MalgunGothic-32"/>
     <use x="2311.71875" xlink:href="#MalgunGothic-49436"/>
     <use x="2411.71875" xlink:href="#MalgunGothic-50872"/>
     <use x="2511.71875" xlink:href="#MalgunGothic-41"/>
    </g>
   </g>
   <g id="legend_2">
    <g id="patch_48">
     <path d="M 1130.390625 132.41875 
L 1282 132.41875 
Q 1286 132.41875 1286 128.41875 
L 1286 100.4 
Q 1286 96.4 1282 96.4 
L 1130.390625 96.4 
Q 1126.390625 96.4 1126.390625 100.4 
L 1126.390625 128.41875 
Q 1126.390625 132.41875 1130.390625 132.41875 
z
" style="fill:#ffffff;opacity:0.8;stroke:#cccccc;stroke-linejoin:miter;"/>
    </g>
    <g id="line2d_29">
     <path d="M 1134.390625 112.584375 
L 1174.390625 112.584375 
" style="fill:none;stroke:#ff0000;stroke-linecap:square;stroke-width:1.5;"/>
    </g>
    <g id="line2d_30"/>
    <g id="text_36">
     <!-- temp_avg -->
     <g transform="translate(1190.390625 119.584375)scale(0.2 -0.2)">
      <defs>
       <path d="M 31.734375 0.484375 
Q 28.8125 -1.125 24.265625 -1.125 
Q 11.03125 -1.125 11.03125 13.765625 
L 11.03125 44.625 
L 2.15625 44.625 
L 2.15625 51.3125 
L 11.03125 51.3125 
L 11.03125 63.921875 
L 18.75 66.40625 
L 18.75 51.3125 
L 31.734375 51.3125 
L 31.734375 44.625 
L 18.75 44.625 
L 18.75 15.1875 
Q 18.75 9.765625 20.546875 7.609375 
Q 22.359375 5.46875 26.421875 5.46875 
Q 29.5 5.46875 31.734375 7.171875 
z
" id="MalgunGothic-116"/>
       <path d="M 49.3125 23.734375 
L 12.9375 23.734375 
Q 13.1875 14.84375 17.703125 10.125 
Q 22.21875 5.421875 29.828125 5.421875 
Q 38.625 5.421875 45.84375 11.234375 
L 45.84375 3.8125 
Q 38.96875 -1.21875 28.03125 -1.21875 
Q 17.1875 -1.21875 11.0625 5.875 
Q 4.9375 12.984375 4.9375 25.53125 
Q 4.9375 37.203125 11.671875 44.84375 
Q 18.40625 52.484375 28.375 52.484375 
Q 38.328125 52.484375 43.8125 45.96875 
Q 49.3125 39.453125 49.3125 27.9375 
z
M 41.3125 30.5625 
Q 41.3125 37.75 37.859375 41.796875 
Q 34.421875 45.84375 28.265625 45.84375 
Q 22.46875 45.84375 18.265625 41.671875 
Q 14.0625 37.5 13.03125 30.5625 
z
" id="MalgunGothic-101"/>
       <path d="M 80.71875 0 
L 72.953125 0 
L 72.953125 29.4375 
Q 72.953125 38.484375 70.234375 42.21875 
Q 67.53125 45.953125 61.28125 45.953125 
Q 56 45.953125 52.21875 40.984375 
Q 48.4375 36.03125 48.4375 29.296875 
L 48.4375 0 
L 40.71875 0 
L 40.71875 30.515625 
Q 40.71875 45.953125 28.8125 45.953125 
Q 23.390625 45.953125 19.765625 41.28125 
Q 16.15625 36.625 16.15625 29.296875 
L 16.15625 0 
L 8.40625 0 
L 8.40625 51.3125 
L 16.15625 51.3125 
L 16.15625 43.171875 
L 16.359375 43.171875 
Q 21.734375 52.484375 32.234375 52.484375 
Q 37.203125 52.484375 41.1875 49.625 
Q 45.171875 46.78125 46.734375 41.796875 
Q 52.4375 52.484375 63.765625 52.484375 
Q 80.71875 52.484375 80.71875 31.59375 
z
" id="MalgunGothic-109"/>
       <path d="M 16.15625 7.515625 
L 16.15625 -23.640625 
L 8.40625 -23.640625 
L 8.40625 51.3125 
L 16.15625 51.3125 
L 16.15625 42.234375 
L 16.359375 42.234375 
Q 22.46875 52.484375 34.125 52.484375 
Q 43.890625 52.484375 49.546875 45.625 
Q 55.21875 38.765625 55.21875 27.15625 
Q 55.21875 14.15625 48.84375 6.46875 
Q 42.484375 -1.21875 31.78125 -1.21875 
Q 21.78125 -1.21875 16.359375 7.515625 
z
M 16.15625 20.796875 
Q 16.15625 14.40625 20.421875 9.890625 
Q 24.703125 5.375 31.109375 5.375 
Q 38.671875 5.375 42.984375 11.1875 
Q 47.3125 17 47.3125 27.390625 
Q 47.3125 35.9375 43.234375 40.9375 
Q 39.15625 45.953125 32.375 45.953125 
Q 25.296875 45.953125 20.71875 40.921875 
Q 16.15625 35.890625 16.15625 28.21875 
z
" id="MalgunGothic-112"/>
       <path d="M 42.578125 -14.890625 
L 0 -14.890625 
L 0 -8.890625 
L 42.578125 -8.890625 
z
" id="MalgunGothic-95"/>
       <path d="M 9.625 47.65625 
Q 17.140625 52.484375 26.90625 52.484375 
Q 44.78125 52.484375 44.78125 33.546875 
L 44.78125 0 
L 37.015625 0 
L 37.015625 8.0625 
L 36.71875 8.0625 
Q 31.390625 -1.21875 20.953125 -1.21875 
Q 13.421875 -1.21875 9 2.8125 
Q 4.59375 6.84375 4.59375 13.578125 
Q 4.59375 27.875 21.484375 30.21875 
L 36.96875 32.46875 
Q 36.96875 45.84375 26.3125 45.84375 
Q 16.9375 45.84375 9.625 39.453125 
z
M 24.421875 24.359375 
Q 18.40625 23.578125 15.515625 21.421875 
Q 12.640625 19.28125 12.640625 14.109375 
Q 12.640625 10.203125 15.40625 7.8125 
Q 18.171875 5.421875 22.65625 5.421875 
Q 28.859375 5.421875 32.90625 9.8125 
Q 36.96875 14.203125 36.96875 20.84375 
L 36.96875 26.03125 
z
" id="MalgunGothic-97"/>
       <path d="M 48.1875 51.3125 
L 27.640625 0 
L 20.21875 0 
L 0.734375 51.3125 
L 9.28125 51.3125 
L 22.515625 13.625 
Q 23.921875 9.515625 24.3125 6.640625 
L 24.5625 6.640625 
Q 25.046875 10.453125 26.125 13.484375 
L 40.046875 51.3125 
z
" id="MalgunGothic-118"/>
       <path d="M 51.765625 4.046875 
Q 51.765625 -24.171875 25.046875 -24.171875 
Q 15.671875 -24.171875 8.40625 -20.515625 
L 8.40625 -12.59375 
Q 17 -17.4375 25 -17.4375 
Q 44.09375 -17.4375 44.09375 3.03125 
L 44.09375 8.734375 
L 43.890625 8.734375 
Q 37.84375 -1.21875 26.171875 -1.21875 
Q 16.65625 -1.21875 10.796875 5.65625 
Q 4.9375 12.546875 4.9375 23.96875 
Q 4.9375 37.109375 11.28125 44.796875 
Q 17.625 52.484375 28.375 52.484375 
Q 38.8125 52.484375 43.890625 44.09375 
L 44.09375 44.09375 
L 44.09375 51.3125 
L 51.765625 51.3125 
z
M 44.09375 30.90625 
Q 44.09375 37.15625 39.796875 41.546875 
Q 35.5 45.953125 29.34375 45.953125 
Q 21.625 45.953125 17.203125 40.265625 
Q 12.796875 34.578125 12.796875 24.5625 
Q 12.796875 15.875 17.0625 10.625 
Q 21.34375 5.375 28.171875 5.375 
Q 35.109375 5.375 39.59375 10.40625 
Q 44.09375 15.4375 44.09375 23.09375 
z
" id="MalgunGothic-103"/>
      </defs>
      <use xlink:href="#MalgunGothic-116"/>
      <use x="33.597656" xlink:href="#MalgunGothic-101"/>
      <use x="87.113281" xlink:href="#MalgunGothic-109"/>
      <use x="175.101562" xlink:href="#MalgunGothic-112"/>
      <use x="235.160156" xlink:href="#MalgunGothic-95"/>
      <use x="277.738281" xlink:href="#MalgunGothic-97"/>
      <use x="329.740234" xlink:href="#MalgunGothic-118"/>
      <use x="377.845703" xlink:href="#MalgunGothic-103"/>
     </g>
    </g>
   </g>
  </g>
 </g>
 <defs>
  <clipPath id="p169c161951">
   <rect height="543.6" width="1116" x="180" y="86.4"/>
  </clipPath>
 </defs>
</svg>
