<?xml version="1.0" encoding="utf-8" standalone="no"?>
<!DOCTYPE svg PUBLIC "-//W3C//DTD SVG 1.1//EN"
  "http://www.w3.org/Graphics/SVG/1.1/DTD/svg11.dtd">
<!-- Created with matplotlib (https://matplotlib.org/) -->
<svg height="720pt" version="1.1" viewBox="0 0 1440 720" width="1440pt" xmlns="http://www.w3.org/2000/svg" xmlns:xlink="http://www.w3.org/1999/xlink">
 <metadata>
  <rdf:RDF xmlns:cc="http://creativecommons.org/ns#" xmlns:dc="http://purl.org/dc/elements/1.1/" xmlns:rdf="http://www.w3.org/1999/02/22-rdf-syntax-ns#">
   <cc:Work>
    <dc:type rdf:resource="http://purl.org/dc/dcmitype/StillImage"/>
    <dc:date>2020-11-17T09:16:04.104680</dc:date>
    <dc:format>image/svg+xml</dc:format>
    <dc:creator>
     <cc:Agent>
      <dc:title>Matplotlib v3.3.1, https://matplotlib.org/</dc:title>
     </cc:Agent>
    </dc:creator>
   </cc:Work>
  </rdf:RDF>
 </metadata>
 <defs>
  <style type="text/css">*{stroke-linecap:butt;stroke-linejoin:round;}</style>
 </defs>
 <g id="figure_1">
  <g id="patch_1">
   <path d="M 0 720 
L 1440 720 
L 1440 0 
L 0 0 
z
" style="fill:none;"/>
  </g>
  <g id="axes_1">
   <g id="patch_2">
    <path d="M 180 630 
L 1296 630 
L 1296 86.4 
L 180 86.4 
z
" style="fill:#ffffff;"/>
   </g>
   <g id="patch_3">
    <path clip-path="url(#p2a20f78ee4)" d="M 306.818182 630 
L 377.836364 630 
L 377.836364 311.504623 
L 306.818182 311.504623 
z
" style="fill:#ffff00;"/>
   </g>
   <g id="patch_4">
    <path clip-path="url(#p2a20f78ee4)" d="M 814.090909 630 
L 885.109091 630 
L 885.109091 279.177191 
L 814.090909 279.177191 
z
" style="fill:#ffff00;"/>
   </g>
   <g id="patch_5">
    <path clip-path="url(#p2a20f78ee4)" d="M 377.836364 630 
L 448.854545 630 
L 448.854545 515.974818 
L 377.836364 515.974818 
z
" style="fill:#00ff00;"/>
   </g>
   <g id="patch_6">
    <path clip-path="url(#p2a20f78ee4)" d="M 885.109091 630 
L 956.127273 630 
L 956.127273 496.883272 
L 885.109091 496.883272 
z
" style="fill:#00ff00;"/>
   </g>
   <g id="patch_7">
    <path clip-path="url(#p2a20f78ee4)" d="M 448.854545 630 
L 519.872727 630 
L 519.872727 166.416548 
L 448.854545 166.416548 
z
" style="fill:#ff7f50;"/>
   </g>
   <g id="patch_8">
    <path clip-path="url(#p2a20f78ee4)" d="M 956.127273 630 
L 1027.145455 630 
L 1027.145455 112.285714 
L 956.127273 112.285714 
z
" style="fill:#ff7f50;"/>
   </g>
   <g id="patch_9">
    <path clip-path="url(#p2a20f78ee4)" d="M 519.872727 630 
L 590.890909 630 
L 590.890909 391.358705 
L 519.872727 391.358705 
z
" style="fill:#0000ff;"/>
   </g>
   <g id="patch_10">
    <path clip-path="url(#p2a20f78ee4)" d="M 1027.145455 630 
L 1098.163636 630 
L 1098.163636 352.40664 
L 1027.145455 352.40664 
z
" style="fill:#0000ff;"/>
   </g>
   <g id="patch_11">
    <path clip-path="url(#p2a20f78ee4)" d="M 590.890909 630 
L 661.909091 630 
L 661.909091 478.330967 
L 590.890909 478.330967 
z
" style="fill:#800080;"/>
   </g>
   <g id="patch_12">
    <path clip-path="url(#p2a20f78ee4)" d="M 1098.163636 630 
L 1169.181818 630 
L 1169.181818 458.534065 
L 1098.163636 458.534065 
z
" style="fill:#800080;"/>
   </g>
   <g id="matplotlib.axis_1">
    <g id="xtick_1">
     <g id="line2d_1">
      <defs>
       <path d="M 0 0 
L 0 3.5 
" id="mb76608e4fc" style="stroke:#000000;stroke-width:0.8;"/>
      </defs>
      <g>
       <use style="stroke:#000000;stroke-width:0.8;" x="484.363636" xlink:href="#mb76608e4fc" y="630"/>
      </g>
     </g>
     <g id="text_1">
      <!-- 강수 없음 -->
      <g transform="translate(451.726918 648.388281)scale(0.15 -0.15)">
       <defs>
        <path d="M 80.078125 52.6875 
L 80.078125 31.390625 
L 72.796875 31.390625 
L 72.796875 85.40625 
L 80.078125 85.40625 
L 80.078125 59.515625 
L 94.28125 59.515625 
L 94.28125 52.6875 
z
M 54.890625 79.890625 
Q 53.078125 60.15625 39.859375 47.484375 
Q 26.65625 34.8125 12.40625 29.203125 
L 7.171875 35.109375 
Q 21.6875 39.703125 32.9375 50.390625 
Q 44.1875 61.078125 46.296875 73.390625 
L 12.984375 73.390625 
L 12.984375 79.890625 
z
M 50.984375 -7.078125 
Q 36.328125 -7.078125 28.21875 -2 
Q 20.125 3.078125 20.125 11.1875 
Q 20.125 19.234375 28.171875 24.3125 
Q 36.234375 29.390625 50.984375 29.390625 
Q 65.875 29.390625 73.921875 24.328125 
Q 81.984375 19.28125 81.984375 11.1875 
Q 81.984375 3.078125 73.84375 -2 
Q 65.71875 -7.078125 50.984375 -7.078125 
z
M 50.984375 23.09375 
Q 39.984375 23.09375 33.875 19.765625 
Q 27.78125 16.453125 27.78125 11.1875 
Q 27.78125 5.90625 33.78125 2.5625 
Q 39.796875 -0.78125 50.984375 -0.78125 
Q 62.203125 -0.78125 68.203125 2.5625 
Q 74.21875 5.90625 74.21875 11.1875 
Q 74.21875 16.453125 68.109375 19.765625 
Q 62.015625 23.09375 50.984375 23.09375 
z
" id="MalgunGothic-44053"/>
        <path d="M 85.796875 46.78125 
Q 74.21875 48.390625 63.71875 54.65625 
Q 53.21875 60.9375 50 66.796875 
Q 46.484375 60.796875 36.078125 54.546875 
Q 25.6875 48.296875 14.40625 46.1875 
L 9.90625 52.296875 
Q 24.359375 53.90625 35.328125 61.59375 
Q 46.296875 69.28125 46.296875 78.328125 
L 46.296875 82.421875 
L 53.609375 82.421875 
L 53.609375 78.328125 
Q 53.609375 69.234375 64.34375 61.6875 
Q 75.09375 54.15625 90.09375 52.78125 
z
M 53.609375 28.71875 
L 53.609375 -8.796875 
L 46.296875 -8.796875 
L 46.296875 28.71875 
L 6.296875 28.71875 
L 6.296875 35.203125 
L 93.703125 35.203125 
L 93.703125 28.71875 
z
" id="MalgunGothic-49688"/>
        <path id="MalgunGothic-32"/>
        <path d="M 60.890625 64.984375 
L 77.484375 64.984375 
L 77.484375 85.296875 
L 84.8125 85.296875 
L 84.8125 36.625 
L 77.484375 36.625 
L 77.484375 58.5 
L 60.890625 58.5 
Q 59.625 49.703125 52.984375 44.40625 
Q 46.34375 39.109375 37.109375 39.109375 
Q 26.765625 39.109375 19.96875 45.59375 
Q 13.1875 52.09375 13.1875 61.71875 
Q 13.1875 71.234375 19.890625 77.75 
Q 26.609375 84.28125 37.109375 84.28125 
Q 46.34375 84.28125 52.953125 78.984375 
Q 59.578125 73.6875 60.890625 64.984375 
z
M 37.109375 77.984375 
Q 29.734375 77.984375 25.125 73.390625 
Q 20.515625 68.796875 20.515625 61.71875 
Q 20.515625 54.5 25.078125 49.90625 
Q 29.640625 45.3125 37.109375 45.3125 
Q 44.625 45.3125 49.21875 49.953125 
Q 53.8125 54.59375 53.8125 61.71875 
Q 53.8125 68.703125 49.1875 73.34375 
Q 44.578125 77.984375 37.109375 77.984375 
z
M 89.703125 -8.296875 
Q 84.8125 -4.734375 80.421875 0.734375 
Q 76.03125 6.203125 74.8125 10.109375 
Q 73.046875 5.28125 68.421875 -0.109375 
Q 63.8125 -5.515625 59.28125 -8.296875 
L 54.78125 -2.875 
Q 62.40625 0.78125 66.9375 7.984375 
Q 71.484375 15.1875 71.484375 24.03125 
L 71.484375 31.203125 
L 78.078125 31.203125 
L 78.078125 24.03125 
Q 78.078125 15.4375 82.5625 8.109375 
Q 87.0625 0.78125 94.578125 -2.875 
z
M 20.796875 -6.890625 
L 20.796875 31 
L 27.6875 31 
L 27.6875 17.484375 
L 46.921875 17.484375 
L 46.921875 31 
L 53.71875 31 
L 53.71875 -6.890625 
z
M 46.921875 11.53125 
L 27.6875 11.53125 
L 27.6875 -0.875 
L 46.921875 -0.875 
z
" id="MalgunGothic-50630"/>
        <path d="M 50 48.484375 
Q 35.796875 48.484375 28.09375 53.53125 
Q 20.40625 58.59375 20.40625 66.703125 
Q 20.40625 74.8125 28.09375 79.859375 
Q 35.796875 84.90625 50 84.90625 
Q 64.203125 84.90625 71.890625 79.859375 
Q 79.59375 74.8125 79.59375 66.703125 
Q 79.59375 58.59375 71.890625 53.53125 
Q 64.203125 48.484375 50 48.484375 
z
M 50 78.71875 
Q 39.453125 78.71875 33.765625 75.484375 
Q 28.078125 72.265625 28.078125 66.703125 
Q 28.078125 61.140625 33.765625 57.90625 
Q 39.453125 54.6875 50 54.6875 
Q 60.546875 54.6875 66.234375 57.90625 
Q 71.921875 61.140625 71.921875 66.703125 
Q 71.921875 72.265625 66.234375 75.484375 
Q 60.546875 78.71875 50 78.71875 
z
M 6.296875 33.984375 
L 6.296875 40.484375 
L 93.703125 40.484375 
L 93.703125 33.984375 
z
M 20.703125 -6 
L 20.703125 25.390625 
L 79.296875 25.390625 
L 79.296875 -6 
z
M 72.015625 18.890625 
L 27.984375 18.890625 
L 27.984375 0.484375 
L 72.015625 0.484375 
z
" id="MalgunGothic-51020"/>
       </defs>
       <use xlink:href="#MalgunGothic-44053"/>
       <use x="100" xlink:href="#MalgunGothic-49688"/>
       <use x="200" xlink:href="#MalgunGothic-32"/>
       <use x="235.15625" xlink:href="#MalgunGothic-50630"/>
       <use x="335.15625" xlink:href="#MalgunGothic-51020"/>
      </g>
     </g>
    </g>
    <g id="xtick_2">
     <g id="line2d_2">
      <g>
       <use style="stroke:#000000;stroke-width:0.8;" x="991.636364" xlink:href="#mb76608e4fc" y="630"/>
      </g>
     </g>
     <g id="text_2">
      <!-- 강수 있음 -->
      <g transform="translate(958.999645 648.388281)scale(0.15 -0.15)">
       <defs>
        <path d="M 77.296875 33.40625 
L 77.296875 85.40625 
L 84.625 85.40625 
L 84.625 33.40625 
z
M 37.015625 37.5 
Q 26.515625 37.5 19.796875 43.890625 
Q 13.09375 50.296875 13.09375 60.109375 
Q 13.09375 69.875 19.75 76.25 
Q 26.421875 82.625 37.015625 82.625 
Q 47.609375 82.625 54.25 76.265625 
Q 60.890625 69.921875 60.890625 60.109375 
Q 60.890625 50.25 54.21875 43.875 
Q 47.5625 37.5 37.015625 37.5 
z
M 37.015625 76.421875 
Q 29.59375 76.421875 25 71.84375 
Q 20.40625 67.28125 20.40625 60.109375 
Q 20.40625 52.828125 25 48.265625 
Q 29.59375 43.703125 37.015625 43.703125 
Q 44.484375 43.703125 49.09375 48.28125 
Q 53.71875 52.875 53.71875 60.109375 
Q 53.71875 67.1875 49.09375 71.796875 
Q 44.484375 76.421875 37.015625 76.421875 
z
M 90.28125 -6.59375 
Q 85.359375 -4.046875 80.28125 1.25 
Q 75.203125 6.546875 73.1875 11.078125 
Q 71.1875 6.15625 66.234375 0.734375 
Q 61.28125 -4.6875 56 -7.625 
L 50.59375 -2.78125 
Q 59.03125 1.21875 64.25 8.640625 
Q 69.484375 16.0625 69.484375 24.703125 
L 69.484375 28.8125 
L 76.703125 28.8125 
L 76.703125 24.703125 
Q 76.703125 16.109375 82.09375 8.78125 
Q 87.5 1.46875 95.703125 -1.609375 
z
M 50.875 0 
Q 41.890625 5.609375 38.71875 12.203125 
Q 33.40625 0 21.09375 -7.421875 
L 15.484375 -2.78125 
Q 24.265625 1.609375 29.640625 9.03125 
Q 35.015625 16.453125 35.015625 24.703125 
L 35.015625 28.71875 
L 42.09375 28.71875 
L 42.09375 24.703125 
Q 42.09375 17.578125 46.140625 12.203125 
Q 50.203125 6.84375 56.203125 4.78125 
z
" id="MalgunGothic-51080"/>
       </defs>
       <use xlink:href="#MalgunGothic-44053"/>
       <use x="100" xlink:href="#MalgunGothic-49688"/>
       <use x="200" xlink:href="#MalgunGothic-32"/>
       <use x="235.15625" xlink:href="#MalgunGothic-51080"/>
       <use x="335.15625" xlink:href="#MalgunGothic-51020"/>
      </g>
     </g>
    </g>
    <g id="text_3">
     <!-- 강수 여부 -->
     <g transform="translate(694.484375 671.11875)scale(0.2 -0.2)">
      <defs>
       <path d="M 56.296875 27.984375 
Q 49.859375 15.09375 36.1875 15.09375 
Q 25.484375 15.09375 18.9375 23.6875 
Q 12.40625 32.28125 12.40625 47.125 
Q 12.40625 62.109375 18.875 70.609375 
Q 25.34375 79.109375 36.1875 79.109375 
Q 49.90625 79.109375 56.296875 66.3125 
L 76.421875 66.3125 
L 76.421875 85.40625 
L 83.6875 85.40625 
L 83.6875 -8.796875 
L 76.421875 -8.796875 
L 76.421875 27.984375 
z
M 36.1875 72.609375 
Q 28.71875 72.609375 24.09375 65.671875 
Q 19.484375 58.734375 19.484375 47.125 
Q 19.484375 35.546875 24.140625 28.5625 
Q 28.8125 21.578125 36.1875 21.578125 
Q 43.5 21.578125 48.1875 28.609375 
Q 52.875 35.640625 52.875 47.125 
Q 52.875 58.84375 48.28125 65.71875 
Q 43.703125 72.609375 36.1875 72.609375 
z
M 58.59375 34.421875 
L 76.421875 34.421875 
L 76.421875 59.8125 
L 58.59375 59.8125 
Q 60.109375 54.34375 60.109375 47.125 
Q 60.109375 39.796875 58.59375 34.421875 
z
" id="MalgunGothic-50668"/>
       <path d="M 20.40625 44.09375 
L 20.40625 82.625 
L 27.59375 82.625 
L 27.59375 69.1875 
L 72.40625 69.1875 
L 72.40625 82.625 
L 79.59375 82.625 
L 79.59375 44.09375 
z
M 72.40625 62.796875 
L 27.59375 62.796875 
L 27.59375 50.484375 
L 72.40625 50.484375 
z
M 53.609375 25.296875 
L 53.609375 -8.796875 
L 46.296875 -8.796875 
L 46.296875 25.296875 
L 6.296875 25.296875 
L 6.296875 31.890625 
L 93.703125 31.890625 
L 93.703125 25.296875 
z
" id="MalgunGothic-48512"/>
      </defs>
      <use xlink:href="#MalgunGothic-44053"/>
      <use x="100" xlink:href="#MalgunGothic-49688"/>
      <use x="200" xlink:href="#MalgunGothic-32"/>
      <use x="235.15625" xlink:href="#MalgunGothic-50668"/>
      <use x="335.15625" xlink:href="#MalgunGothic-48512"/>
     </g>
    </g>
   </g>
   <g id="matplotlib.axis_2">
    <g id="ytick_1">
     <g id="line2d_3">
      <defs>
       <path d="M 0 0 
L -3.5 0 
" id="md755fffe61" style="stroke:#000000;stroke-width:0.8;"/>
      </defs>
      <g>
       <use style="stroke:#000000;stroke-width:0.8;" x="180" xlink:href="#md755fffe61" y="630"/>
      </g>
     </g>
     <g id="text_4">
      <!-- 0 -->
      <g transform="translate(164.738281 635.694141)scale(0.15 -0.15)">
       <defs>
        <path d="M 4.34375 34.46875 
Q 4.34375 53.515625 10.546875 63.28125 
Q 16.75 73.046875 28.421875 73.046875 
Q 50.828125 73.046875 50.828125 36.234375 
Q 50.828125 18.0625 44.59375 8.421875 
Q 38.375 -1.21875 26.8125 -1.21875 
Q 15.875 -1.21875 10.109375 8.125 
Q 4.34375 17.484375 4.34375 34.46875 
z
M 12.25 34.859375 
Q 12.25 5.375 27.640625 5.375 
Q 42.921875 5.375 42.921875 35.296875 
Q 42.921875 66.40625 28.03125 66.40625 
Q 12.25 66.40625 12.25 34.859375 
z
" id="MalgunGothic-48"/>
       </defs>
       <use xlink:href="#MalgunGothic-48"/>
      </g>
     </g>
    </g>
    <g id="ytick_2">
     <g id="line2d_4">
      <g>
       <use style="stroke:#000000;stroke-width:0.8;" x="180" xlink:href="#md755fffe61" y="557.571081"/>
      </g>
     </g>
     <g id="text_5">
      <!-- 25 -->
      <g transform="translate(156.476562 563.265222)scale(0.15 -0.15)">
       <defs>
        <path d="M 39.359375 52.6875 
Q 39.359375 59.125 35.546875 62.78125 
Q 31.734375 66.453125 25.4375 66.453125 
Q 20.953125 66.453125 16.453125 64.125 
Q 11.96875 61.8125 8.34375 57.765625 
L 8.34375 66.15625 
Q 15.328125 73.046875 26.421875 73.046875 
Q 35.640625 73.046875 41.28125 67.71875 
Q 46.921875 62.40625 46.921875 53.375 
Q 46.921875 45.609375 43.3125 39.765625 
Q 39.703125 33.9375 31 27.734375 
Q 22.796875 21.96875 19.59375 18.984375 
Q 16.40625 16.015625 15.109375 13.34375 
Q 13.8125 10.6875 13.8125 7.03125 
L 48.6875 7.03125 
L 48.6875 0 
L 5.5625 0 
L 5.5625 3.515625 
Q 5.5625 9.421875 7.203125 13.59375 
Q 8.84375 17.78125 12.671875 21.75 
Q 16.5 25.734375 24.953125 31.59375 
Q 32.671875 36.921875 36.015625 41.71875 
Q 39.359375 46.53125 39.359375 52.6875 
z
" id="MalgunGothic-50"/>
        <path d="M 48 21.921875 
Q 48 11.28125 41.1875 5.03125 
Q 34.375 -1.21875 22.953125 -1.21875 
Q 12.9375 -1.21875 8.0625 1.765625 
L 8.0625 10.15625 
Q 15.53125 5.375 23.046875 5.375 
Q 30.765625 5.375 35.46875 9.84375 
Q 40.1875 14.3125 40.1875 21.4375 
Q 40.1875 28.71875 35.390625 32.6875 
Q 30.609375 36.671875 21.578125 36.671875 
Q 15.53125 36.671875 9.421875 35.9375 
L 11.859375 71.875 
L 44.828125 71.875 
L 44.828125 64.796875 
L 18.84375 64.796875 
L 17.28125 43.171875 
Q 21.046875 43.5 24.171875 43.5 
Q 35.359375 43.5 41.671875 37.71875 
Q 48 31.9375 48 21.921875 
z
" id="MalgunGothic-53"/>
       </defs>
       <use xlink:href="#MalgunGothic-50"/>
       <use x="55.078125" xlink:href="#MalgunGothic-53"/>
      </g>
     </g>
    </g>
    <g id="ytick_3">
     <g id="line2d_5">
      <g>
       <use style="stroke:#000000;stroke-width:0.8;" x="180" xlink:href="#md755fffe61" y="485.142163"/>
      </g>
     </g>
     <g id="text_6">
      <!-- 50 -->
      <g transform="translate(156.476562 490.836304)scale(0.15 -0.15)">
       <use xlink:href="#MalgunGothic-53"/>
       <use x="55.078125" xlink:href="#MalgunGothic-48"/>
      </g>
     </g>
    </g>
    <g id="ytick_4">
     <g id="line2d_6">
      <g>
       <use style="stroke:#000000;stroke-width:0.8;" x="180" xlink:href="#md755fffe61" y="412.713244"/>
      </g>
     </g>
     <g id="text_7">
      <!-- 75 -->
      <g transform="translate(156.476562 418.407385)scale(0.15 -0.15)">
       <defs>
        <path d="M 50.203125 67.140625 
Q 38.71875 46.96875 32.25 29.96875 
Q 25.78125 12.984375 24.21875 0 
L 15.765625 0 
Q 16.9375 8.296875 20.15625 18.375 
Q 23.390625 28.46875 28.359375 39.640625 
Q 33.34375 50.828125 41.109375 64.796875 
L 4.546875 64.796875 
L 4.546875 71.875 
L 50.203125 71.875 
z
" id="MalgunGothic-55"/>
       </defs>
       <use xlink:href="#MalgunGothic-55"/>
       <use x="55.078125" xlink:href="#MalgunGothic-53"/>
      </g>
     </g>
    </g>
    <g id="ytick_5">
     <g id="line2d_7">
      <g>
       <use style="stroke:#000000;stroke-width:0.8;" x="180" xlink:href="#md755fffe61" y="340.284326"/>
      </g>
     </g>
     <g id="text_8">
      <!-- 100 -->
      <g transform="translate(148.214844 345.978466)scale(0.15 -0.15)">
       <defs>
        <path d="M 34.859375 0 
L 27.09375 0 
L 27.09375 62.0625 
Q 24.859375 59.8125 19.78125 57.203125 
Q 14.703125 54.59375 10.5 53.5625 
L 10.5 61.859375 
Q 15.875 63.375 22.015625 66.796875 
Q 28.171875 70.21875 31.734375 73.4375 
L 34.859375 73.4375 
z
" id="MalgunGothic-49"/>
       </defs>
       <use xlink:href="#MalgunGothic-49"/>
       <use x="55.078125" xlink:href="#MalgunGothic-48"/>
       <use x="110.15625" xlink:href="#MalgunGothic-48"/>
      </g>
     </g>
    </g>
    <g id="ytick_6">
     <g id="line2d_8">
      <g>
       <use style="stroke:#000000;stroke-width:0.8;" x="180" xlink:href="#md755fffe61" y="267.855407"/>
      </g>
     </g>
     <g id="text_9">
      <!-- 125 -->
      <g transform="translate(148.214844 273.549548)scale(0.15 -0.15)">
       <use xlink:href="#MalgunGothic-49"/>
       <use x="55.078125" xlink:href="#MalgunGothic-50"/>
       <use x="110.15625" xlink:href="#MalgunGothic-53"/>
      </g>
     </g>
    </g>
    <g id="ytick_7">
     <g id="line2d_9">
      <g>
       <use style="stroke:#000000;stroke-width:0.8;" x="180" xlink:href="#md755fffe61" y="195.426489"/>
      </g>
     </g>
     <g id="text_10">
      <!-- 150 -->
      <g transform="translate(148.214844 201.120629)scale(0.15 -0.15)">
       <use xlink:href="#MalgunGothic-49"/>
       <use x="55.078125" xlink:href="#MalgunGothic-53"/>
       <use x="110.15625" xlink:href="#MalgunGothic-48"/>
      </g>
     </g>
    </g>
    <g id="ytick_8">
     <g id="line2d_10">
      <g>
       <use style="stroke:#000000;stroke-width:0.8;" x="180" xlink:href="#md755fffe61" y="122.99757"/>
      </g>
     </g>
     <g id="text_11">
      <!-- 175 -->
      <g transform="translate(148.214844 128.691711)scale(0.15 -0.15)">
       <use xlink:href="#MalgunGothic-49"/>
       <use x="55.078125" xlink:href="#MalgunGothic-55"/>
       <use x="110.15625" xlink:href="#MalgunGothic-53"/>
      </g>
     </g>
    </g>
    <g id="text_12">
     <!-- 일별 평균 주문건수 -->
     <g transform="translate(139.486719 445.23125)rotate(-90)scale(0.2 -0.2)">
      <defs>
       <path d="M 77.296875 36.921875 
L 77.296875 85.40625 
L 84.71875 85.40625 
L 84.71875 36.921875 
z
M 37.796875 40.28125 
Q 27.15625 40.28125 20.53125 46.40625 
Q 13.921875 52.546875 13.921875 62.015625 
Q 13.921875 71.4375 20.53125 77.515625 
Q 27.15625 83.59375 37.796875 83.59375 
Q 48.390625 83.59375 55.046875 77.484375 
Q 61.71875 71.390625 61.71875 62.015625 
Q 61.71875 52.59375 55.03125 46.4375 
Q 48.34375 40.28125 37.796875 40.28125 
z
M 37.796875 77.296875 
Q 30.171875 77.296875 25.671875 73.125 
Q 21.1875 68.953125 21.1875 62.015625 
Q 21.1875 55.03125 25.671875 50.75 
Q 30.171875 46.484375 37.796875 46.484375 
Q 45.40625 46.484375 49.890625 50.75 
Q 54.390625 55.03125 54.390625 62.015625 
Q 54.390625 68.953125 49.890625 73.125 
Q 45.40625 77.296875 37.796875 77.296875 
z
M 26.609375 -6.59375 
L 26.609375 16.21875 
L 77.484375 16.21875 
L 77.484375 25.203125 
L 26.609375 25.203125 
L 26.609375 31.6875 
L 84.71875 31.6875 
L 84.71875 9.90625 
L 33.796875 9.90625 
L 33.796875 -0.09375 
L 87.3125 -0.09375 
L 87.3125 -6.59375 
z
" id="MalgunGothic-51068"/>
       <path d="M 16.21875 40.28125 
L 16.21875 82.625 
L 23.390625 82.625 
L 23.390625 67.09375 
L 52.59375 67.09375 
L 52.59375 82.625 
L 59.8125 82.625 
L 59.8125 72.90625 
L 77.296875 72.90625 
L 77.296875 85.40625 
L 84.625 85.40625 
L 84.625 35.296875 
L 77.296875 35.296875 
L 77.296875 48.875 
L 59.8125 48.875 
L 59.8125 40.28125 
z
M 59.8125 66.609375 
L 59.8125 55.078125 
L 77.296875 55.078125 
L 77.296875 66.609375 
z
M 52.59375 60.6875 
L 23.390625 60.6875 
L 23.390625 46.78125 
L 52.59375 46.78125 
z
M 27 -7.625 
L 27 14.796875 
L 77.390625 14.796875 
L 77.390625 23.6875 
L 27 23.6875 
L 27 30.078125 
L 84.625 30.078125 
L 84.625 8.59375 
L 34.28125 8.59375 
L 34.28125 -1.125 
L 87.203125 -1.125 
L 87.203125 -7.625 
z
" id="MalgunGothic-48324"/>
       <path d="M 60.6875 46.78125 
L 60.6875 52.984375 
L 77.296875 52.984375 
L 77.296875 62.015625 
L 60.6875 62.015625 
L 60.6875 68.21875 
L 77.296875 68.21875 
L 77.296875 85.40625 
L 84.625 85.40625 
L 84.625 29.390625 
L 77.296875 29.390625 
L 77.296875 46.78125 
z
M 12.40625 74.21875 
L 12.40625 80.609375 
L 63.375 80.609375 
L 63.375 74.21875 
z
M 67.28125 35.109375 
Q 61.140625 33.890625 50.484375 33.890625 
L 10.109375 33.890625 
L 10.109375 40.28125 
L 22.90625 40.28125 
L 21.78125 69.921875 
L 28.90625 69.921875 
L 29.78125 40.28125 
L 45.3125 40.28125 
L 46.1875 69.921875 
L 53.328125 69.921875 
L 52.09375 40.375 
Q 60.890625 40.375 66.796875 41.40625 
z
M 55.421875 -8.40625 
Q 40.53125 -8.40625 32.515625 -3.546875 
Q 24.515625 1.3125 24.515625 9.28125 
Q 24.515625 17.1875 32.4375 22.046875 
Q 40.375 26.90625 55.421875 26.90625 
Q 70.40625 26.90625 78.390625 22.046875 
Q 86.375 17.1875 86.375 9.28125 
Q 86.375 1.3125 78.3125 -3.546875 
Q 70.265625 -8.40625 55.421875 -8.40625 
z
M 55.421875 20.703125 
Q 44.28125 20.703125 38.296875 17.625 
Q 32.328125 14.546875 32.328125 9.28125 
Q 32.328125 4.046875 38.328125 0.96875 
Q 44.34375 -2.09375 55.421875 -2.09375 
Q 66.5 -2.09375 72.609375 0.96875 
Q 78.71875 4.046875 78.71875 9.28125 
Q 78.71875 14.546875 72.625 17.625 
Q 66.546875 20.703125 55.421875 20.703125 
z
" id="MalgunGothic-54217"/>
       <path d="M 36.625 12.984375 
L 36.625 39.015625 
L 6.296875 39.015625 
L 6.296875 45.609375 
L 71.390625 45.609375 
Q 72.21875 53.71875 72.21875 74.8125 
L 20.90625 74.8125 
L 20.90625 81.296875 
L 79.5 81.296875 
Q 79.5 56.984375 78.515625 45.609375 
L 93.703125 45.609375 
L 93.703125 39.015625 
L 68.21875 39.015625 
L 68.21875 12.984375 
L 60.984375 12.984375 
L 60.984375 39.015625 
L 43.796875 39.015625 
L 43.796875 12.984375 
z
M 20.515625 -4.6875 
L 20.515625 25.59375 
L 27.6875 25.59375 
L 27.6875 1.8125 
L 81.390625 1.8125 
L 81.390625 -4.6875 
z
" id="MalgunGothic-44512"/>
       <path d="M 85.796875 46.390625 
Q 74.609375 47.953125 64.125 54.125 
Q 53.65625 60.296875 50 66.5 
Q 46.578125 60.453125 36.203125 54.046875 
Q 25.828125 47.65625 14.40625 45.796875 
L 9.90625 51.90625 
Q 22.859375 53.21875 33.625 60.046875 
Q 44.390625 66.890625 46.09375 75.390625 
L 16.015625 75.390625 
L 16.015625 81.890625 
L 83.984375 81.890625 
L 83.984375 75.390625 
L 53.8125 75.390625 
Q 55.46875 66.75 66.015625 60.15625 
Q 76.5625 53.5625 90.09375 52.296875 
z
M 53.71875 29.109375 
L 53.71875 -8.796875 
L 46.296875 -8.796875 
L 46.296875 29.109375 
L 6.296875 29.109375 
L 6.296875 35.59375 
L 93.703125 35.59375 
L 93.703125 29.109375 
z
" id="MalgunGothic-51452"/>
       <path d="M 21 48.390625 
L 21 81.984375 
L 79 81.984375 
L 79 48.390625 
z
M 71.78125 75.484375 
L 28.21875 75.484375 
L 28.21875 54.78125 
L 71.78125 54.78125 
z
M 47.015625 11.625 
L 47.015625 31 
L 6.296875 31 
L 6.296875 37.5 
L 93.703125 37.5 
L 93.703125 31 
L 54.203125 31 
L 54.203125 11.625 
z
M 20.125 -5.8125 
L 20.125 22.40625 
L 27.390625 22.40625 
L 27.390625 0.6875 
L 81.296875 0.6875 
L 81.296875 -5.8125 
z
" id="MalgunGothic-47928"/>
       <path d="M 77.296875 16.5 
L 77.296875 48.09375 
L 55.609375 48.09375 
L 55.609375 54.59375 
L 77.296875 54.59375 
L 77.296875 85.40625 
L 84.625 85.40625 
L 84.625 16.5 
z
M 56.5 79.390625 
Q 54.5 61.921875 43 48.4375 
Q 31.5 34.96875 13.375 27.09375 
L 8.5 33.015625 
Q 23.578125 38.421875 34.390625 49.09375 
Q 45.21875 59.765625 47.90625 72.90625 
L 14.703125 72.90625 
L 14.703125 79.390625 
z
M 26.90625 -5.078125 
L 26.90625 24.609375 
L 34.1875 24.609375 
L 34.1875 1.515625 
L 87.3125 1.515625 
L 87.3125 -5.078125 
z
" id="MalgunGothic-44148"/>
      </defs>
      <use xlink:href="#MalgunGothic-51068"/>
      <use x="100" xlink:href="#MalgunGothic-48324"/>
      <use x="200" xlink:href="#MalgunGothic-32"/>
      <use x="235.15625" xlink:href="#MalgunGothic-54217"/>
      <use x="335.15625" xlink:href="#MalgunGothic-44512"/>
      <use x="435.15625" xlink:href="#MalgunGothic-32"/>
      <use x="470.3125" xlink:href="#MalgunGothic-51452"/>
      <use x="570.3125" xlink:href="#MalgunGothic-47928"/>
      <use x="670.3125" xlink:href="#MalgunGothic-44148"/>
      <use x="770.3125" xlink:href="#MalgunGothic-49688"/>
     </g>
    </g>
   </g>
   <g id="patch_13">
    <path d="M 180 630 
L 180 86.4 
" style="fill:none;stroke:#000000;stroke-linecap:square;stroke-linejoin:miter;stroke-width:0.8;"/>
   </g>
   <g id="patch_14">
    <path d="M 1296 630 
L 1296 86.4 
" style="fill:none;stroke:#000000;stroke-linecap:square;stroke-linejoin:miter;stroke-width:0.8;"/>
   </g>
   <g id="patch_15">
    <path d="M 180 630 
L 1296 630 
" style="fill:none;stroke:#000000;stroke-linecap:square;stroke-linejoin:miter;stroke-width:0.8;"/>
   </g>
   <g id="patch_16">
    <path d="M 180 86.4 
L 1296 86.4 
" style="fill:none;stroke:#000000;stroke-linecap:square;stroke-linejoin:miter;stroke-width:0.8;"/>
   </g>
   <g id="text_13">
    <!-- 109 -->
    <g transform="translate(334.065554 304.118686)scale(0.1 -0.1)">
     <defs>
      <path d="M 8.6875 8.796875 
Q 14.703125 5.375 21.34375 5.375 
Q 31.15625 5.375 36.671875 13.359375 
Q 42.1875 21.34375 42.1875 36.140625 
Q 42.09375 36.03125 42 36.140625 
Q 37.3125 26.765625 25.828125 26.765625 
Q 16.546875 26.765625 10.65625 33.125 
Q 4.78125 39.5 4.78125 49.125 
Q 4.78125 59.46875 11.109375 66.25 
Q 17.4375 73.046875 27.6875 73.046875 
Q 38.53125 73.046875 44.265625 64.546875 
Q 50 56.0625 50 40.28125 
Q 50 20.609375 42.453125 9.6875 
Q 34.90625 -1.21875 21 -1.21875 
Q 13.765625 -1.21875 8.6875 1.21875 
z
M 12.703125 50.296875 
Q 12.703125 42.828125 16.609375 38.28125 
Q 20.515625 33.734375 27.484375 33.734375 
Q 33.546875 33.734375 37.59375 37.765625 
Q 41.65625 41.796875 41.65625 47.609375 
Q 41.65625 55.5625 37.671875 60.984375 
Q 33.6875 66.40625 26.953125 66.40625 
Q 20.65625 66.40625 16.671875 61.6875 
Q 12.703125 56.984375 12.703125 50.296875 
z
" id="MalgunGothic-57"/>
     </defs>
     <use xlink:href="#MalgunGothic-49"/>
     <use x="55.078125" xlink:href="#MalgunGothic-48"/>
     <use x="110.15625" xlink:href="#MalgunGothic-57"/>
    </g>
   </g>
   <g id="text_14">
    <!-- 121 -->
    <g transform="translate(841.338281 271.791253)scale(0.1 -0.1)">
     <use xlink:href="#MalgunGothic-49"/>
     <use x="55.078125" xlink:href="#MalgunGothic-50"/>
     <use x="110.15625" xlink:href="#MalgunGothic-49"/>
    </g>
   </g>
   <g id="text_15">
    <!-- 39 -->
    <g transform="translate(407.837642 508.58888)scale(0.1 -0.1)">
     <defs>
      <path d="M 6.5 11.234375 
Q 13.921875 5.375 23.09375 5.375 
Q 30.609375 5.375 35.21875 9.171875 
Q 39.84375 12.984375 39.84375 19.484375 
Q 39.84375 33.890625 19.578125 33.890625 
L 13.625 33.890625 
L 13.625 40.484375 
L 19.28125 40.484375 
Q 37.3125 40.484375 37.3125 53.953125 
Q 37.3125 66.40625 23.578125 66.40625 
Q 15.96875 66.40625 9.28125 61.1875 
L 9.28125 68.953125 
Q 16.109375 73.046875 25.53125 73.046875 
Q 34.125 73.046875 39.671875 68.3125 
Q 45.21875 63.578125 45.21875 55.953125 
Q 45.21875 41.84375 30.8125 37.640625 
L 30.8125 37.5 
Q 38.578125 36.8125 43.1875 32.078125 
Q 47.796875 27.34375 47.796875 20.3125 
Q 47.796875 10.5 40.6875 4.640625 
Q 33.59375 -1.21875 22.65625 -1.21875 
Q 12.59375 -1.21875 6.5 2.640625 
z
" id="MalgunGothic-51"/>
     </defs>
     <use xlink:href="#MalgunGothic-51"/>
     <use x="55.078125" xlink:href="#MalgunGothic-57"/>
    </g>
   </g>
   <g id="text_16">
    <!-- 45 -->
    <g transform="translate(915.110369 489.497334)scale(0.1 -0.1)">
     <defs>
      <path d="M 42.234375 71.875 
L 42.234375 24.421875 
L 51.703125 24.421875 
L 51.703125 17.390625 
L 42.234375 17.390625 
L 42.234375 0 
L 34.578125 0 
L 34.578125 17.390625 
L 0.78125 17.390625 
L 0.78125 23.96875 
Q 11.375 35.890625 20.234375 48.578125 
Q 29.109375 61.28125 33.9375 71.875 
z
M 9.765625 24.421875 
L 34.578125 24.421875 
L 34.578125 59.859375 
Q 25.203125 43.5625 14.984375 30.953125 
z
" id="MalgunGothic-52"/>
     </defs>
     <use xlink:href="#MalgunGothic-52"/>
     <use x="55.078125" xlink:href="#MalgunGothic-53"/>
    </g>
   </g>
   <g id="text_17">
    <!-- 160 -->
    <g transform="translate(476.101918 159.030611)scale(0.1 -0.1)">
     <defs>
      <path d="M 46.578125 63.578125 
Q 40.921875 66.40625 34.8125 66.40625 
Q 24.859375 66.40625 19.1875 57.640625 
Q 13.53125 48.875 13.578125 34.578125 
L 13.8125 34.578125 
Q 18.796875 44.875 30.28125 44.875 
Q 39.796875 44.875 45.359375 38.71875 
Q 50.921875 32.5625 50.921875 22.65625 
Q 50.921875 12.453125 44.640625 5.609375 
Q 38.375 -1.21875 28.515625 -1.21875 
Q 17.4375 -1.21875 11.5 7.46875 
Q 5.5625 16.15625 5.5625 31.546875 
Q 5.5625 49.703125 13.234375 61.375 
Q 20.90625 73.046875 34.71875 73.046875 
Q 42.1875 73.046875 46.578125 71 
z
M 14.15625 23.53125 
Q 14.15625 15.96875 18.203125 10.671875 
Q 22.265625 5.375 28.8125 5.375 
Q 35.109375 5.375 39.03125 10.078125 
Q 42.96875 14.796875 42.96875 21.6875 
Q 42.96875 29.5 39.203125 33.859375 
Q 35.453125 38.234375 28.71875 38.234375 
Q 22.5625 38.234375 18.359375 33.953125 
Q 14.15625 29.6875 14.15625 23.53125 
z
" id="MalgunGothic-54"/>
     </defs>
     <use xlink:href="#MalgunGothic-49"/>
     <use x="55.078125" xlink:href="#MalgunGothic-54"/>
     <use x="110.15625" xlink:href="#MalgunGothic-48"/>
    </g>
   </g>
   <g id="text_18">
    <!-- 178 -->
    <g transform="translate(983.374645 104.899777)scale(0.1 -0.1)">
     <defs>
      <path d="M 4.734375 20.015625 
Q 4.734375 26.078125 8.421875 31.421875 
Q 12.109375 36.765625 18.015625 38.96875 
Q 13.375 41.359375 10.546875 45.546875 
Q 7.71875 49.75 7.71875 54.6875 
Q 7.71875 59.8125 10.296875 64.03125 
Q 12.890625 68.265625 17.53125 70.65625 
Q 22.171875 73.046875 27.78125 73.046875 
Q 36.46875 73.046875 42.1875 67.84375 
Q 47.90625 62.640625 47.90625 54.6875 
Q 47.90625 49.703125 45.015625 45.53125 
Q 42.140625 41.359375 37.703125 38.96875 
Q 43.5625 36.71875 47.21875 31.390625 
Q 50.875 26.078125 50.875 20.015625 
Q 50.875 10.5 44.421875 4.640625 
Q 37.984375 -1.21875 27.78125 -1.21875 
Q 17.671875 -1.21875 11.203125 4.703125 
Q 4.734375 10.640625 4.734375 20.015625 
z
M 12.640625 20.75 
Q 12.640625 13.71875 16.890625 9.546875 
Q 21.140625 5.375 27.828125 5.375 
Q 34.46875 5.375 38.78125 9.671875 
Q 43.109375 13.96875 43.109375 20.75 
Q 43.109375 27.046875 38.78125 31.421875 
Q 34.46875 35.796875 27.828125 35.796875 
Q 21.4375 35.796875 17.03125 31.5625 
Q 12.640625 27.34375 12.640625 20.75 
z
M 15.671875 54.046875 
Q 15.671875 48.828125 19.28125 45.3125 
Q 22.90625 41.796875 27.828125 41.796875 
Q 32.765625 41.796875 36.40625 45.3125 
Q 40.046875 48.828125 40.046875 54.046875 
Q 40.046875 59.421875 36.578125 62.90625 
Q 33.109375 66.40625 27.828125 66.40625 
Q 22.65625 66.40625 19.15625 62.953125 
Q 15.671875 59.515625 15.671875 54.046875 
z
" id="MalgunGothic-56"/>
     </defs>
     <use xlink:href="#MalgunGothic-49"/>
     <use x="55.078125" xlink:href="#MalgunGothic-55"/>
     <use x="110.15625" xlink:href="#MalgunGothic-56"/>
    </g>
   </g>
   <g id="text_19">
    <!-- 82 -->
    <g transform="translate(549.874006 383.972767)scale(0.1 -0.1)">
     <use xlink:href="#MalgunGothic-56"/>
     <use x="55.078125" xlink:href="#MalgunGothic-50"/>
    </g>
   </g>
   <g id="text_20">
    <!-- 95 -->
    <g transform="translate(1057.146733 345.020702)scale(0.1 -0.1)">
     <use xlink:href="#MalgunGothic-57"/>
     <use x="55.078125" xlink:href="#MalgunGothic-53"/>
    </g>
   </g>
   <g id="text_21">
    <!-- 52 -->
    <g transform="translate(620.892187 470.945029)scale(0.1 -0.1)">
     <use xlink:href="#MalgunGothic-53"/>
     <use x="55.078125" xlink:href="#MalgunGothic-50"/>
    </g>
   </g>
   <g id="text_22">
    <!-- 59 -->
    <g transform="translate(1128.164915 451.148128)scale(0.1 -0.1)">
     <use xlink:href="#MalgunGothic-53"/>
     <use x="55.078125" xlink:href="#MalgunGothic-57"/>
    </g>
   </g>
   <g id="text_23">
    <!-- 일별 평균 주문건수 10% 이상씩 증가 -->
    <g style="fill:#0000ff;" transform="translate(551.617919 282.894927)rotate(-25)scale(0.25 -0.25)">
     <defs>
      <path d="M 3.953125 53.8125 
Q 3.953125 62.453125 8.546875 67.671875 
Q 13.140625 72.90625 21.140625 72.90625 
Q 28.859375 72.90625 33.046875 68.046875 
Q 37.25 63.1875 37.25 54.828125 
Q 37.25 46.4375 32.53125 41.140625 
Q 27.828125 35.84375 20.125 35.84375 
Q 12.75 35.84375 8.34375 40.75 
Q 3.953125 45.65625 3.953125 53.8125 
z
M 10.40625 54.296875 
Q 10.40625 48.296875 13.140625 44.75 
Q 15.875 41.21875 20.65625 41.21875 
Q 25.484375 41.21875 28.171875 44.734375 
Q 30.859375 48.25 30.859375 54.59375 
Q 30.859375 60.84375 28.1875 64.25 
Q 25.53125 67.671875 20.84375 67.671875 
Q 15.96875 67.671875 13.1875 64.03125 
Q 10.40625 60.40625 10.40625 54.296875 
z
M 67.96875 71.875 
L 21.921875 -0.53125 
L 15.09375 -0.53125 
L 61.078125 71.875 
z
M 46.6875 16.84375 
Q 46.6875 25.640625 51.3125 30.890625 
Q 55.953125 36.140625 63.765625 36.140625 
Q 71.390625 36.140625 75.640625 31.25 
Q 79.890625 26.375 79.890625 17.78125 
Q 79.890625 9.375 75.140625 4.125 
Q 70.40625 -1.125 62.796875 -1.125 
Q 55.46875 -1.125 51.078125 3.828125 
Q 46.6875 8.796875 46.6875 16.84375 
z
M 53.03125 17.234375 
Q 53.03125 11.328125 55.78125 7.78125 
Q 58.546875 4.25 63.28125 4.25 
Q 68.0625 4.25 70.765625 7.828125 
Q 73.484375 11.421875 73.484375 17.71875 
Q 73.484375 23.96875 70.84375 27.3125 
Q 68.21875 30.671875 63.53125 30.671875 
Q 58.640625 30.671875 55.828125 27.046875 
Q 53.03125 23.4375 53.03125 17.234375 
z
" id="MalgunGothic-37"/>
      <path d="M 77.296875 -8.796875 
L 77.296875 85.40625 
L 84.625 85.40625 
L 84.625 -8.796875 
z
M 35.6875 14.984375 
Q 24.953125 14.984375 18.328125 23.65625 
Q 11.71875 32.328125 11.71875 47.125 
Q 11.71875 62.109375 18.265625 70.65625 
Q 24.8125 79.203125 35.6875 79.203125 
Q 46.53125 79.203125 53.171875 70.65625 
Q 59.8125 62.109375 59.8125 47.125 
Q 59.8125 32.234375 53.140625 23.609375 
Q 46.484375 14.984375 35.6875 14.984375 
z
M 35.6875 72.703125 
Q 28.171875 72.703125 23.484375 65.6875 
Q 18.796875 58.6875 18.796875 47.125 
Q 18.796875 35.59375 23.53125 28.53125 
Q 28.265625 21.484375 35.6875 21.484375 
Q 43.0625 21.484375 47.828125 28.5625 
Q 52.59375 35.640625 52.59375 47.125 
Q 52.59375 58.734375 47.921875 65.71875 
Q 43.265625 72.703125 35.6875 72.703125 
z
" id="MalgunGothic-51060"/>
      <path d="M 80.078125 52.984375 
L 80.078125 31.109375 
L 72.796875 31.109375 
L 72.796875 85.40625 
L 80.078125 85.40625 
L 80.078125 59.625 
L 94.28125 59.625 
L 94.28125 52.984375 
z
M 56.296875 36.1875 
Q 50.09375 39.5 43.40625 45.84375 
Q 36.71875 52.203125 34.1875 57.515625 
Q 31.59375 51.421875 25.140625 44.5625 
Q 18.703125 37.703125 11.71875 33.796875 
L 6.390625 38.8125 
Q 16.75 43.84375 23.625 53.078125 
Q 30.515625 62.3125 30.515625 72.3125 
L 30.515625 82.171875 
L 37.5 82.171875 
L 37.5 72.3125 
Q 37.5 62.890625 44.453125 54.25 
Q 51.421875 45.609375 61.078125 41.5 
z
M 50.984375 -8.015625 
Q 36.28125 -8.015625 28.296875 -2.90625 
Q 20.3125 2.203125 20.3125 10.296875 
Q 20.3125 18.359375 28.3125 23.4375 
Q 36.328125 28.515625 50.984375 28.515625 
Q 65.671875 28.515625 73.671875 23.453125 
Q 81.6875 18.40625 81.6875 10.296875 
Q 81.6875 2.15625 73.703125 -2.921875 
Q 65.71875 -8.015625 50.984375 -8.015625 
z
M 50.984375 22.3125 
Q 40.046875 22.3125 34.0625 18.984375 
Q 28.078125 15.671875 28.078125 10.296875 
Q 28.078125 4.828125 34.078125 1.5 
Q 40.09375 -1.8125 50.984375 -1.8125 
Q 62.015625 -1.8125 68.015625 1.53125 
Q 74.03125 4.890625 74.03125 10.296875 
Q 74.03125 15.625 68.015625 18.96875 
Q 62.015625 22.3125 50.984375 22.3125 
z
" id="MalgunGothic-49345"/>
      <path d="M 76.3125 31.984375 
L 76.3125 85.40625 
L 83.59375 85.40625 
L 83.59375 31.984375 
z
M 36.28125 45.3125 
Q 27.484375 53.375 25.390625 60.796875 
Q 22.953125 50.53125 12.40625 39.796875 
L 6.5 43.609375 
Q 13.765625 50.046875 17.71875 58.78125 
Q 21.6875 67.53125 21.6875 76.3125 
L 21.6875 82.171875 
L 28.609375 82.171875 
L 28.609375 76.21875 
Q 28.609375 68.796875 31.65625 61.984375 
Q 34.71875 55.171875 39.890625 50.6875 
Q 46.6875 62.59375 46.6875 76.609375 
L 46.6875 82.328125 
L 53.609375 82.328125 
L 53.609375 76.609375 
Q 53.609375 53.71875 70.796875 42.28125 
L 65.71875 37.796875 
Q 61.1875 40.921875 56.421875 46.890625 
Q 51.65625 52.875 50.09375 57.8125 
Q 46.6875 45.75 35.296875 33.984375 
L 29.59375 37.703125 
Q 32.8125 40.671875 36.28125 45.3125 
z
M 76.3125 -8.796875 
L 76.3125 20.3125 
L 21.78125 20.3125 
L 21.78125 26.8125 
L 83.59375 26.8125 
L 83.59375 -8.796875 
z
" id="MalgunGothic-50473"/>
      <path d="M 85.296875 51.125 
Q 74.03125 52.78125 63.984375 58.078125 
Q 53.953125 63.375 50.09375 69 
Q 45.953125 63.375 35.84375 58.078125 
Q 25.734375 52.78125 15.1875 51.21875 
L 10.890625 57.078125 
Q 23.1875 58.0625 33.5625 63.84375 
Q 43.953125 69.625 46.09375 76.21875 
L 16.015625 76.21875 
L 16.015625 82.8125 
L 83.984375 82.8125 
L 83.984375 76.21875 
L 54 76.21875 
Q 56.25 69.671875 66.71875 63.8125 
Q 77.203125 57.953125 89.109375 57.078125 
z
M 6.296875 36.375 
L 6.296875 42.921875 
L 93.703125 42.921875 
L 93.703125 36.375 
z
M 50 -7.8125 
Q 35.359375 -7.8125 27.59375 -3.125 
Q 19.828125 1.5625 19.828125 9.8125 
Q 19.828125 17.875 27.609375 22.53125 
Q 35.40625 27.203125 50 27.203125 
Q 64.59375 27.203125 72.375 22.53125 
Q 80.171875 17.875 80.171875 9.8125 
Q 80.171875 1.5625 72.40625 -3.125 
Q 64.65625 -7.8125 50 -7.8125 
z
M 50 21 
Q 38.765625 21 33.078125 18.046875 
Q 27.390625 15.09375 27.390625 9.8125 
Q 27.390625 4.4375 33.171875 1.40625 
Q 38.96875 -1.609375 50 -1.609375 
Q 60.984375 -1.609375 66.796875 1.40625 
Q 72.609375 4.4375 72.609375 9.8125 
Q 72.609375 15.09375 66.890625 18.046875 
Q 61.1875 21 50 21 
z
" id="MalgunGothic-51613"/>
      <path d="M 79.59375 40.09375 
L 79.59375 -8.796875 
L 72.3125 -8.796875 
L 72.3125 85.40625 
L 79.59375 85.40625 
L 79.59375 46.578125 
L 96.484375 46.578125 
L 96.484375 40.09375 
z
M 56.390625 77 
Q 55.328125 36.921875 14.015625 13.484375 
L 8.40625 19.390625 
Q 23.1875 25.484375 34.90625 39.15625 
Q 46.625 52.828125 48.578125 70.515625 
L 12.40625 70.515625 
L 12.40625 77 
z
" id="MalgunGothic-44032"/>
     </defs>
     <use xlink:href="#MalgunGothic-51068"/>
     <use x="100" xlink:href="#MalgunGothic-48324"/>
     <use x="200" xlink:href="#MalgunGothic-32"/>
     <use x="235.15625" xlink:href="#MalgunGothic-54217"/>
     <use x="335.15625" xlink:href="#MalgunGothic-44512"/>
     <use x="435.15625" xlink:href="#MalgunGothic-32"/>
     <use x="470.3125" xlink:href="#MalgunGothic-51452"/>
     <use x="570.3125" xlink:href="#MalgunGothic-47928"/>
     <use x="670.3125" xlink:href="#MalgunGothic-44148"/>
     <use x="770.3125" xlink:href="#MalgunGothic-49688"/>
     <use x="870.3125" xlink:href="#MalgunGothic-32"/>
     <use x="905.46875" xlink:href="#MalgunGothic-49"/>
     <use x="960.546875" xlink:href="#MalgunGothic-48"/>
     <use x="1015.625" xlink:href="#MalgunGothic-37"/>
     <use x="1099.267578" xlink:href="#MalgunGothic-32"/>
     <use x="1134.423828" xlink:href="#MalgunGothic-51060"/>
     <use x="1234.423828" xlink:href="#MalgunGothic-49345"/>
     <use x="1334.423828" xlink:href="#MalgunGothic-50473"/>
     <use x="1434.423828" xlink:href="#MalgunGothic-32"/>
     <use x="1469.580078" xlink:href="#MalgunGothic-51613"/>
     <use x="1569.580078" xlink:href="#MalgunGothic-44032"/>
    </g>
   </g>
   <g id="text_24">
    <!-- 강수 여부에 따른 일별 평균 주문건수 비교 -->
    <g transform="translate(451.359375 66.4)scale(0.3 -0.3)">
     <defs>
      <path d="M 79.390625 -8.796875 
L 79.390625 85.40625 
L 86.71875 85.40625 
L 86.71875 -8.796875 
z
M 51.21875 44.09375 
Q 50.6875 30.171875 45.359375 22.625 
Q 40.046875 15.09375 30.609375 15.09375 
Q 20.703125 15.09375 15.359375 23.359375 
Q 10.015625 31.640625 10.015625 47.125 
Q 10.015625 62.59375 15.40625 70.84375 
Q 20.796875 79.109375 30.609375 79.109375 
Q 39.984375 79.109375 45.28125 71.734375 
Q 50.59375 64.359375 51.125 50.59375 
L 62.5 50.59375 
L 62.5 83.5 
L 69.828125 83.5 
L 69.828125 -5.90625 
L 62.5 -5.90625 
L 62.5 44.09375 
z
M 30.609375 72.515625 
Q 24.03125 72.515625 20.5625 66.015625 
Q 17.09375 59.515625 17.09375 47.125 
Q 17.09375 34.71875 20.5625 28.203125 
Q 24.03125 21.6875 30.609375 21.6875 
Q 37.15625 21.6875 40.625 28.21875 
Q 44.09375 34.765625 44.09375 47.125 
Q 44.09375 59.46875 40.625 65.984375 
Q 37.15625 72.515625 30.609375 72.515625 
z
" id="MalgunGothic-50640"/>
      <path d="M 81.5 41.109375 
L 81.5 -8.796875 
L 74.21875 -8.796875 
L 74.21875 85.40625 
L 81.5 85.40625 
L 81.5 47.609375 
L 97.40625 47.609375 
L 97.40625 41.109375 
z
M 69.390625 18.21875 
Q 62.25 16.703125 41.21875 16.703125 
L 41.21875 77 
L 65.921875 77 
L 65.921875 70.609375 
L 48.390625 70.609375 
L 48.390625 23.1875 
Q 62.15625 23.1875 68.703125 24.515625 
z
M 37.015625 18.703125 
Q 28.609375 16.796875 10.5 16.796875 
L 10.5 77 
L 34.8125 77 
L 34.8125 70.609375 
L 17.671875 70.609375 
L 17.671875 23.296875 
Q 31 23.296875 35.984375 24.8125 
z
" id="MalgunGothic-46384"/>
      <path d="M 21 42.578125 
L 21 65.625 
L 71.6875 65.625 
L 71.6875 75.875 
L 21 75.875 
L 21 82.328125 
L 79 82.328125 
L 79 59.1875 
L 28.21875 59.1875 
L 28.21875 49.125 
L 81.203125 49.125 
L 81.203125 42.578125 
z
M 6.296875 26.515625 
L 6.296875 33.015625 
L 93.703125 33.015625 
L 93.703125 26.515625 
z
M 20.703125 -6.59375 
L 20.703125 19.828125 
L 27.984375 19.828125 
L 27.984375 0 
L 81.296875 0 
L 81.296875 -6.59375 
z
" id="MalgunGothic-47480"/>
      <path d="M 76.3125 -8.796875 
L 76.3125 85.40625 
L 83.59375 85.40625 
L 83.59375 -8.796875 
z
M 12.890625 16.890625 
L 12.890625 78.328125 
L 20.21875 78.328125 
L 20.21875 54.203125 
L 50.6875 54.203125 
L 50.6875 78.328125 
L 58.015625 78.328125 
L 58.015625 16.890625 
z
M 50.6875 47.703125 
L 20.21875 47.703125 
L 20.21875 23.390625 
L 50.6875 23.390625 
z
" id="MalgunGothic-48708"/>
      <path d="M 79.5 25.484375 
L 72.3125 26.3125 
Q 73.6875 40.328125 73.6875 56.203125 
L 73.6875 69.921875 
L 17.671875 69.921875 
L 17.671875 76.515625 
L 81.203125 76.515625 
L 81.203125 56.203125 
Q 81.203125 42.390625 79.5 25.484375 
z
M 6.296875 7.171875 
L 6.296875 13.8125 
L 28.90625 13.8125 
L 28.90625 45.796875 
L 36.078125 45.796875 
L 36.078125 13.8125 
L 52.78125 13.8125 
L 52.78125 45.796875 
L 60.015625 45.796875 
L 60.015625 13.8125 
L 93.703125 13.8125 
L 93.703125 7.171875 
z
" id="MalgunGothic-44368"/>
     </defs>
     <use xlink:href="#MalgunGothic-44053"/>
     <use x="100" xlink:href="#MalgunGothic-49688"/>
     <use x="200" xlink:href="#MalgunGothic-32"/>
     <use x="235.15625" xlink:href="#MalgunGothic-50668"/>
     <use x="335.15625" xlink:href="#MalgunGothic-48512"/>
     <use x="435.15625" xlink:href="#MalgunGothic-50640"/>
     <use x="535.15625" xlink:href="#MalgunGothic-32"/>
     <use x="570.3125" xlink:href="#MalgunGothic-46384"/>
     <use x="670.3125" xlink:href="#MalgunGothic-47480"/>
     <use x="770.3125" xlink:href="#MalgunGothic-32"/>
     <use x="805.46875" xlink:href="#MalgunGothic-51068"/>
     <use x="905.46875" xlink:href="#MalgunGothic-48324"/>
     <use x="1005.46875" xlink:href="#MalgunGothic-32"/>
     <use x="1040.625" xlink:href="#MalgunGothic-54217"/>
     <use x="1140.625" xlink:href="#MalgunGothic-44512"/>
     <use x="1240.625" xlink:href="#MalgunGothic-32"/>
     <use x="1275.78125" xlink:href="#MalgunGothic-51452"/>
     <use x="1375.78125" xlink:href="#MalgunGothic-47928"/>
     <use x="1475.78125" xlink:href="#MalgunGothic-44148"/>
     <use x="1575.78125" xlink:href="#MalgunGothic-49688"/>
     <use x="1675.78125" xlink:href="#MalgunGothic-32"/>
     <use x="1710.9375" xlink:href="#MalgunGothic-48708"/>
     <use x="1810.9375" xlink:href="#MalgunGothic-44368"/>
    </g>
   </g>
   <g id="legend_1">
    <g id="patch_17">
     <path d="M 1110.08125 251.9625 
L 1282 251.9625 
Q 1286 251.9625 1286 247.9625 
L 1286 100.4 
Q 1286 96.4 1282 96.4 
L 1110.08125 96.4 
Q 1106.08125 96.4 1106.08125 100.4 
L 1106.08125 247.9625 
Q 1106.08125 251.9625 1110.08125 251.9625 
z
" style="fill:#ffffff;opacity:0.8;stroke:#cccccc;stroke-linejoin:miter;"/>
    </g>
    <g id="patch_18">
     <path d="M 1114.08125 119.584375 
L 1154.08125 119.584375 
L 1154.08125 105.584375 
L 1114.08125 105.584375 
z
" style="fill:#ffff00;"/>
    </g>
    <g id="text_25">
     <!-- 분식 -->
     <g transform="translate(1170.08125 119.584375)scale(0.2 -0.2)">
      <defs>
       <path d="M 20.90625 46.78125 
L 20.90625 82.90625 
L 28.21875 82.90625 
L 28.21875 70.703125 
L 71.78125 70.703125 
L 71.78125 82.90625 
L 79 82.90625 
L 79 46.78125 
z
M 71.78125 64.203125 
L 28.21875 64.203125 
L 28.21875 53.21875 
L 71.78125 53.21875 
z
M 54 29.109375 
L 54 7.71875 
L 46.6875 7.71875 
L 46.6875 29.109375 
L 6.296875 29.109375 
L 6.296875 35.59375 
L 93.703125 35.59375 
L 93.703125 29.109375 
z
M 20.125 -6 
L 20.125 21 
L 27.390625 21 
L 27.390625 0.484375 
L 81.5 0.484375 
L 81.5 -6 
z
" id="MalgunGothic-48516"/>
       <path d="M 76.3125 31.109375 
L 76.3125 85.40625 
L 83.59375 85.40625 
L 83.59375 31.109375 
z
M 57.078125 36.375 
Q 50.6875 39.84375 44.234375 46.09375 
Q 37.796875 52.34375 35.203125 57.8125 
Q 32.421875 51.609375 25.921875 44.65625 
Q 19.4375 37.703125 12.796875 33.984375 
L 7.625 39.015625 
Q 17.71875 43.84375 24.546875 53.015625 
Q 31.390625 62.203125 31.390625 72.3125 
L 31.390625 82.328125 
L 38.484375 82.328125 
L 38.484375 72.3125 
Q 38.484375 62.890625 45.5625 54.25 
Q 52.640625 45.609375 62.015625 41.703125 
z
M 76.3125 -8.796875 
L 76.3125 19.28125 
L 22.3125 19.28125 
L 22.3125 25.78125 
L 83.59375 25.78125 
L 83.59375 -8.796875 
z
" id="MalgunGothic-49885"/>
      </defs>
      <use xlink:href="#MalgunGothic-48516"/>
      <use x="100" xlink:href="#MalgunGothic-49885"/>
     </g>
    </g>
    <g id="patch_19">
     <path d="M 1114.08125 149.496875 
L 1154.08125 149.496875 
L 1154.08125 135.496875 
L 1114.08125 135.496875 
z
" style="fill:#00ff00;"/>
    </g>
    <g id="text_26">
     <!-- 아시안/양식 -->
     <g transform="translate(1170.08125 149.496875)scale(0.2 -0.2)">
      <defs>
       <path d="M 79.59375 40.625 
L 79.59375 -8.796875 
L 72.3125 -8.796875 
L 72.3125 85.40625 
L 79.59375 85.40625 
L 79.59375 47.21875 
L 95.515625 47.21875 
L 95.515625 40.625 
z
M 34.28125 15.09375 
Q 23.578125 15.09375 16.984375 23.625 
Q 10.40625 32.171875 10.40625 47.125 
Q 10.40625 62.203125 16.921875 70.65625 
Q 23.4375 79.109375 34.28125 79.109375 
Q 45.171875 79.109375 51.6875 70.53125 
Q 58.203125 61.96875 58.203125 47.125 
Q 58.203125 32.234375 51.65625 23.65625 
Q 45.125 15.09375 34.28125 15.09375 
z
M 34.28125 72.609375 
Q 26.8125 72.609375 22.1875 65.75 
Q 17.578125 58.890625 17.578125 47.125 
Q 17.578125 35.546875 22.234375 28.5625 
Q 26.90625 21.578125 34.28125 21.578125 
Q 41.609375 21.578125 46.296875 28.609375 
Q 50.984375 35.640625 50.984375 47.125 
Q 50.984375 58.84375 46.390625 65.71875 
Q 41.796875 72.609375 34.28125 72.609375 
z
" id="MalgunGothic-50500"/>
       <path d="M 77.296875 -8.796875 
L 77.296875 85.40625 
L 84.625 85.40625 
L 84.625 -8.796875 
z
M 58.890625 15.09375 
Q 50.984375 21.140625 44.0625 30.296875 
Q 37.15625 39.453125 35.296875 46.09375 
Q 33.0625 38.484375 26.359375 29.25 
Q 19.671875 20.015625 11.8125 13.921875 
L 6.203125 18.796875 
Q 17.828125 26.609375 24.703125 38.734375 
Q 31.59375 50.875 31.59375 63.484375 
L 31.59375 78.90625 
L 38.8125 78.90625 
L 38.8125 63.8125 
Q 38.8125 51.609375 45.625 39.9375 
Q 52.4375 28.265625 64.015625 20.796875 
z
" id="MalgunGothic-49884"/>
       <path d="M 80.171875 48.578125 
L 80.171875 16.703125 
L 72.90625 16.703125 
L 72.90625 85.40625 
L 80.171875 85.40625 
L 80.171875 55.21875 
L 94.390625 55.21875 
L 94.390625 48.578125 
z
M 34.1875 34.1875 
Q 23.734375 34.1875 16.71875 40.796875 
Q 9.71875 47.40625 9.71875 57.90625 
Q 9.71875 68.453125 16.671875 74.96875 
Q 23.640625 81.5 34.1875 81.5 
Q 44.78125 81.5 51.6875 74.953125 
Q 58.59375 68.40625 58.59375 57.90625 
Q 58.59375 47.46875 51.625 40.828125 
Q 44.671875 34.1875 34.1875 34.1875 
z
M 34.1875 75.296875 
Q 26.46875 75.296875 21.625 70.5625 
Q 16.796875 65.828125 16.796875 57.90625 
Q 16.796875 50 21.609375 45.234375 
Q 26.421875 40.484375 34.1875 40.484375 
Q 41.9375 40.484375 46.765625 45.234375 
Q 51.609375 50 51.609375 57.90625 
Q 51.609375 65.828125 46.765625 70.5625 
Q 41.9375 75.296875 34.1875 75.296875 
z
M 21.578125 -5.609375 
L 21.578125 25.296875 
L 29 25.296875 
L 29 0.875 
L 83.109375 0.875 
L 83.109375 -5.609375 
z
" id="MalgunGothic-50504"/>
       <path d="M 40.375 71.875 
L 5.90625 -11.921875 
L -1.3125 -11.921875 
L 33.015625 71.875 
z
" id="MalgunGothic-47"/>
       <path d="M 80.078125 43.890625 
L 80.078125 31 
L 72.796875 31 
L 72.796875 85.40625 
L 80.078125 85.40625 
L 80.078125 71.390625 
L 94.28125 71.390625 
L 94.28125 64.984375 
L 80.078125 64.984375 
L 80.078125 50.296875 
L 94.28125 50.296875 
L 94.28125 43.890625 
z
M 33.59375 37.5 
Q 23.046875 37.5 16.375 43.921875 
Q 9.71875 50.34375 9.71875 60.109375 
Q 9.71875 69.828125 16.328125 76.21875 
Q 22.953125 82.625 33.59375 82.625 
Q 44.234375 82.625 50.921875 76.25 
Q 57.625 69.875 57.625 60.109375 
Q 57.625 50.25 50.90625 43.875 
Q 44.1875 37.5 33.59375 37.5 
z
M 33.59375 76.421875 
Q 26.171875 76.421875 21.578125 71.84375 
Q 17 67.28125 17 60.109375 
Q 17 52.828125 21.578125 48.265625 
Q 26.171875 43.703125 33.59375 43.703125 
Q 41.0625 43.703125 45.671875 48.28125 
Q 50.296875 52.875 50.296875 60.109375 
Q 50.296875 67.1875 45.671875 71.796875 
Q 41.0625 76.421875 33.59375 76.421875 
z
M 51.125 -7.71875 
Q 36.46875 -7.71875 28.625 -2.65625 
Q 20.796875 2.390625 20.796875 10.984375 
Q 20.796875 19.53125 28.609375 24.5625 
Q 36.421875 29.59375 51.125 29.59375 
Q 65.96875 29.59375 73.734375 24.5625 
Q 81.5 19.53125 81.5 10.984375 
Q 81.5 2.4375 73.703125 -2.640625 
Q 65.921875 -7.71875 51.125 -7.71875 
z
M 51.125 23.390625 
Q 40.140625 23.390625 34.375 20.046875 
Q 28.609375 16.703125 28.609375 10.984375 
Q 28.609375 5.21875 34.34375 1.84375 
Q 40.09375 -1.515625 51.125 -1.515625 
Q 62.203125 -1.515625 67.984375 1.875 
Q 73.78125 5.28125 73.78125 10.984375 
Q 73.78125 16.65625 67.96875 20.015625 
Q 62.15625 23.390625 51.125 23.390625 
z
" id="MalgunGothic-50577"/>
      </defs>
      <use xlink:href="#MalgunGothic-50500"/>
      <use x="100" xlink:href="#MalgunGothic-49884"/>
      <use x="200" xlink:href="#MalgunGothic-50504"/>
      <use x="300" xlink:href="#MalgunGothic-47"/>
      <use x="339.599609" xlink:href="#MalgunGothic-50577"/>
      <use x="439.599609" xlink:href="#MalgunGothic-49885"/>
     </g>
    </g>
    <g id="patch_20">
     <path d="M 1114.08125 179.409375 
L 1154.08125 179.409375 
L 1154.08125 165.409375 
L 1114.08125 165.409375 
z
" style="fill:#ff7f50;"/>
    </g>
    <g id="text_27">
     <!-- 치킨 -->
     <g transform="translate(1170.08125 179.409375)scale(0.2 -0.2)">
      <defs>
       <path d="M 77.203125 -8.796875 
L 77.203125 85.40625 
L 84.515625 85.40625 
L 84.515625 -8.796875 
z
M 62.015625 15.09375 
Q 53.859375 19.875 46.796875 27.703125 
Q 39.75 35.546875 37.59375 41.5 
Q 35.640625 35.296875 28.390625 26.34375 
Q 21.140625 17.390625 13.921875 12.984375 
L 8.296875 18.703125 
Q 18.703125 23.734375 26.296875 35.03125 
Q 33.890625 46.34375 33.890625 56.6875 
L 33.890625 65.71875 
L 10.59375 65.71875 
L 10.59375 72.21875 
L 33.796875 72.21875 
L 33.796875 85.40625 
L 41.109375 85.40625 
L 41.109375 72.21875 
L 64.5 72.21875 
L 64.5 65.71875 
L 41.21875 65.71875 
L 41.109375 56.296875 
Q 41.015625 46.734375 48.609375 36.15625 
Q 56.203125 25.59375 67.1875 20.90625 
z
" id="MalgunGothic-52824"/>
       <path d="M 77.296875 16.703125 
L 77.296875 85.40625 
L 84.625 85.40625 
L 84.625 16.703125 
z
M 58.40625 79.6875 
Q 58.40625 65.328125 46.921875 50.75 
Q 35.453125 36.1875 16.109375 27.78125 
L 10.796875 33.6875 
Q 31.15625 41.015625 42.484375 56.203125 
L 14.59375 53.21875 
L 11.921875 59.90625 
L 46.296875 62.203125 
Q 49.421875 68.015625 50.203125 73.09375 
L 16.703125 73.09375 
L 16.703125 79.6875 
z
M 26.90625 -5.078125 
L 26.90625 25 
L 34.1875 25 
L 34.1875 1.515625 
L 86.921875 1.515625 
L 86.921875 -5.078125 
z
" id="MalgunGothic-53416"/>
      </defs>
      <use xlink:href="#MalgunGothic-52824"/>
      <use x="100" xlink:href="#MalgunGothic-53416"/>
     </g>
    </g>
    <g id="patch_21">
     <path d="M 1114.08125 209.321875 
L 1154.08125 209.321875 
L 1154.08125 195.321875 
L 1114.08125 195.321875 
z
" style="fill:#0000ff;"/>
    </g>
    <g id="text_28">
     <!-- 패스트푸드 -->
     <g transform="translate(1170.08125 209.321875)scale(0.2 -0.2)">
      <defs>
       <path d="M 79.203125 -8.796875 
L 79.203125 38.921875 
L 67.921875 38.921875 
L 67.921875 -5.90625 
L 60.6875 -5.90625 
L 60.6875 83.5 
L 67.921875 83.5 
L 67.921875 45.515625 
L 79.203125 45.515625 
L 79.203125 85.40625 
L 86.53125 85.40625 
L 86.53125 -8.796875 
z
M 8.40625 70.515625 
L 8.40625 77 
L 52.875 77 
L 52.875 70.515625 
z
M 56.109375 17.578125 
Q 51.21875 16.609375 41.609375 16.609375 
L 5.71875 16.609375 
L 5.71875 23.09375 
L 17.390625 23.09375 
L 16.109375 63.921875 
L 23.390625 63.921875 
L 24.21875 23.09375 
L 37.109375 23.09375 
L 37.890625 63.921875 
L 45.21875 63.921875 
L 43.890625 23.09375 
Q 52.640625 23.09375 55.515625 23.78125 
z
" id="MalgunGothic-54056"/>
       <path d="M 49.90625 60.890625 
Q 46.390625 53.375 36.375 45.78125 
Q 26.375 38.1875 14.984375 35.109375 
L 10.015625 40.921875 
Q 26.609375 44.390625 36.390625 54.25 
Q 46.1875 64.109375 46.1875 72.796875 
L 46.1875 77.78125 
L 53.71875 77.78125 
L 53.71875 72.796875 
Q 53.71875 63.96875 63.640625 54.3125 
Q 73.578125 44.671875 89.984375 41.015625 
L 84.8125 35.203125 
Q 73.34375 38.765625 63.40625 46.1875 
Q 53.46875 53.609375 49.90625 60.890625 
z
M 93.703125 6.984375 
L 6.296875 6.984375 
L 6.296875 13.484375 
L 93.703125 13.484375 
z
" id="MalgunGothic-49828"/>
       <path d="M 80.171875 69.828125 
L 27.59375 69.828125 
L 27.59375 56.203125 
L 77.484375 56.203125 
L 77.484375 49.703125 
L 27.59375 49.703125 
L 27.59375 36.8125 
L 81.6875 36.8125 
L 81.6875 30.328125 
L 20.40625 30.328125 
L 20.40625 76.21875 
L 80.171875 76.21875 
z
M 6.296875 6 
L 6.296875 12.5 
L 93.703125 12.5 
L 93.703125 6 
z
" id="MalgunGothic-53944"/>
       <path d="M 16.890625 75.484375 
L 16.890625 81.984375 
L 83.109375 81.984375 
L 83.109375 75.484375 
z
M 15.71875 43.796875 
L 15.71875 50.296875 
L 29.78125 50.296875 
L 28.609375 70.703125 
L 35.796875 70.703125 
L 37.109375 50.296875 
L 62.890625 50.296875 
L 64.203125 70.703125 
L 71.390625 70.703125 
L 70.21875 50.296875 
L 84.28125 50.296875 
L 84.28125 43.796875 
z
M 53.71875 25.59375 
L 53.71875 -8.796875 
L 46.296875 -8.796875 
L 46.296875 25.59375 
L 6.296875 25.59375 
L 6.296875 32.171875 
L 93.703125 32.171875 
L 93.703125 25.59375 
z
" id="MalgunGothic-54392"/>
       <path d="M 78.90625 70.125 
L 28.421875 70.125 
L 28.421875 40.828125 
L 80.421875 40.828125 
L 80.421875 34.28125 
L 21.09375 34.28125 
L 21.09375 76.609375 
L 78.90625 76.609375 
z
M 6.296875 7.515625 
L 6.296875 14.015625 
L 93.703125 14.015625 
L 93.703125 7.515625 
z
" id="MalgunGothic-46300"/>
      </defs>
      <use xlink:href="#MalgunGothic-54056"/>
      <use x="100" xlink:href="#MalgunGothic-49828"/>
      <use x="200" xlink:href="#MalgunGothic-53944"/>
      <use x="300" xlink:href="#MalgunGothic-54392"/>
      <use x="400" xlink:href="#MalgunGothic-46300"/>
     </g>
    </g>
    <g id="patch_22">
     <path d="M 1114.08125 239.234375 
L 1154.08125 239.234375 
L 1154.08125 225.234375 
L 1114.08125 225.234375 
z
" style="fill:#800080;"/>
    </g>
    <g id="text_29">
     <!-- 한식 -->
     <g transform="translate(1170.08125 239.234375)scale(0.2 -0.2)">
      <defs>
       <path d="M 80.078125 42.390625 
L 80.078125 15.28125 
L 72.796875 15.28125 
L 72.796875 85.40625 
L 80.078125 85.40625 
L 80.078125 49.03125 
L 94.28125 49.03125 
L 94.28125 42.390625 
z
M 6.984375 66.3125 
L 6.984375 72.796875 
L 31.296875 72.796875 
L 31.296875 85.015625 
L 38.71875 85.015625 
L 38.71875 72.796875 
L 62.984375 72.796875 
L 62.984375 66.3125 
z
M 35.015625 25.78125 
Q 24.359375 25.78125 18.140625 30.921875 
Q 11.921875 36.078125 11.921875 43.609375 
Q 11.921875 51.03125 18.140625 56.15625 
Q 24.359375 61.28125 35.109375 61.28125 
Q 45.796875 61.28125 52.046875 56.171875 
Q 58.296875 51.078125 58.296875 43.609375 
Q 58.296875 36.1875 52.015625 30.984375 
Q 45.75 25.78125 35.015625 25.78125 
z
M 35.109375 55.078125 
Q 27.6875 55.078125 23.390625 51.859375 
Q 19.09375 48.640625 19.09375 43.609375 
Q 19.09375 38.53125 23.40625 35.25 
Q 27.734375 31.984375 35.109375 31.984375 
Q 42.484375 31.984375 46.796875 35.25 
Q 51.125 38.53125 51.125 43.609375 
Q 51.125 48.640625 46.828125 51.859375 
Q 42.53125 55.078125 35.109375 55.078125 
z
M 22.796875 -7.078125 
L 22.796875 19 
L 29.984375 19 
L 29.984375 -0.59375 
L 83.015625 -0.59375 
L 83.015625 -7.078125 
z
" id="MalgunGothic-54620"/>
      </defs>
      <use xlink:href="#MalgunGothic-54620"/>
      <use x="100" xlink:href="#MalgunGothic-49885"/>
     </g>
    </g>
   </g>
  </g>
 </g>
 <defs>
  <clipPath id="p2a20f78ee4">
   <rect height="543.6" width="1116" x="180" y="86.4"/>
  </clipPath>
 </defs>
</svg>
