<?xml version="1.0" encoding="utf-8" standalone="no"?>
<!DOCTYPE svg PUBLIC "-//W3C//DTD SVG 1.1//EN"
  "http://www.w3.org/Graphics/SVG/1.1/DTD/svg11.dtd">
<!-- Created with matplotlib (https://matplotlib.org/) -->
<svg height="720pt" version="1.1" viewBox="0 0 1440 720" width="1440pt" xmlns="http://www.w3.org/2000/svg" xmlns:xlink="http://www.w3.org/1999/xlink">
 <metadata>
  <rdf:RDF xmlns:cc="http://creativecommons.org/ns#" xmlns:dc="http://purl.org/dc/elements/1.1/" xmlns:rdf="http://www.w3.org/1999/02/22-rdf-syntax-ns#">
   <cc:Work>
    <dc:type rdf:resource="http://purl.org/dc/dcmitype/StillImage"/>
    <dc:date>2020-11-17T11:57:41.801659</dc:date>
    <dc:format>image/svg+xml</dc:format>
    <dc:creator>
     <cc:Agent>
      <dc:title>Matplotlib v3.3.2, https://matplotlib.org/</dc:title>
     </cc:Agent>
    </dc:creator>
   </cc:Work>
  </rdf:RDF>
 </metadata>
 <defs>
  <style type="text/css">*{stroke-linecap:butt;stroke-linejoin:round;}</style>
 </defs>
 <g id="figure_1">
  <g id="patch_1">
   <path d="M 0 720 
L 1440 720 
L 1440 0 
L 0 0 
z
" style="fill:none;"/>
  </g>
  <g id="axes_1">
   <g id="patch_2">
    <path d="M 59.8 299.58143 
L 714.6 299.58143 
L 714.6 32.8 
L 59.8 32.8 
z
" style="fill:#ffffff;"/>
   </g>
   <g id="patch_3">
    <path clip-path="url(#p373e9ed0d1)" d="M 89.563636 299.58143 
L 214.884211 299.58143 
L 214.884211 95.786979 
L 89.563636 95.786979 
z
" style="fill:#2c7ef7;"/>
   </g>
   <g id="patch_4">
    <path clip-path="url(#p373e9ed0d1)" d="M 246.214354 299.58143 
L 371.534928 299.58143 
L 371.534928 55.264715 
L 246.214354 55.264715 
z
" style="fill:#2adddd;"/>
   </g>
   <g id="patch_5">
    <path clip-path="url(#p373e9ed0d1)" d="M 402.865072 299.58143 
L 528.185646 299.58143 
L 528.185646 50.482891 
L 402.865072 50.482891 
z
" style="fill:#80ffb4;"/>
   </g>
   <g id="patch_6">
    <path clip-path="url(#p373e9ed0d1)" d="M 559.515789 299.58143 
L 684.836364 299.58143 
L 684.836364 45.503878 
L 559.515789 45.503878 
z
" style="fill:#d4dd80;"/>
   </g>
   <g id="matplotlib.axis_1">
    <g id="xtick_1">
     <g id="line2d_1">
      <defs>
       <path d="M 0 0 
L 0 3.5 
" id="mcceb136f01" style="stroke:#000000;stroke-width:0.8;"/>
      </defs>
      <g>
       <use style="stroke:#000000;stroke-width:0.8;" x="152.223923" xlink:href="#mcceb136f01" y="299.58143"/>
      </g>
     </g>
     <g id="text_1">
      <!-- temp1 -->
      <g transform="translate(139.48143 323.642353)rotate(-20)scale(0.1 -0.1)">
       <defs>
        <path d="M 31.734375 0.484375 
Q 28.8125 -1.125 24.265625 -1.125 
Q 11.03125 -1.125 11.03125 13.765625 
L 11.03125 44.625 
L 2.15625 44.625 
L 2.15625 51.3125 
L 11.03125 51.3125 
L 11.03125 63.921875 
L 18.75 66.40625 
L 18.75 51.3125 
L 31.734375 51.3125 
L 31.734375 44.625 
L 18.75 44.625 
L 18.75 15.1875 
Q 18.75 9.765625 20.546875 7.609375 
Q 22.359375 5.46875 26.421875 5.46875 
Q 29.5 5.46875 31.734375 7.171875 
z
" id="MalgunGothic-116"/>
        <path d="M 49.3125 23.734375 
L 12.9375 23.734375 
Q 13.1875 14.84375 17.703125 10.125 
Q 22.21875 5.421875 29.828125 5.421875 
Q 38.625 5.421875 45.84375 11.234375 
L 45.84375 3.8125 
Q 38.96875 -1.21875 28.03125 -1.21875 
Q 17.1875 -1.21875 11.0625 5.875 
Q 4.9375 12.984375 4.9375 25.53125 
Q 4.9375 37.203125 11.671875 44.84375 
Q 18.40625 52.484375 28.375 52.484375 
Q 38.328125 52.484375 43.8125 45.96875 
Q 49.3125 39.453125 49.3125 27.9375 
z
M 41.3125 30.5625 
Q 41.3125 37.75 37.859375 41.796875 
Q 34.421875 45.84375 28.265625 45.84375 
Q 22.46875 45.84375 18.265625 41.671875 
Q 14.0625 37.5 13.03125 30.5625 
z
" id="MalgunGothic-101"/>
        <path d="M 80.71875 0 
L 72.953125 0 
L 72.953125 29.4375 
Q 72.953125 38.484375 70.234375 42.21875 
Q 67.53125 45.953125 61.28125 45.953125 
Q 56 45.953125 52.21875 40.984375 
Q 48.4375 36.03125 48.4375 29.296875 
L 48.4375 0 
L 40.71875 0 
L 40.71875 30.515625 
Q 40.71875 45.953125 28.8125 45.953125 
Q 23.390625 45.953125 19.765625 41.28125 
Q 16.15625 36.625 16.15625 29.296875 
L 16.15625 0 
L 8.40625 0 
L 8.40625 51.3125 
L 16.15625 51.3125 
L 16.15625 43.171875 
L 16.359375 43.171875 
Q 21.734375 52.484375 32.234375 52.484375 
Q 37.203125 52.484375 41.1875 49.625 
Q 45.171875 46.78125 46.734375 41.796875 
Q 52.4375 52.484375 63.765625 52.484375 
Q 80.71875 52.484375 80.71875 31.59375 
z
" id="MalgunGothic-109"/>
        <path d="M 16.15625 7.515625 
L 16.15625 -23.640625 
L 8.40625 -23.640625 
L 8.40625 51.3125 
L 16.15625 51.3125 
L 16.15625 42.234375 
L 16.359375 42.234375 
Q 22.46875 52.484375 34.125 52.484375 
Q 43.890625 52.484375 49.546875 45.625 
Q 55.21875 38.765625 55.21875 27.15625 
Q 55.21875 14.15625 48.84375 6.46875 
Q 42.484375 -1.21875 31.78125 -1.21875 
Q 21.78125 -1.21875 16.359375 7.515625 
z
M 16.15625 20.796875 
Q 16.15625 14.40625 20.421875 9.890625 
Q 24.703125 5.375 31.109375 5.375 
Q 38.671875 5.375 42.984375 11.1875 
Q 47.3125 17 47.3125 27.390625 
Q 47.3125 35.9375 43.234375 40.9375 
Q 39.15625 45.953125 32.375 45.953125 
Q 25.296875 45.953125 20.71875 40.921875 
Q 16.15625 35.890625 16.15625 28.21875 
z
" id="MalgunGothic-112"/>
        <path d="M 34.859375 0 
L 27.09375 0 
L 27.09375 62.0625 
Q 24.859375 59.8125 19.78125 57.203125 
Q 14.703125 54.59375 10.5 53.5625 
L 10.5 61.859375 
Q 15.875 63.375 22.015625 66.796875 
Q 28.171875 70.21875 31.734375 73.4375 
L 34.859375 73.4375 
z
" id="MalgunGothic-49"/>
       </defs>
       <use xlink:href="#MalgunGothic-116"/>
       <use x="33.597656" xlink:href="#MalgunGothic-101"/>
       <use x="87.113281" xlink:href="#MalgunGothic-109"/>
       <use x="175.101562" xlink:href="#MalgunGothic-112"/>
       <use x="235.160156" xlink:href="#MalgunGothic-49"/>
      </g>
     </g>
    </g>
    <g id="xtick_2">
     <g id="line2d_2">
      <g>
       <use style="stroke:#000000;stroke-width:0.8;" x="308.874641" xlink:href="#mcceb136f01" y="299.58143"/>
      </g>
     </g>
     <g id="text_2">
      <!-- temp2 -->
      <g transform="translate(296.132148 323.642353)rotate(-20)scale(0.1 -0.1)">
       <defs>
        <path d="M 39.359375 52.6875 
Q 39.359375 59.125 35.546875 62.78125 
Q 31.734375 66.453125 25.4375 66.453125 
Q 20.953125 66.453125 16.453125 64.125 
Q 11.96875 61.8125 8.34375 57.765625 
L 8.34375 66.15625 
Q 15.328125 73.046875 26.421875 73.046875 
Q 35.640625 73.046875 41.28125 67.71875 
Q 46.921875 62.40625 46.921875 53.375 
Q 46.921875 45.609375 43.3125 39.765625 
Q 39.703125 33.9375 31 27.734375 
Q 22.796875 21.96875 19.59375 18.984375 
Q 16.40625 16.015625 15.109375 13.34375 
Q 13.8125 10.6875 13.8125 7.03125 
L 48.6875 7.03125 
L 48.6875 0 
L 5.5625 0 
L 5.5625 3.515625 
Q 5.5625 9.421875 7.203125 13.59375 
Q 8.84375 17.78125 12.671875 21.75 
Q 16.5 25.734375 24.953125 31.59375 
Q 32.671875 36.921875 36.015625 41.71875 
Q 39.359375 46.53125 39.359375 52.6875 
z
" id="MalgunGothic-50"/>
       </defs>
       <use xlink:href="#MalgunGothic-116"/>
       <use x="33.597656" xlink:href="#MalgunGothic-101"/>
       <use x="87.113281" xlink:href="#MalgunGothic-109"/>
       <use x="175.101562" xlink:href="#MalgunGothic-112"/>
       <use x="235.160156" xlink:href="#MalgunGothic-50"/>
      </g>
     </g>
    </g>
    <g id="xtick_3">
     <g id="line2d_3">
      <g>
       <use style="stroke:#000000;stroke-width:0.8;" x="465.525359" xlink:href="#mcceb136f01" y="299.58143"/>
      </g>
     </g>
     <g id="text_3">
      <!-- temp3 -->
      <g transform="translate(452.782866 323.642353)rotate(-20)scale(0.1 -0.1)">
       <defs>
        <path d="M 6.5 11.234375 
Q 13.921875 5.375 23.09375 5.375 
Q 30.609375 5.375 35.21875 9.171875 
Q 39.84375 12.984375 39.84375 19.484375 
Q 39.84375 33.890625 19.578125 33.890625 
L 13.625 33.890625 
L 13.625 40.484375 
L 19.28125 40.484375 
Q 37.3125 40.484375 37.3125 53.953125 
Q 37.3125 66.40625 23.578125 66.40625 
Q 15.96875 66.40625 9.28125 61.1875 
L 9.28125 68.953125 
Q 16.109375 73.046875 25.53125 73.046875 
Q 34.125 73.046875 39.671875 68.3125 
Q 45.21875 63.578125 45.21875 55.953125 
Q 45.21875 41.84375 30.8125 37.640625 
L 30.8125 37.5 
Q 38.578125 36.8125 43.1875 32.078125 
Q 47.796875 27.34375 47.796875 20.3125 
Q 47.796875 10.5 40.6875 4.640625 
Q 33.59375 -1.21875 22.65625 -1.21875 
Q 12.59375 -1.21875 6.5 2.640625 
z
" id="MalgunGothic-51"/>
       </defs>
       <use xlink:href="#MalgunGothic-116"/>
       <use x="33.597656" xlink:href="#MalgunGothic-101"/>
       <use x="87.113281" xlink:href="#MalgunGothic-109"/>
       <use x="175.101562" xlink:href="#MalgunGothic-112"/>
       <use x="235.160156" xlink:href="#MalgunGothic-51"/>
      </g>
     </g>
    </g>
    <g id="xtick_4">
     <g id="line2d_4">
      <g>
       <use style="stroke:#000000;stroke-width:0.8;" x="622.176077" xlink:href="#mcceb136f01" y="299.58143"/>
      </g>
     </g>
     <g id="text_4">
      <!-- temp4 -->
      <g transform="translate(609.433584 323.642353)rotate(-20)scale(0.1 -0.1)">
       <defs>
        <path d="M 42.234375 71.875 
L 42.234375 24.421875 
L 51.703125 24.421875 
L 51.703125 17.390625 
L 42.234375 17.390625 
L 42.234375 0 
L 34.578125 0 
L 34.578125 17.390625 
L 0.78125 17.390625 
L 0.78125 23.96875 
Q 11.375 35.890625 20.234375 48.578125 
Q 29.109375 61.28125 33.9375 71.875 
z
M 9.765625 24.421875 
L 34.578125 24.421875 
L 34.578125 59.859375 
Q 25.203125 43.5625 14.984375 30.953125 
z
" id="MalgunGothic-52"/>
       </defs>
       <use xlink:href="#MalgunGothic-116"/>
       <use x="33.597656" xlink:href="#MalgunGothic-101"/>
       <use x="87.113281" xlink:href="#MalgunGothic-109"/>
       <use x="175.101562" xlink:href="#MalgunGothic-112"/>
       <use x="235.160156" xlink:href="#MalgunGothic-52"/>
      </g>
     </g>
    </g>
    <g id="text_5">
     <!-- 평균기온 구간 -->
     <g transform="translate(339.563281 341.252126)scale(0.15 -0.15)">
      <defs>
       <path d="M 60.6875 46.78125 
L 60.6875 52.984375 
L 77.296875 52.984375 
L 77.296875 62.015625 
L 60.6875 62.015625 
L 60.6875 68.21875 
L 77.296875 68.21875 
L 77.296875 85.40625 
L 84.625 85.40625 
L 84.625 29.390625 
L 77.296875 29.390625 
L 77.296875 46.78125 
z
M 12.40625 74.21875 
L 12.40625 80.609375 
L 63.375 80.609375 
L 63.375 74.21875 
z
M 67.28125 35.109375 
Q 61.140625 33.890625 50.484375 33.890625 
L 10.109375 33.890625 
L 10.109375 40.28125 
L 22.90625 40.28125 
L 21.78125 69.921875 
L 28.90625 69.921875 
L 29.78125 40.28125 
L 45.3125 40.28125 
L 46.1875 69.921875 
L 53.328125 69.921875 
L 52.09375 40.375 
Q 60.890625 40.375 66.796875 41.40625 
z
M 55.421875 -8.40625 
Q 40.53125 -8.40625 32.515625 -3.546875 
Q 24.515625 1.3125 24.515625 9.28125 
Q 24.515625 17.1875 32.4375 22.046875 
Q 40.375 26.90625 55.421875 26.90625 
Q 70.40625 26.90625 78.390625 22.046875 
Q 86.375 17.1875 86.375 9.28125 
Q 86.375 1.3125 78.3125 -3.546875 
Q 70.265625 -8.40625 55.421875 -8.40625 
z
M 55.421875 20.703125 
Q 44.28125 20.703125 38.296875 17.625 
Q 32.328125 14.546875 32.328125 9.28125 
Q 32.328125 4.046875 38.328125 0.96875 
Q 44.34375 -2.09375 55.421875 -2.09375 
Q 66.5 -2.09375 72.609375 0.96875 
Q 78.71875 4.046875 78.71875 9.28125 
Q 78.71875 14.546875 72.625 17.625 
Q 66.546875 20.703125 55.421875 20.703125 
z
" id="MalgunGothic-54217"/>
       <path d="M 36.625 12.984375 
L 36.625 39.015625 
L 6.296875 39.015625 
L 6.296875 45.609375 
L 71.390625 45.609375 
Q 72.21875 53.71875 72.21875 74.8125 
L 20.90625 74.8125 
L 20.90625 81.296875 
L 79.5 81.296875 
Q 79.5 56.984375 78.515625 45.609375 
L 93.703125 45.609375 
L 93.703125 39.015625 
L 68.21875 39.015625 
L 68.21875 12.984375 
L 60.984375 12.984375 
L 60.984375 39.015625 
L 43.796875 39.015625 
L 43.796875 12.984375 
z
M 20.515625 -4.6875 
L 20.515625 25.59375 
L 27.6875 25.59375 
L 27.6875 1.8125 
L 81.390625 1.8125 
L 81.390625 -4.6875 
z
" id="MalgunGothic-44512"/>
       <path d="M 76.3125 -8.796875 
L 76.3125 85.40625 
L 83.59375 85.40625 
L 83.59375 -8.796875 
z
M 57.421875 76.703125 
Q 57.078125 57.125 46.1875 40.796875 
Q 35.296875 24.46875 14.984375 13.1875 
L 9.421875 19.09375 
Q 24.359375 25.296875 35.828125 38.71875 
Q 47.3125 52.15625 49.609375 70.21875 
L 13.28125 70.21875 
L 13.28125 76.703125 
z
" id="MalgunGothic-44592"/>
       <path d="M 6.296875 29.109375 
L 6.296875 35.59375 
L 46.296875 35.59375 
L 46.296875 46.484375 
Q 33.59375 47.125 26.859375 52.078125 
Q 20.125 57.03125 20.125 64.703125 
Q 20.125 73.1875 27.984375 78.140625 
Q 35.84375 83.109375 50 83.109375 
Q 64.15625 83.109375 72.015625 78.140625 
Q 79.890625 73.1875 79.890625 64.703125 
Q 79.890625 57.03125 73.140625 52.078125 
Q 66.40625 47.125 53.71875 46.484375 
L 53.71875 35.59375 
L 93.703125 35.59375 
L 93.703125 29.109375 
z
M 50 76.90625 
Q 39.40625 76.90625 33.546875 73.65625 
Q 27.6875 70.40625 27.6875 64.703125 
Q 27.6875 59.078125 33.515625 55.828125 
Q 39.359375 52.59375 50 52.59375 
Q 60.640625 52.59375 66.46875 55.828125 
Q 72.3125 59.078125 72.3125 64.703125 
Q 72.3125 70.40625 66.453125 73.65625 
Q 60.59375 76.90625 50 76.90625 
z
M 20.609375 -5.609375 
L 20.609375 20.796875 
L 27.875 20.796875 
L 27.875 0.875 
L 81.296875 0.875 
L 81.296875 -5.609375 
z
" id="MalgunGothic-50728"/>
       <path id="MalgunGothic-32"/>
       <path d="M 45.515625 -8.796875 
L 45.515625 34.8125 
L 6.296875 34.8125 
L 6.296875 41.40625 
L 71.78125 41.40625 
Q 72.90625 52.984375 72.90625 74.8125 
L 20.515625 74.8125 
L 20.515625 81.296875 
L 80.171875 81.296875 
Q 80.171875 57.125 78.8125 41.40625 
L 93.703125 41.40625 
L 93.703125 34.8125 
L 52.78125 34.8125 
L 52.78125 -8.796875 
z
" id="MalgunGothic-44396"/>
       <path d="M 80.078125 48.78125 
L 80.078125 16.609375 
L 72.796875 16.609375 
L 72.796875 85.40625 
L 80.078125 85.40625 
L 80.078125 55.328125 
L 94.28125 55.328125 
L 94.28125 48.78125 
z
M 54.890625 79.6875 
Q 53.171875 60.5 39.9375 47.046875 
Q 26.703125 33.59375 12.40625 28.125 
L 7.328125 33.796875 
Q 21 38.28125 32.609375 49.5625 
Q 44.234375 60.84375 46.296875 73.09375 
L 12.984375 73.09375 
L 12.984375 79.6875 
z
M 22.796875 -5.078125 
L 22.796875 23.578125 
L 30.078125 23.578125 
L 30.078125 1.515625 
L 82.71875 1.515625 
L 82.71875 -5.078125 
z
" id="MalgunGothic-44036"/>
      </defs>
      <use xlink:href="#MalgunGothic-54217"/>
      <use x="100" xlink:href="#MalgunGothic-44512"/>
      <use x="200" xlink:href="#MalgunGothic-44592"/>
      <use x="300" xlink:href="#MalgunGothic-50728"/>
      <use x="400" xlink:href="#MalgunGothic-32"/>
      <use x="435.15625" xlink:href="#MalgunGothic-44396"/>
      <use x="535.15625" xlink:href="#MalgunGothic-44036"/>
     </g>
    </g>
   </g>
   <g id="matplotlib.axis_2">
    <g id="ytick_1">
     <g id="line2d_5">
      <defs>
       <path d="M 0 0 
L -3.5 0 
" id="mf3ef37f14a" style="stroke:#000000;stroke-width:0.8;"/>
      </defs>
      <g>
       <use style="stroke:#000000;stroke-width:0.8;" x="59.8" xlink:href="#mf3ef37f14a" y="299.58143"/>
      </g>
     </g>
     <g id="text_6">
      <!-- 0 -->
      <g transform="translate(47.292187 303.377523)scale(0.1 -0.1)">
       <defs>
        <path d="M 4.34375 34.46875 
Q 4.34375 53.515625 10.546875 63.28125 
Q 16.75 73.046875 28.421875 73.046875 
Q 50.828125 73.046875 50.828125 36.234375 
Q 50.828125 18.0625 44.59375 8.421875 
Q 38.375 -1.21875 26.8125 -1.21875 
Q 15.875 -1.21875 10.109375 8.125 
Q 4.34375 17.484375 4.34375 34.46875 
z
M 12.25 34.859375 
Q 12.25 5.375 27.640625 5.375 
Q 42.921875 5.375 42.921875 35.296875 
Q 42.921875 66.40625 28.03125 66.40625 
Q 12.25 66.40625 12.25 34.859375 
z
" id="MalgunGothic-48"/>
       </defs>
       <use xlink:href="#MalgunGothic-48"/>
      </g>
     </g>
    </g>
    <g id="ytick_2">
     <g id="line2d_6">
      <g>
       <use style="stroke:#000000;stroke-width:0.8;" x="59.8" xlink:href="#mf3ef37f14a" y="250.284272"/>
      </g>
     </g>
     <g id="text_7">
      <!-- 1000 -->
      <g transform="translate(30.76875 254.080366)scale(0.1 -0.1)">
       <use xlink:href="#MalgunGothic-49"/>
       <use x="55.078125" xlink:href="#MalgunGothic-48"/>
       <use x="110.15625" xlink:href="#MalgunGothic-48"/>
       <use x="165.234375" xlink:href="#MalgunGothic-48"/>
      </g>
     </g>
    </g>
    <g id="ytick_3">
     <g id="line2d_7">
      <g>
       <use style="stroke:#000000;stroke-width:0.8;" x="59.8" xlink:href="#mf3ef37f14a" y="200.987114"/>
      </g>
     </g>
     <g id="text_8">
      <!-- 2000 -->
      <g transform="translate(30.76875 204.783208)scale(0.1 -0.1)">
       <use xlink:href="#MalgunGothic-50"/>
       <use x="55.078125" xlink:href="#MalgunGothic-48"/>
       <use x="110.15625" xlink:href="#MalgunGothic-48"/>
       <use x="165.234375" xlink:href="#MalgunGothic-48"/>
      </g>
     </g>
    </g>
    <g id="ytick_4">
     <g id="line2d_8">
      <g>
       <use style="stroke:#000000;stroke-width:0.8;" x="59.8" xlink:href="#mf3ef37f14a" y="151.689956"/>
      </g>
     </g>
     <g id="text_9">
      <!-- 3000 -->
      <g transform="translate(30.76875 155.48605)scale(0.1 -0.1)">
       <use xlink:href="#MalgunGothic-51"/>
       <use x="55.078125" xlink:href="#MalgunGothic-48"/>
       <use x="110.15625" xlink:href="#MalgunGothic-48"/>
       <use x="165.234375" xlink:href="#MalgunGothic-48"/>
      </g>
     </g>
    </g>
    <g id="ytick_5">
     <g id="line2d_9">
      <g>
       <use style="stroke:#000000;stroke-width:0.8;" x="59.8" xlink:href="#mf3ef37f14a" y="102.392798"/>
      </g>
     </g>
     <g id="text_10">
      <!-- 4000 -->
      <g transform="translate(30.76875 106.188892)scale(0.1 -0.1)">
       <use xlink:href="#MalgunGothic-52"/>
       <use x="55.078125" xlink:href="#MalgunGothic-48"/>
       <use x="110.15625" xlink:href="#MalgunGothic-48"/>
       <use x="165.234375" xlink:href="#MalgunGothic-48"/>
      </g>
     </g>
    </g>
    <g id="ytick_6">
     <g id="line2d_10">
      <g>
       <use style="stroke:#000000;stroke-width:0.8;" x="59.8" xlink:href="#mf3ef37f14a" y="53.09564"/>
      </g>
     </g>
     <g id="text_11">
      <!-- 5000 -->
      <g transform="translate(30.76875 56.891734)scale(0.1 -0.1)">
       <defs>
        <path d="M 48 21.921875 
Q 48 11.28125 41.1875 5.03125 
Q 34.375 -1.21875 22.953125 -1.21875 
Q 12.9375 -1.21875 8.0625 1.765625 
L 8.0625 10.15625 
Q 15.53125 5.375 23.046875 5.375 
Q 30.765625 5.375 35.46875 9.84375 
Q 40.1875 14.3125 40.1875 21.4375 
Q 40.1875 28.71875 35.390625 32.6875 
Q 30.609375 36.671875 21.578125 36.671875 
Q 15.53125 36.671875 9.421875 35.9375 
L 11.859375 71.875 
L 44.828125 71.875 
L 44.828125 64.796875 
L 18.84375 64.796875 
L 17.28125 43.171875 
Q 21.046875 43.5 24.171875 43.5 
Q 35.359375 43.5 41.671875 37.71875 
Q 48 31.9375 48 21.921875 
z
" id="MalgunGothic-53"/>
       </defs>
       <use xlink:href="#MalgunGothic-53"/>
       <use x="55.078125" xlink:href="#MalgunGothic-48"/>
       <use x="110.15625" xlink:href="#MalgunGothic-48"/>
       <use x="165.234375" xlink:href="#MalgunGothic-48"/>
      </g>
     </g>
    </g>
    <g id="text_12">
     <!-- 드라마 -->
     <g transform="translate(23.222656 188.690715)rotate(-90)scale(0.15 -0.15)">
      <defs>
       <path d="M 78.90625 70.125 
L 28.421875 70.125 
L 28.421875 40.828125 
L 80.421875 40.828125 
L 80.421875 34.28125 
L 21.09375 34.28125 
L 21.09375 76.609375 
L 78.90625 76.609375 
z
M 6.296875 7.515625 
L 6.296875 14.015625 
L 93.703125 14.015625 
L 93.703125 7.515625 
z
" id="MalgunGothic-46300"/>
       <path d="M 79.59375 39.109375 
L 79.59375 -8.796875 
L 72.3125 -8.796875 
L 72.3125 85.40625 
L 79.59375 85.40625 
L 79.59375 45.703125 
L 95.90625 45.703125 
L 95.90625 39.109375 
z
M 12.59375 12.40625 
L 12.59375 49.515625 
L 46.921875 49.515625 
L 46.921875 70.40625 
L 12.59375 70.40625 
L 12.59375 76.90625 
L 54.203125 76.90625 
L 54.203125 43.109375 
L 19.921875 43.109375 
L 19.921875 18.796875 
Q 53.421875 18.796875 63.484375 20.90625 
L 64.5 14.5 
Q 51.3125 12.40625 12.59375 12.40625 
z
" id="MalgunGothic-46972"/>
       <path d="M 79.59375 41.109375 
L 79.59375 -8.796875 
L 72.3125 -8.796875 
L 72.3125 85.40625 
L 79.59375 85.40625 
L 79.59375 47.609375 
L 95.90625 47.609375 
L 95.90625 41.109375 
z
M 12.5 18.890625 
L 12.5 77.09375 
L 56.984375 77.09375 
L 56.984375 18.890625 
z
M 49.8125 70.703125 
L 19.828125 70.703125 
L 19.828125 25.296875 
L 49.8125 25.296875 
z
" id="MalgunGothic-47560"/>
      </defs>
      <use xlink:href="#MalgunGothic-46300"/>
      <use x="100" xlink:href="#MalgunGothic-46972"/>
      <use x="200" xlink:href="#MalgunGothic-47560"/>
     </g>
    </g>
   </g>
   <g id="patch_7">
    <path d="M 59.8 299.58143 
L 59.8 32.8 
" style="fill:none;stroke:#000000;stroke-linecap:square;stroke-linejoin:miter;stroke-width:0.8;"/>
   </g>
   <g id="patch_8">
    <path d="M 714.6 299.58143 
L 714.6 32.8 
" style="fill:none;stroke:#000000;stroke-linecap:square;stroke-linejoin:miter;stroke-width:0.8;"/>
   </g>
   <g id="patch_9">
    <path d="M 59.8 299.58143 
L 714.6 299.58143 
" style="fill:none;stroke:#000000;stroke-linecap:square;stroke-linejoin:miter;stroke-width:0.8;"/>
   </g>
   <g id="patch_10">
    <path d="M 59.8 32.8 
L 714.6 32.8 
" style="fill:none;stroke:#000000;stroke-linecap:square;stroke-linejoin:miter;stroke-width:0.8;"/>
   </g>
   <g id="text_13">
    <!-- 기온과 드라마 장르 -->
    <g transform="translate(300.16875 26.8)scale(0.2 -0.2)">
     <defs>
      <path d="M 96.6875 41.609375 
L 81.296875 41.609375 
L 81.296875 -8.796875 
L 73.875 -8.796875 
L 73.875 85.40625 
L 81.203125 85.40625 
L 81.203125 48.09375 
L 96.6875 48.09375 
z
M 59.8125 76.515625 
Q 59.8125 49.125 58.015625 28.125 
L 50.875 28.609375 
Q 51.46875 33.796875 51.96875 48.078125 
Q 52.484375 62.359375 52.484375 70.015625 
L 12.5 70.015625 
L 12.5 76.515625 
z
M 67.484375 10.40625 
Q 42 8.984375 4.390625 8.984375 
L 3.71875 15.375 
Q 8.734375 15.375 27.296875 15.625 
L 27.296875 48.1875 
L 34.625 48.1875 
L 34.625 15.71875 
L 67 16.703125 
z
" id="MalgunGothic-44284"/>
      <path d="M 80.078125 52.984375 
L 80.078125 31.109375 
L 72.796875 31.109375 
L 72.796875 85.40625 
L 80.078125 85.40625 
L 80.078125 59.625 
L 94.28125 59.625 
L 94.28125 52.984375 
z
M 56.296875 36.1875 
Q 50.09375 39.5 43.40625 45.9375 
Q 36.71875 52.390625 34.1875 57.71875 
Q 31.5 51.5625 25 44.578125 
Q 18.5 37.59375 11.71875 33.796875 
L 6.390625 38.8125 
Q 16.75 43.84375 23.625 53.078125 
Q 30.515625 62.3125 30.515625 72.3125 
L 30.515625 74.703125 
L 9.71875 74.703125 
L 9.71875 81.203125 
L 58.296875 81.203125 
L 58.296875 74.703125 
L 37.5 74.703125 
L 37.5 72.3125 
Q 37.5 62.890625 44.453125 54.25 
Q 51.421875 45.609375 61.078125 41.5 
z
M 50.984375 -8.015625 
Q 36.28125 -8.015625 28.296875 -2.90625 
Q 20.3125 2.203125 20.3125 10.296875 
Q 20.3125 18.359375 28.3125 23.4375 
Q 36.328125 28.515625 50.984375 28.515625 
Q 65.671875 28.515625 73.671875 23.453125 
Q 81.6875 18.40625 81.6875 10.296875 
Q 81.6875 2.15625 73.703125 -2.921875 
Q 65.71875 -8.015625 50.984375 -8.015625 
z
M 50.984375 22.3125 
Q 40.046875 22.3125 34.0625 18.984375 
Q 28.078125 15.671875 28.078125 10.296875 
Q 28.078125 4.828125 34.078125 1.5 
Q 40.09375 -1.8125 50.984375 -1.8125 
Q 62.015625 -1.8125 68.015625 1.53125 
Q 74.03125 4.890625 74.03125 10.296875 
Q 74.03125 15.625 68.015625 18.96875 
Q 62.015625 22.3125 50.984375 22.3125 
z
" id="MalgunGothic-51109"/>
      <path d="M 20.21875 28.859375 
L 20.21875 56.734375 
L 72.609375 56.734375 
L 72.609375 70.75 
L 20.3125 70.75 
L 20.3125 77.25 
L 79.890625 77.25 
L 79.890625 50.4375 
L 27.484375 50.4375 
L 27.484375 35.359375 
L 82.625 35.359375 
L 82.625 28.859375 
z
M 6.296875 5.71875 
L 6.296875 12.203125 
L 93.703125 12.203125 
L 93.703125 5.71875 
z
" id="MalgunGothic-47476"/>
     </defs>
     <use xlink:href="#MalgunGothic-44592"/>
     <use x="100" xlink:href="#MalgunGothic-50728"/>
     <use x="200" xlink:href="#MalgunGothic-44284"/>
     <use x="300" xlink:href="#MalgunGothic-32"/>
     <use x="335.15625" xlink:href="#MalgunGothic-46300"/>
     <use x="435.15625" xlink:href="#MalgunGothic-46972"/>
     <use x="535.15625" xlink:href="#MalgunGothic-47560"/>
     <use x="635.15625" xlink:href="#MalgunGothic-32"/>
     <use x="670.3125" xlink:href="#MalgunGothic-51109"/>
     <use x="770.3125" xlink:href="#MalgunGothic-47476"/>
    </g>
   </g>
  </g>
  <g id="axes_2">
   <g id="patch_11">
    <path d="M 774.4 299.58143 
L 1429.2 299.58143 
L 1429.2 32.8 
L 774.4 32.8 
z
" style="fill:#ffffff;"/>
   </g>
   <g id="patch_12">
    <path clip-path="url(#p54547cec81)" d="M 804.163636 299.58143 
L 929.484211 299.58143 
L 929.484211 130.972678 
L 804.163636 130.972678 
z
" style="fill:#2c7ef7;"/>
   </g>
   <g id="patch_13">
    <path clip-path="url(#p54547cec81)" d="M 960.814354 299.58143 
L 1086.134928 299.58143 
L 1086.134928 134.931724 
L 960.814354 134.931724 
z
" style="fill:#2adddd;"/>
   </g>
   <g id="patch_14">
    <path clip-path="url(#p54547cec81)" d="M 1117.465072 299.58143 
L 1242.785646 299.58143 
L 1242.785646 103.259362 
L 1117.465072 103.259362 
z
" style="fill:#80ffb4;"/>
   </g>
   <g id="patch_15">
    <path clip-path="url(#p54547cec81)" d="M 1274.115789 299.58143 
L 1399.436364 299.58143 
L 1399.436364 45.503878 
L 1274.115789 45.503878 
z
" style="fill:#d4dd80;"/>
   </g>
   <g id="matplotlib.axis_3">
    <g id="xtick_5">
     <g id="line2d_11">
      <g>
       <use style="stroke:#000000;stroke-width:0.8;" x="866.823923" xlink:href="#mcceb136f01" y="299.58143"/>
      </g>
     </g>
     <g id="text_14">
      <!-- temp1 -->
      <g transform="translate(854.08143 323.642353)rotate(-20)scale(0.1 -0.1)">
       <use xlink:href="#MalgunGothic-116"/>
       <use x="33.597656" xlink:href="#MalgunGothic-101"/>
       <use x="87.113281" xlink:href="#MalgunGothic-109"/>
       <use x="175.101562" xlink:href="#MalgunGothic-112"/>
       <use x="235.160156" xlink:href="#MalgunGothic-49"/>
      </g>
     </g>
    </g>
    <g id="xtick_6">
     <g id="line2d_12">
      <g>
       <use style="stroke:#000000;stroke-width:0.8;" x="1023.474641" xlink:href="#mcceb136f01" y="299.58143"/>
      </g>
     </g>
     <g id="text_15">
      <!-- temp2 -->
      <g transform="translate(1010.732148 323.642353)rotate(-20)scale(0.1 -0.1)">
       <use xlink:href="#MalgunGothic-116"/>
       <use x="33.597656" xlink:href="#MalgunGothic-101"/>
       <use x="87.113281" xlink:href="#MalgunGothic-109"/>
       <use x="175.101562" xlink:href="#MalgunGothic-112"/>
       <use x="235.160156" xlink:href="#MalgunGothic-50"/>
      </g>
     </g>
    </g>
    <g id="xtick_7">
     <g id="line2d_13">
      <g>
       <use style="stroke:#000000;stroke-width:0.8;" x="1180.125359" xlink:href="#mcceb136f01" y="299.58143"/>
      </g>
     </g>
     <g id="text_16">
      <!-- temp3 -->
      <g transform="translate(1167.382866 323.642353)rotate(-20)scale(0.1 -0.1)">
       <use xlink:href="#MalgunGothic-116"/>
       <use x="33.597656" xlink:href="#MalgunGothic-101"/>
       <use x="87.113281" xlink:href="#MalgunGothic-109"/>
       <use x="175.101562" xlink:href="#MalgunGothic-112"/>
       <use x="235.160156" xlink:href="#MalgunGothic-51"/>
      </g>
     </g>
    </g>
    <g id="xtick_8">
     <g id="line2d_14">
      <g>
       <use style="stroke:#000000;stroke-width:0.8;" x="1336.776077" xlink:href="#mcceb136f01" y="299.58143"/>
      </g>
     </g>
     <g id="text_17">
      <!-- temp4 -->
      <g transform="translate(1324.033584 323.642353)rotate(-20)scale(0.1 -0.1)">
       <use xlink:href="#MalgunGothic-116"/>
       <use x="33.597656" xlink:href="#MalgunGothic-101"/>
       <use x="87.113281" xlink:href="#MalgunGothic-109"/>
       <use x="175.101562" xlink:href="#MalgunGothic-112"/>
       <use x="235.160156" xlink:href="#MalgunGothic-52"/>
      </g>
     </g>
    </g>
    <g id="text_18">
     <!-- 평균기온 구간 -->
     <g transform="translate(1054.163281 341.252126)scale(0.15 -0.15)">
      <use xlink:href="#MalgunGothic-54217"/>
      <use x="100" xlink:href="#MalgunGothic-44512"/>
      <use x="200" xlink:href="#MalgunGothic-44592"/>
      <use x="300" xlink:href="#MalgunGothic-50728"/>
      <use x="400" xlink:href="#MalgunGothic-32"/>
      <use x="435.15625" xlink:href="#MalgunGothic-44396"/>
      <use x="535.15625" xlink:href="#MalgunGothic-44036"/>
     </g>
    </g>
   </g>
   <g id="matplotlib.axis_4">
    <g id="ytick_7">
     <g id="line2d_15">
      <g>
       <use style="stroke:#000000;stroke-width:0.8;" x="774.4" xlink:href="#mf3ef37f14a" y="299.58143"/>
      </g>
     </g>
     <g id="text_19">
      <!-- 0 -->
      <g transform="translate(761.892187 303.377523)scale(0.1 -0.1)">
       <use xlink:href="#MalgunGothic-48"/>
      </g>
     </g>
    </g>
    <g id="ytick_8">
     <g id="line2d_16">
      <g>
       <use style="stroke:#000000;stroke-width:0.8;" x="774.4" xlink:href="#mf3ef37f14a" y="253.004427"/>
      </g>
     </g>
     <g id="text_20">
      <!-- 200 -->
      <g transform="translate(750.876562 256.80052)scale(0.1 -0.1)">
       <use xlink:href="#MalgunGothic-50"/>
       <use x="55.078125" xlink:href="#MalgunGothic-48"/>
       <use x="110.15625" xlink:href="#MalgunGothic-48"/>
      </g>
     </g>
    </g>
    <g id="ytick_9">
     <g id="line2d_17">
      <g>
       <use style="stroke:#000000;stroke-width:0.8;" x="774.4" xlink:href="#mf3ef37f14a" y="206.427423"/>
      </g>
     </g>
     <g id="text_21">
      <!-- 400 -->
      <g transform="translate(750.876562 210.223517)scale(0.1 -0.1)">
       <use xlink:href="#MalgunGothic-52"/>
       <use x="55.078125" xlink:href="#MalgunGothic-48"/>
       <use x="110.15625" xlink:href="#MalgunGothic-48"/>
      </g>
     </g>
    </g>
    <g id="ytick_10">
     <g id="line2d_18">
      <g>
       <use style="stroke:#000000;stroke-width:0.8;" x="774.4" xlink:href="#mf3ef37f14a" y="159.85042"/>
      </g>
     </g>
     <g id="text_22">
      <!-- 600 -->
      <g transform="translate(750.876562 163.646514)scale(0.1 -0.1)">
       <defs>
        <path d="M 46.578125 63.578125 
Q 40.921875 66.40625 34.8125 66.40625 
Q 24.859375 66.40625 19.1875 57.640625 
Q 13.53125 48.875 13.578125 34.578125 
L 13.8125 34.578125 
Q 18.796875 44.875 30.28125 44.875 
Q 39.796875 44.875 45.359375 38.71875 
Q 50.921875 32.5625 50.921875 22.65625 
Q 50.921875 12.453125 44.640625 5.609375 
Q 38.375 -1.21875 28.515625 -1.21875 
Q 17.4375 -1.21875 11.5 7.46875 
Q 5.5625 16.15625 5.5625 31.546875 
Q 5.5625 49.703125 13.234375 61.375 
Q 20.90625 73.046875 34.71875 73.046875 
Q 42.1875 73.046875 46.578125 71 
z
M 14.15625 23.53125 
Q 14.15625 15.96875 18.203125 10.671875 
Q 22.265625 5.375 28.8125 5.375 
Q 35.109375 5.375 39.03125 10.078125 
Q 42.96875 14.796875 42.96875 21.6875 
Q 42.96875 29.5 39.203125 33.859375 
Q 35.453125 38.234375 28.71875 38.234375 
Q 22.5625 38.234375 18.359375 33.953125 
Q 14.15625 29.6875 14.15625 23.53125 
z
" id="MalgunGothic-54"/>
       </defs>
       <use xlink:href="#MalgunGothic-54"/>
       <use x="55.078125" xlink:href="#MalgunGothic-48"/>
       <use x="110.15625" xlink:href="#MalgunGothic-48"/>
      </g>
     </g>
    </g>
    <g id="ytick_11">
     <g id="line2d_19">
      <g>
       <use style="stroke:#000000;stroke-width:0.8;" x="774.4" xlink:href="#mf3ef37f14a" y="113.273417"/>
      </g>
     </g>
     <g id="text_23">
      <!-- 800 -->
      <g transform="translate(750.876562 117.069511)scale(0.1 -0.1)">
       <defs>
        <path d="M 4.734375 20.015625 
Q 4.734375 26.078125 8.421875 31.421875 
Q 12.109375 36.765625 18.015625 38.96875 
Q 13.375 41.359375 10.546875 45.546875 
Q 7.71875 49.75 7.71875 54.6875 
Q 7.71875 59.8125 10.296875 64.03125 
Q 12.890625 68.265625 17.53125 70.65625 
Q 22.171875 73.046875 27.78125 73.046875 
Q 36.46875 73.046875 42.1875 67.84375 
Q 47.90625 62.640625 47.90625 54.6875 
Q 47.90625 49.703125 45.015625 45.53125 
Q 42.140625 41.359375 37.703125 38.96875 
Q 43.5625 36.71875 47.21875 31.390625 
Q 50.875 26.078125 50.875 20.015625 
Q 50.875 10.5 44.421875 4.640625 
Q 37.984375 -1.21875 27.78125 -1.21875 
Q 17.671875 -1.21875 11.203125 4.703125 
Q 4.734375 10.640625 4.734375 20.015625 
z
M 12.640625 20.75 
Q 12.640625 13.71875 16.890625 9.546875 
Q 21.140625 5.375 27.828125 5.375 
Q 34.46875 5.375 38.78125 9.671875 
Q 43.109375 13.96875 43.109375 20.75 
Q 43.109375 27.046875 38.78125 31.421875 
Q 34.46875 35.796875 27.828125 35.796875 
Q 21.4375 35.796875 17.03125 31.5625 
Q 12.640625 27.34375 12.640625 20.75 
z
M 15.671875 54.046875 
Q 15.671875 48.828125 19.28125 45.3125 
Q 22.90625 41.796875 27.828125 41.796875 
Q 32.765625 41.796875 36.40625 45.3125 
Q 40.046875 48.828125 40.046875 54.046875 
Q 40.046875 59.421875 36.578125 62.90625 
Q 33.109375 66.40625 27.828125 66.40625 
Q 22.65625 66.40625 19.15625 62.953125 
Q 15.671875 59.515625 15.671875 54.046875 
z
" id="MalgunGothic-56"/>
       </defs>
       <use xlink:href="#MalgunGothic-56"/>
       <use x="55.078125" xlink:href="#MalgunGothic-48"/>
       <use x="110.15625" xlink:href="#MalgunGothic-48"/>
      </g>
     </g>
    </g>
    <g id="ytick_12">
     <g id="line2d_20">
      <g>
       <use style="stroke:#000000;stroke-width:0.8;" x="774.4" xlink:href="#mf3ef37f14a" y="66.696414"/>
      </g>
     </g>
     <g id="text_24">
      <!-- 1000 -->
      <g transform="translate(745.36875 70.492508)scale(0.1 -0.1)">
       <use xlink:href="#MalgunGothic-49"/>
       <use x="55.078125" xlink:href="#MalgunGothic-48"/>
       <use x="110.15625" xlink:href="#MalgunGothic-48"/>
       <use x="165.234375" xlink:href="#MalgunGothic-48"/>
      </g>
     </g>
    </g>
    <g id="text_25">
     <!-- 공포(호러) -->
     <g transform="translate(737.822656 200.761027)rotate(-90)scale(0.15 -0.15)">
      <defs>
       <path d="M 80.90625 82.515625 
Q 80.90625 61.765625 79.6875 50.984375 
L 72.703125 51.515625 
Q 73.578125 61.8125 73.578125 75.984375 
L 21.484375 75.984375 
L 21.484375 82.515625 
z
M 6.296875 37.59375 
L 6.296875 44.09375 
L 43.40625 44.09375 
L 43.40625 63.1875 
L 50.59375 63.1875 
L 50.59375 44.09375 
L 93.703125 44.09375 
L 93.703125 37.59375 
z
M 49.8125 -7.28125 
Q 35.0625 -7.28125 27.125 -2.3125 
Q 19.1875 2.640625 19.1875 10.796875 
Q 19.1875 19 27.09375 24 
Q 35.015625 29 49.8125 29 
Q 64.5 29 72.40625 24 
Q 80.328125 19 80.328125 10.796875 
Q 80.328125 2.640625 72.390625 -2.3125 
Q 64.453125 -7.28125 49.8125 -7.28125 
z
M 49.8125 22.796875 
Q 38.875 22.796875 32.9375 19.5 
Q 27 16.21875 27 10.796875 
Q 27 5.375 32.90625 2.125 
Q 38.8125 -1.125 49.8125 -1.125 
Q 60.796875 -1.125 66.703125 2.125 
Q 72.609375 5.375 72.609375 10.796875 
Q 72.609375 16.21875 66.640625 19.5 
Q 60.6875 22.796875 49.8125 22.796875 
z
" id="MalgunGothic-44277"/>
       <path d="M 15.578125 76.515625 
L 84.421875 76.515625 
L 84.421875 70.125 
L 15.578125 70.125 
z
M 70.21875 38.71875 
L 85.59375 38.71875 
L 85.59375 32.171875 
L 53.71875 32.171875 
L 53.71875 11.8125 
L 93.703125 11.8125 
L 93.703125 5.328125 
L 6.296875 5.328125 
L 6.296875 11.8125 
L 46.296875 11.8125 
L 46.296875 32.171875 
L 14.40625 32.171875 
L 14.40625 38.71875 
L 29.78125 38.71875 
L 28.609375 65.1875 
L 35.796875 65.1875 
L 37.109375 38.71875 
L 62.890625 38.71875 
L 64.203125 65.1875 
L 71.390625 65.1875 
z
" id="MalgunGothic-54252"/>
       <path d="M 22.46875 -16.3125 
Q 6.984375 1.375 6.984375 27.390625 
Q 6.984375 53.609375 22.46875 71.875 
L 29.5 71.875 
Q 13.71875 52.6875 13.71875 27.484375 
Q 13.71875 2.390625 29.390625 -16.3125 
z
" id="MalgunGothic-40"/>
       <path d="M 14.015625 66.5 
L 14.015625 72.90625 
L 46.390625 72.90625 
L 46.390625 84.421875 
L 53.609375 84.421875 
L 53.609375 72.90625 
L 85.984375 72.90625 
L 85.984375 66.5 
z
M 6.296875 5.609375 
L 6.296875 12.015625 
L 46.390625 12.015625 
L 46.390625 25.875 
Q 33.546875 26.46875 26.46875 31.390625 
Q 19.390625 36.328125 19.390625 43.703125 
Q 19.390625 51.46875 27.3125 56.5 
Q 35.25 61.53125 50 61.53125 
Q 64.59375 61.53125 72.546875 56.546875 
Q 80.515625 51.5625 80.515625 43.703125 
Q 80.515625 36.328125 73.4375 31.390625 
Q 66.359375 26.46875 53.609375 25.875 
L 53.609375 12.015625 
L 93.703125 12.015625 
L 93.703125 5.609375 
z
M 50 55.328125 
Q 38.8125 55.328125 32.953125 52.140625 
Q 27.09375 48.96875 27.09375 43.703125 
Q 27.09375 38.375 32.953125 35.171875 
Q 38.8125 31.984375 50 31.984375 
Q 61.1875 31.984375 66.984375 35.171875 
Q 72.796875 38.375 72.796875 43.703125 
Q 72.796875 48.96875 66.96875 52.140625 
Q 61.140625 55.328125 50 55.328125 
z
" id="MalgunGothic-54840"/>
       <path d="M 77.484375 -8.796875 
L 77.484375 40.09375 
L 60.40625 40.09375 
L 60.40625 46.578125 
L 77.484375 46.578125 
L 77.484375 85.40625 
L 84.8125 85.40625 
L 84.8125 -8.796875 
z
M 14.40625 12.203125 
L 14.40625 49.515625 
L 48.296875 49.515625 
L 48.296875 70.40625 
L 14.59375 70.40625 
L 14.59375 76.90625 
L 55.609375 76.90625 
L 55.609375 43.21875 
L 21.6875 43.21875 
L 21.6875 18.609375 
Q 44.875 18.609375 51.53125 18.84375 
Q 58.203125 19.09375 63.375 20.125 
L 64.59375 14.40625 
Q 52.640625 12.203125 14.40625 12.203125 
z
" id="MalgunGothic-47084"/>
       <path d="M 1.265625 -16.3125 
Q 16.890625 2.34375 16.890625 27.484375 
Q 16.890625 52.78125 1.125 71.875 
L 8.203125 71.875 
Q 23.78125 53.609375 23.78125 27.390625 
Q 23.78125 1.375 8.203125 -16.3125 
z
" id="MalgunGothic-41"/>
      </defs>
      <use xlink:href="#MalgunGothic-44277"/>
      <use x="100" xlink:href="#MalgunGothic-54252"/>
      <use x="200" xlink:href="#MalgunGothic-40"/>
      <use x="230.46875" xlink:href="#MalgunGothic-54840"/>
      <use x="330.46875" xlink:href="#MalgunGothic-47084"/>
      <use x="430.46875" xlink:href="#MalgunGothic-41"/>
     </g>
    </g>
   </g>
   <g id="patch_16">
    <path d="M 774.4 299.58143 
L 774.4 32.8 
" style="fill:none;stroke:#000000;stroke-linecap:square;stroke-linejoin:miter;stroke-width:0.8;"/>
   </g>
   <g id="patch_17">
    <path d="M 1429.2 299.58143 
L 1429.2 32.8 
" style="fill:none;stroke:#000000;stroke-linecap:square;stroke-linejoin:miter;stroke-width:0.8;"/>
   </g>
   <g id="patch_18">
    <path d="M 774.4 299.58143 
L 1429.2 299.58143 
" style="fill:none;stroke:#000000;stroke-linecap:square;stroke-linejoin:miter;stroke-width:0.8;"/>
   </g>
   <g id="patch_19">
    <path d="M 774.4 32.8 
L 1429.2 32.8 
" style="fill:none;stroke:#000000;stroke-linecap:square;stroke-linejoin:miter;stroke-width:0.8;"/>
   </g>
   <g id="text_26">
    <!-- 기온과 공포 장르 -->
    <g transform="translate(1024.76875 26.8)scale(0.2 -0.2)">
     <use xlink:href="#MalgunGothic-44592"/>
     <use x="100" xlink:href="#MalgunGothic-50728"/>
     <use x="200" xlink:href="#MalgunGothic-44284"/>
     <use x="300" xlink:href="#MalgunGothic-32"/>
     <use x="335.15625" xlink:href="#MalgunGothic-44277"/>
     <use x="435.15625" xlink:href="#MalgunGothic-54252"/>
     <use x="535.15625" xlink:href="#MalgunGothic-32"/>
     <use x="570.3125" xlink:href="#MalgunGothic-51109"/>
     <use x="670.3125" xlink:href="#MalgunGothic-47476"/>
    </g>
   </g>
  </g>
  <g id="axes_3">
   <g id="patch_20">
    <path d="M 59.8 663.78143 
L 714.6 663.78143 
L 714.6 397 
L 59.8 397 
z
" style="fill:#ffffff;"/>
   </g>
   <g id="patch_21">
    <path clip-path="url(#p4277bfe7b8)" d="M 89.563636 663.78143 
L 214.884211 663.78143 
L 214.884211 478.688062 
L 89.563636 478.688062 
z
" style="fill:#2c7ef7;"/>
   </g>
   <g id="patch_22">
    <path clip-path="url(#p4277bfe7b8)" d="M 246.214354 663.78143 
L 371.534928 663.78143 
L 371.534928 482.378574 
L 246.214354 482.378574 
z
" style="fill:#2adddd;"/>
   </g>
   <g id="patch_23">
    <path clip-path="url(#p4277bfe7b8)" d="M 402.865072 663.78143 
L 528.185646 663.78143 
L 528.185646 460.235502 
L 402.865072 460.235502 
z
" style="fill:#80ffb4;"/>
   </g>
   <g id="patch_24">
    <path clip-path="url(#p4277bfe7b8)" d="M 559.515789 663.78143 
L 684.836364 663.78143 
L 684.836364 409.703878 
L 559.515789 409.703878 
z
" style="fill:#d4dd80;"/>
   </g>
   <g id="matplotlib.axis_5">
    <g id="xtick_9">
     <g id="line2d_21">
      <g>
       <use style="stroke:#000000;stroke-width:0.8;" x="152.223923" xlink:href="#mcceb136f01" y="663.78143"/>
      </g>
     </g>
     <g id="text_27">
      <!-- temp1 -->
      <g transform="translate(139.48143 687.842353)rotate(-20)scale(0.1 -0.1)">
       <use xlink:href="#MalgunGothic-116"/>
       <use x="33.597656" xlink:href="#MalgunGothic-101"/>
       <use x="87.113281" xlink:href="#MalgunGothic-109"/>
       <use x="175.101562" xlink:href="#MalgunGothic-112"/>
       <use x="235.160156" xlink:href="#MalgunGothic-49"/>
      </g>
     </g>
    </g>
    <g id="xtick_10">
     <g id="line2d_22">
      <g>
       <use style="stroke:#000000;stroke-width:0.8;" x="308.874641" xlink:href="#mcceb136f01" y="663.78143"/>
      </g>
     </g>
     <g id="text_28">
      <!-- temp2 -->
      <g transform="translate(296.132148 687.842353)rotate(-20)scale(0.1 -0.1)">
       <use xlink:href="#MalgunGothic-116"/>
       <use x="33.597656" xlink:href="#MalgunGothic-101"/>
       <use x="87.113281" xlink:href="#MalgunGothic-109"/>
       <use x="175.101562" xlink:href="#MalgunGothic-112"/>
       <use x="235.160156" xlink:href="#MalgunGothic-50"/>
      </g>
     </g>
    </g>
    <g id="xtick_11">
     <g id="line2d_23">
      <g>
       <use style="stroke:#000000;stroke-width:0.8;" x="465.525359" xlink:href="#mcceb136f01" y="663.78143"/>
      </g>
     </g>
     <g id="text_29">
      <!-- temp3 -->
      <g transform="translate(452.782866 687.842353)rotate(-20)scale(0.1 -0.1)">
       <use xlink:href="#MalgunGothic-116"/>
       <use x="33.597656" xlink:href="#MalgunGothic-101"/>
       <use x="87.113281" xlink:href="#MalgunGothic-109"/>
       <use x="175.101562" xlink:href="#MalgunGothic-112"/>
       <use x="235.160156" xlink:href="#MalgunGothic-51"/>
      </g>
     </g>
    </g>
    <g id="xtick_12">
     <g id="line2d_24">
      <g>
       <use style="stroke:#000000;stroke-width:0.8;" x="622.176077" xlink:href="#mcceb136f01" y="663.78143"/>
      </g>
     </g>
     <g id="text_30">
      <!-- temp4 -->
      <g transform="translate(609.433584 687.842353)rotate(-20)scale(0.1 -0.1)">
       <use xlink:href="#MalgunGothic-116"/>
       <use x="33.597656" xlink:href="#MalgunGothic-101"/>
       <use x="87.113281" xlink:href="#MalgunGothic-109"/>
       <use x="175.101562" xlink:href="#MalgunGothic-112"/>
       <use x="235.160156" xlink:href="#MalgunGothic-52"/>
      </g>
     </g>
    </g>
    <g id="text_31">
     <!-- 평균기온 구간 -->
     <g transform="translate(339.563281 705.452126)scale(0.15 -0.15)">
      <use xlink:href="#MalgunGothic-54217"/>
      <use x="100" xlink:href="#MalgunGothic-44512"/>
      <use x="200" xlink:href="#MalgunGothic-44592"/>
      <use x="300" xlink:href="#MalgunGothic-50728"/>
      <use x="400" xlink:href="#MalgunGothic-32"/>
      <use x="435.15625" xlink:href="#MalgunGothic-44396"/>
      <use x="535.15625" xlink:href="#MalgunGothic-44036"/>
     </g>
    </g>
   </g>
   <g id="matplotlib.axis_6">
    <g id="ytick_13">
     <g id="line2d_25">
      <g>
       <use style="stroke:#000000;stroke-width:0.8;" x="59.8" xlink:href="#mf3ef37f14a" y="663.78143"/>
      </g>
     </g>
     <g id="text_32">
      <!-- 0 -->
      <g transform="translate(47.292187 667.577523)scale(0.1 -0.1)">
       <use xlink:href="#MalgunGothic-48"/>
      </g>
     </g>
    </g>
    <g id="ytick_14">
     <g id="line2d_26">
      <g>
       <use style="stroke:#000000;stroke-width:0.8;" x="59.8" xlink:href="#mf3ef37f14a" y="607.004323"/>
      </g>
     </g>
     <g id="text_33">
      <!-- 200 -->
      <g transform="translate(36.276562 610.800417)scale(0.1 -0.1)">
       <use xlink:href="#MalgunGothic-50"/>
       <use x="55.078125" xlink:href="#MalgunGothic-48"/>
       <use x="110.15625" xlink:href="#MalgunGothic-48"/>
      </g>
     </g>
    </g>
    <g id="ytick_15">
     <g id="line2d_27">
      <g>
       <use style="stroke:#000000;stroke-width:0.8;" x="59.8" xlink:href="#mf3ef37f14a" y="550.227216"/>
      </g>
     </g>
     <g id="text_34">
      <!-- 400 -->
      <g transform="translate(36.276562 554.02331)scale(0.1 -0.1)">
       <use xlink:href="#MalgunGothic-52"/>
       <use x="55.078125" xlink:href="#MalgunGothic-48"/>
       <use x="110.15625" xlink:href="#MalgunGothic-48"/>
      </g>
     </g>
    </g>
    <g id="ytick_16">
     <g id="line2d_28">
      <g>
       <use style="stroke:#000000;stroke-width:0.8;" x="59.8" xlink:href="#mf3ef37f14a" y="493.45011"/>
      </g>
     </g>
     <g id="text_35">
      <!-- 600 -->
      <g transform="translate(36.276562 497.246204)scale(0.1 -0.1)">
       <use xlink:href="#MalgunGothic-54"/>
       <use x="55.078125" xlink:href="#MalgunGothic-48"/>
       <use x="110.15625" xlink:href="#MalgunGothic-48"/>
      </g>
     </g>
    </g>
    <g id="ytick_17">
     <g id="line2d_29">
      <g>
       <use style="stroke:#000000;stroke-width:0.8;" x="59.8" xlink:href="#mf3ef37f14a" y="436.673003"/>
      </g>
     </g>
     <g id="text_36">
      <!-- 800 -->
      <g transform="translate(36.276562 440.469097)scale(0.1 -0.1)">
       <use xlink:href="#MalgunGothic-56"/>
       <use x="55.078125" xlink:href="#MalgunGothic-48"/>
       <use x="110.15625" xlink:href="#MalgunGothic-48"/>
      </g>
     </g>
    </g>
    <g id="text_37">
     <!-- 미스테리 -->
     <g transform="translate(28.730469 560.390715)rotate(-90)scale(0.15 -0.15)">
      <defs>
       <path d="M 76.3125 -8.796875 
L 76.3125 85.40625 
L 83.59375 85.40625 
L 83.59375 -8.796875 
z
M 12.796875 18.890625 
L 12.796875 77.09375 
L 57.625 77.09375 
L 57.625 18.890625 
z
M 50.296875 70.703125 
L 20.125 70.703125 
L 20.125 25.296875 
L 50.296875 25.296875 
z
" id="MalgunGothic-48120"/>
       <path d="M 49.90625 60.890625 
Q 46.390625 53.375 36.375 45.78125 
Q 26.375 38.1875 14.984375 35.109375 
L 10.015625 40.921875 
Q 26.609375 44.390625 36.390625 54.25 
Q 46.1875 64.109375 46.1875 72.796875 
L 46.1875 77.78125 
L 53.71875 77.78125 
L 53.71875 72.796875 
Q 53.71875 63.96875 63.640625 54.3125 
Q 73.578125 44.671875 89.984375 41.015625 
L 84.8125 35.203125 
Q 73.34375 38.765625 63.40625 46.1875 
Q 53.46875 53.609375 49.90625 60.890625 
z
M 93.703125 6.984375 
L 6.296875 6.984375 
L 6.296875 13.484375 
L 93.703125 13.484375 
z
" id="MalgunGothic-49828"/>
       <path d="M 78.8125 -8.796875 
L 78.8125 85.40625 
L 86.078125 85.40625 
L 86.078125 -8.796875 
z
M 60.890625 -5.71875 
L 60.890625 39.109375 
L 46.296875 39.109375 
L 46.296875 45.609375 
L 60.890625 45.609375 
L 60.890625 83.5 
L 68.109375 83.5 
L 68.109375 -5.71875 
z
M 20.515625 44.1875 
L 20.515625 21.296875 
Q 43.890625 21.296875 50.984375 22.40625 
L 51.515625 16.109375 
Q 43.453125 14.890625 13.1875 14.890625 
L 13.1875 77.59375 
L 48 77.59375 
L 48 71.09375 
L 20.515625 71.09375 
L 20.515625 50.59375 
L 39.5 50.59375 
L 39.5 44.1875 
z
" id="MalgunGothic-53580"/>
       <path d="M 76.3125 -8.796875 
L 76.3125 85.40625 
L 83.59375 85.40625 
L 83.59375 -8.796875 
z
M 13.375 11.53125 
L 13.375 48.875 
L 49.21875 48.875 
L 49.21875 70.609375 
L 13.375 70.609375 
L 13.375 77.09375 
L 56.5 77.09375 
L 56.5 42.578125 
L 20.703125 42.578125 
L 20.703125 18.015625 
Q 56.203125 18.015625 65.578125 20.015625 
L 66.40625 13.71875 
Q 54.6875 11.53125 13.375 11.53125 
z
" id="MalgunGothic-47532"/>
      </defs>
      <use xlink:href="#MalgunGothic-48120"/>
      <use x="100" xlink:href="#MalgunGothic-49828"/>
      <use x="200" xlink:href="#MalgunGothic-53580"/>
      <use x="300" xlink:href="#MalgunGothic-47532"/>
     </g>
    </g>
   </g>
   <g id="patch_25">
    <path d="M 59.8 663.78143 
L 59.8 397 
" style="fill:none;stroke:#000000;stroke-linecap:square;stroke-linejoin:miter;stroke-width:0.8;"/>
   </g>
   <g id="patch_26">
    <path d="M 714.6 663.78143 
L 714.6 397 
" style="fill:none;stroke:#000000;stroke-linecap:square;stroke-linejoin:miter;stroke-width:0.8;"/>
   </g>
   <g id="patch_27">
    <path d="M 59.8 663.78143 
L 714.6 663.78143 
" style="fill:none;stroke:#000000;stroke-linecap:square;stroke-linejoin:miter;stroke-width:0.8;"/>
   </g>
   <g id="patch_28">
    <path d="M 59.8 397 
L 714.6 397 
" style="fill:none;stroke:#000000;stroke-linecap:square;stroke-linejoin:miter;stroke-width:0.8;"/>
   </g>
   <g id="text_38">
    <!-- 기온과 미스테리 장르 -->
    <g transform="translate(290.16875 391)scale(0.2 -0.2)">
     <use xlink:href="#MalgunGothic-44592"/>
     <use x="100" xlink:href="#MalgunGothic-50728"/>
     <use x="200" xlink:href="#MalgunGothic-44284"/>
     <use x="300" xlink:href="#MalgunGothic-32"/>
     <use x="335.15625" xlink:href="#MalgunGothic-48120"/>
     <use x="435.15625" xlink:href="#MalgunGothic-49828"/>
     <use x="535.15625" xlink:href="#MalgunGothic-53580"/>
     <use x="635.15625" xlink:href="#MalgunGothic-47532"/>
     <use x="735.15625" xlink:href="#MalgunGothic-32"/>
     <use x="770.3125" xlink:href="#MalgunGothic-51109"/>
     <use x="870.3125" xlink:href="#MalgunGothic-47476"/>
    </g>
   </g>
  </g>
  <g id="axes_4">
   <g id="patch_29">
    <path d="M 774.4 663.78143 
L 1429.2 663.78143 
L 1429.2 397 
L 774.4 397 
z
" style="fill:#ffffff;"/>
   </g>
   <g id="patch_30">
    <path clip-path="url(#p7312fd7515)" d="M 804.163636 663.78143 
L 929.484211 663.78143 
L 929.484211 409.703878 
L 804.163636 409.703878 
z
" style="fill:#8d579d;"/>
   </g>
   <g id="patch_31">
    <path clip-path="url(#p7312fd7515)" d="M 960.814354 663.78143 
L 1086.134928 663.78143 
L 1086.134928 423.468604 
L 960.814354 423.468604 
z
" style="fill:#ceb5d7;"/>
   </g>
   <g id="patch_32">
    <path clip-path="url(#p7312fd7515)" d="M 1117.465072 663.78143 
L 1242.785646 663.78143 
L 1242.785646 454.110462 
L 1117.465072 454.110462 
z
" style="fill:#f6f7f6;"/>
   </g>
   <g id="patch_33">
    <path clip-path="url(#p7312fd7515)" d="M 1274.115789 663.78143 
L 1399.436364 663.78143 
L 1399.436364 451.567933 
L 1274.115789 451.567933 
z
" style="fill:#b7e2b1;"/>
   </g>
   <g id="matplotlib.axis_7">
    <g id="xtick_13">
     <g id="line2d_30">
      <g>
       <use style="stroke:#000000;stroke-width:0.8;" x="866.823923" xlink:href="#mcceb136f01" y="663.78143"/>
      </g>
     </g>
     <g id="text_39">
      <!-- temp1 -->
      <g transform="translate(854.08143 687.842353)rotate(-20)scale(0.1 -0.1)">
       <use xlink:href="#MalgunGothic-116"/>
       <use x="33.597656" xlink:href="#MalgunGothic-101"/>
       <use x="87.113281" xlink:href="#MalgunGothic-109"/>
       <use x="175.101562" xlink:href="#MalgunGothic-112"/>
       <use x="235.160156" xlink:href="#MalgunGothic-49"/>
      </g>
     </g>
    </g>
    <g id="xtick_14">
     <g id="line2d_31">
      <g>
       <use style="stroke:#000000;stroke-width:0.8;" x="1023.474641" xlink:href="#mcceb136f01" y="663.78143"/>
      </g>
     </g>
     <g id="text_40">
      <!-- temp2 -->
      <g transform="translate(1010.732148 687.842353)rotate(-20)scale(0.1 -0.1)">
       <use xlink:href="#MalgunGothic-116"/>
       <use x="33.597656" xlink:href="#MalgunGothic-101"/>
       <use x="87.113281" xlink:href="#MalgunGothic-109"/>
       <use x="175.101562" xlink:href="#MalgunGothic-112"/>
       <use x="235.160156" xlink:href="#MalgunGothic-50"/>
      </g>
     </g>
    </g>
    <g id="xtick_15">
     <g id="line2d_32">
      <g>
       <use style="stroke:#000000;stroke-width:0.8;" x="1180.125359" xlink:href="#mcceb136f01" y="663.78143"/>
      </g>
     </g>
     <g id="text_41">
      <!-- temp3 -->
      <g transform="translate(1167.382866 687.842353)rotate(-20)scale(0.1 -0.1)">
       <use xlink:href="#MalgunGothic-116"/>
       <use x="33.597656" xlink:href="#MalgunGothic-101"/>
       <use x="87.113281" xlink:href="#MalgunGothic-109"/>
       <use x="175.101562" xlink:href="#MalgunGothic-112"/>
       <use x="235.160156" xlink:href="#MalgunGothic-51"/>
      </g>
     </g>
    </g>
    <g id="xtick_16">
     <g id="line2d_33">
      <g>
       <use style="stroke:#000000;stroke-width:0.8;" x="1336.776077" xlink:href="#mcceb136f01" y="663.78143"/>
      </g>
     </g>
     <g id="text_42">
      <!-- temp4 -->
      <g transform="translate(1324.033584 687.842353)rotate(-20)scale(0.1 -0.1)">
       <use xlink:href="#MalgunGothic-116"/>
       <use x="33.597656" xlink:href="#MalgunGothic-101"/>
       <use x="87.113281" xlink:href="#MalgunGothic-109"/>
       <use x="175.101562" xlink:href="#MalgunGothic-112"/>
       <use x="235.160156" xlink:href="#MalgunGothic-52"/>
      </g>
     </g>
    </g>
    <g id="text_43">
     <!-- 평균기온 구간 -->
     <g transform="translate(1054.163281 705.452126)scale(0.15 -0.15)">
      <use xlink:href="#MalgunGothic-54217"/>
      <use x="100" xlink:href="#MalgunGothic-44512"/>
      <use x="200" xlink:href="#MalgunGothic-44592"/>
      <use x="300" xlink:href="#MalgunGothic-50728"/>
      <use x="400" xlink:href="#MalgunGothic-32"/>
      <use x="435.15625" xlink:href="#MalgunGothic-44396"/>
      <use x="535.15625" xlink:href="#MalgunGothic-44036"/>
     </g>
    </g>
   </g>
   <g id="matplotlib.axis_8">
    <g id="ytick_18">
     <g id="line2d_34">
      <g>
       <use style="stroke:#000000;stroke-width:0.8;" x="774.4" xlink:href="#mf3ef37f14a" y="663.78143"/>
      </g>
     </g>
     <g id="text_44">
      <!-- 0 -->
      <g transform="translate(761.892187 667.577523)scale(0.1 -0.1)">
       <use xlink:href="#MalgunGothic-48"/>
      </g>
     </g>
    </g>
    <g id="ytick_19">
     <g id="line2d_35">
      <g>
       <use style="stroke:#000000;stroke-width:0.8;" x="774.4" xlink:href="#mf3ef37f14a" y="619.944723"/>
      </g>
     </g>
     <g id="text_45">
      <!-- 1000 -->
      <g transform="translate(745.36875 623.740817)scale(0.1 -0.1)">
       <use xlink:href="#MalgunGothic-49"/>
       <use x="55.078125" xlink:href="#MalgunGothic-48"/>
       <use x="110.15625" xlink:href="#MalgunGothic-48"/>
       <use x="165.234375" xlink:href="#MalgunGothic-48"/>
      </g>
     </g>
    </g>
    <g id="ytick_20">
     <g id="line2d_36">
      <g>
       <use style="stroke:#000000;stroke-width:0.8;" x="774.4" xlink:href="#mf3ef37f14a" y="576.108016"/>
      </g>
     </g>
     <g id="text_46">
      <!-- 2000 -->
      <g transform="translate(745.36875 579.90411)scale(0.1 -0.1)">
       <use xlink:href="#MalgunGothic-50"/>
       <use x="55.078125" xlink:href="#MalgunGothic-48"/>
       <use x="110.15625" xlink:href="#MalgunGothic-48"/>
       <use x="165.234375" xlink:href="#MalgunGothic-48"/>
      </g>
     </g>
    </g>
    <g id="ytick_21">
     <g id="line2d_37">
      <g>
       <use style="stroke:#000000;stroke-width:0.8;" x="774.4" xlink:href="#mf3ef37f14a" y="532.27131"/>
      </g>
     </g>
     <g id="text_47">
      <!-- 3000 -->
      <g transform="translate(745.36875 536.067403)scale(0.1 -0.1)">
       <use xlink:href="#MalgunGothic-51"/>
       <use x="55.078125" xlink:href="#MalgunGothic-48"/>
       <use x="110.15625" xlink:href="#MalgunGothic-48"/>
       <use x="165.234375" xlink:href="#MalgunGothic-48"/>
      </g>
     </g>
    </g>
    <g id="ytick_22">
     <g id="line2d_38">
      <g>
       <use style="stroke:#000000;stroke-width:0.8;" x="774.4" xlink:href="#mf3ef37f14a" y="488.434603"/>
      </g>
     </g>
     <g id="text_48">
      <!-- 4000 -->
      <g transform="translate(745.36875 492.230697)scale(0.1 -0.1)">
       <use xlink:href="#MalgunGothic-52"/>
       <use x="55.078125" xlink:href="#MalgunGothic-48"/>
       <use x="110.15625" xlink:href="#MalgunGothic-48"/>
       <use x="165.234375" xlink:href="#MalgunGothic-48"/>
      </g>
     </g>
    </g>
    <g id="ytick_23">
     <g id="line2d_39">
      <g>
       <use style="stroke:#000000;stroke-width:0.8;" x="774.4" xlink:href="#mf3ef37f14a" y="444.597896"/>
      </g>
     </g>
     <g id="text_49">
      <!-- 5000 -->
      <g transform="translate(745.36875 448.39399)scale(0.1 -0.1)">
       <use xlink:href="#MalgunGothic-53"/>
       <use x="55.078125" xlink:href="#MalgunGothic-48"/>
       <use x="110.15625" xlink:href="#MalgunGothic-48"/>
       <use x="165.234375" xlink:href="#MalgunGothic-48"/>
      </g>
     </g>
    </g>
    <g id="ytick_24">
     <g id="line2d_40">
      <g>
       <use style="stroke:#000000;stroke-width:0.8;" x="774.4" xlink:href="#mf3ef37f14a" y="400.761189"/>
      </g>
     </g>
     <g id="text_50">
      <!-- 6000 -->
      <g transform="translate(745.36875 404.557283)scale(0.1 -0.1)">
       <use xlink:href="#MalgunGothic-54"/>
       <use x="55.078125" xlink:href="#MalgunGothic-48"/>
       <use x="110.15625" xlink:href="#MalgunGothic-48"/>
       <use x="165.234375" xlink:href="#MalgunGothic-48"/>
      </g>
     </g>
    </g>
    <g id="text_51">
     <!-- 애니메이션 -->
     <g transform="translate(737.822656 567.890715)rotate(-90)scale(0.15 -0.15)">
      <defs>
       <path d="M 79.203125 -8.796875 
L 79.203125 39.890625 
L 67.390625 39.890625 
L 67.390625 -5.90625 
L 60.203125 -5.90625 
L 60.203125 83.5 
L 67.390625 83.5 
L 67.390625 46.390625 
L 79.203125 46.390625 
L 79.203125 85.40625 
L 86.53125 85.40625 
L 86.53125 -8.796875 
z
M 30.421875 14.984375 
Q 20.75 14.984375 15.515625 23.109375 
Q 10.296875 31.25 10.296875 47.125 
Q 10.296875 62.9375 15.515625 71.015625 
Q 20.75 79.109375 30.421875 79.109375 
Q 39.984375 79.109375 45.234375 71.046875 
Q 50.484375 62.984375 50.484375 47.125 
Q 50.484375 31.203125 45.234375 23.09375 
Q 39.984375 14.984375 30.421875 14.984375 
z
M 30.421875 72.515625 
Q 17.28125 72.515625 17.28125 47.125 
Q 17.28125 21.578125 30.421875 21.578125 
Q 43.40625 21.578125 43.40625 47.125 
Q 43.40625 72.515625 30.421875 72.515625 
z
" id="MalgunGothic-50528"/>
       <path d="M 77.296875 -8.796875 
L 77.296875 85.40625 
L 84.625 85.40625 
L 84.625 -8.796875 
z
M 70.125 21 
Q 62.5 18.796875 16.5 18.796875 
L 16.5 77.390625 
L 23.78125 77.390625 
L 23.78125 25.296875 
L 30.21875 25.296875 
Q 58.984375 25.296875 69.1875 27.296875 
z
" id="MalgunGothic-45768"/>
       <path d="M 79.203125 -8.796875 
L 79.203125 85.40625 
L 86.625 85.40625 
L 86.625 -8.796875 
z
M 12.015625 18.3125 
L 12.015625 77.203125 
L 49.421875 77.203125 
L 49.421875 50.59375 
L 62.5 50.59375 
L 62.5 83.5 
L 69.671875 83.5 
L 69.671875 -5.421875 
L 62.5 -5.421875 
L 62.5 44.09375 
L 49.421875 44.09375 
L 49.421875 18.3125 
z
M 42.09375 70.703125 
L 19.28125 70.703125 
L 19.28125 24.90625 
L 42.09375 24.90625 
z
" id="MalgunGothic-47700"/>
       <path d="M 77.296875 -8.796875 
L 77.296875 85.40625 
L 84.625 85.40625 
L 84.625 -8.796875 
z
M 35.6875 14.984375 
Q 24.953125 14.984375 18.328125 23.65625 
Q 11.71875 32.328125 11.71875 47.125 
Q 11.71875 62.109375 18.265625 70.65625 
Q 24.8125 79.203125 35.6875 79.203125 
Q 46.53125 79.203125 53.171875 70.65625 
Q 59.8125 62.109375 59.8125 47.125 
Q 59.8125 32.234375 53.140625 23.609375 
Q 46.484375 14.984375 35.6875 14.984375 
z
M 35.6875 72.703125 
Q 28.171875 72.703125 23.484375 65.6875 
Q 18.796875 58.6875 18.796875 47.125 
Q 18.796875 35.59375 23.53125 28.53125 
Q 28.265625 21.484375 35.6875 21.484375 
Q 43.0625 21.484375 47.828125 28.5625 
Q 52.59375 35.640625 52.59375 47.125 
Q 52.59375 58.734375 47.921875 65.71875 
Q 43.265625 72.703125 35.6875 72.703125 
z
" id="MalgunGothic-51060"/>
       <path d="M 58.015625 47.90625 
L 58.015625 54.203125 
L 76.21875 54.203125 
L 76.21875 64.890625 
L 58.015625 64.890625 
L 58.015625 71.1875 
L 76.21875 71.1875 
L 76.21875 85.40625 
L 83.5 85.40625 
L 83.5 16.609375 
L 76.21875 16.609375 
L 76.21875 47.90625 
z
M 57.421875 32.328125 
Q 50.4375 36.625 44.203125 43.375 
Q 37.984375 50.140625 35.40625 55.71875 
Q 32.671875 49.21875 25.96875 41.375 
Q 19.28125 33.546875 12.796875 29.890625 
L 7.515625 34.90625 
Q 17.578125 39.984375 24.578125 49.96875 
Q 31.59375 59.96875 31.59375 70.21875 
L 31.59375 82.328125 
L 38.71875 82.328125 
L 38.71875 70.21875 
Q 38.71875 60.84375 45.984375 51.34375 
Q 53.265625 41.84375 62.3125 37.59375 
z
M 25.484375 -5.71875 
L 25.484375 24.21875 
L 32.8125 24.21875 
L 32.8125 0.6875 
L 85.984375 0.6875 
L 85.984375 -5.71875 
z
" id="MalgunGothic-49496"/>
      </defs>
      <use xlink:href="#MalgunGothic-50528"/>
      <use x="100" xlink:href="#MalgunGothic-45768"/>
      <use x="200" xlink:href="#MalgunGothic-47700"/>
      <use x="300" xlink:href="#MalgunGothic-51060"/>
      <use x="400" xlink:href="#MalgunGothic-49496"/>
     </g>
    </g>
   </g>
   <g id="patch_34">
    <path d="M 774.4 663.78143 
L 774.4 397 
" style="fill:none;stroke:#000000;stroke-linecap:square;stroke-linejoin:miter;stroke-width:0.8;"/>
   </g>
   <g id="patch_35">
    <path d="M 1429.2 663.78143 
L 1429.2 397 
" style="fill:none;stroke:#000000;stroke-linecap:square;stroke-linejoin:miter;stroke-width:0.8;"/>
   </g>
   <g id="patch_36">
    <path d="M 774.4 663.78143 
L 1429.2 663.78143 
" style="fill:none;stroke:#000000;stroke-linecap:square;stroke-linejoin:miter;stroke-width:0.8;"/>
   </g>
   <g id="patch_37">
    <path d="M 774.4 397 
L 1429.2 397 
" style="fill:none;stroke:#000000;stroke-linecap:square;stroke-linejoin:miter;stroke-width:0.8;"/>
   </g>
   <g id="text_52">
    <!-- 기온과 애니메이션 장르 -->
    <g transform="translate(994.76875 391)scale(0.2 -0.2)">
     <use xlink:href="#MalgunGothic-44592"/>
     <use x="100" xlink:href="#MalgunGothic-50728"/>
     <use x="200" xlink:href="#MalgunGothic-44284"/>
     <use x="300" xlink:href="#MalgunGothic-32"/>
     <use x="335.15625" xlink:href="#MalgunGothic-50528"/>
     <use x="435.15625" xlink:href="#MalgunGothic-45768"/>
     <use x="535.15625" xlink:href="#MalgunGothic-47700"/>
     <use x="635.15625" xlink:href="#MalgunGothic-51060"/>
     <use x="735.15625" xlink:href="#MalgunGothic-49496"/>
     <use x="835.15625" xlink:href="#MalgunGothic-32"/>
     <use x="870.3125" xlink:href="#MalgunGothic-51109"/>
     <use x="970.3125" xlink:href="#MalgunGothic-47476"/>
    </g>
   </g>
  </g>
 </g>
 <defs>
  <clipPath id="p373e9ed0d1">
   <rect height="266.78143" width="654.8" x="59.8" y="32.8"/>
  </clipPath>
  <clipPath id="p54547cec81">
   <rect height="266.78143" width="654.8" x="774.4" y="32.8"/>
  </clipPath>
  <clipPath id="p4277bfe7b8">
   <rect height="266.78143" width="654.8" x="59.8" y="397"/>
  </clipPath>
  <clipPath id="p7312fd7515">
   <rect height="266.78143" width="654.8" x="774.4" y="397"/>
  </clipPath>
 </defs>
</svg>
